<svg width="25" height="24" viewBox="0 0 25 24" fill="none" xmlns="http://www.w3.org/2000/svg">
<path d="M7.257 8C6.5 8 5.976 8.587 5.872 9.167L4.5 16H5.507L5.912 14H8.572L8.984 16H9.999L8.602 9.193C8.482 8.525 8.013 8.001 7.256 8.001L7.257 8ZM6.115 13L6.856 9.343C6.875 9.236 7.002 9.001 7.256 9.001C7.344 9.001 7.551 9.001 7.622 9.394L8.365 13H6.115ZM11.5 10.5V13.5C11.5 14.328 12.172 15 13 15C13.828 15 14.5 14.328 14.5 13.5V13H13V12H15.5V13.6H15.489C15.432 14.93 14.344 15.993 13 15.993C11.619 15.993 10.5 14.874 10.5 13.493V10.493C10.5 9.112 11.619 7.993 13 7.993C14.381 7.993 15.5 9.112 15.5 10.493H14.499C14.495 9.668 13.826 9 13 9C12.174 9 11.5 9.672 11.5 10.5ZM24.5 12C24.5 18.617 19.117 24 12.5 24C5.883 24 0.5 18.617 0.5 12C0.5 5.383 5.883 0 12.5 0C15.99 0 19.219 1.491 21.5 4.091V0H22.5V4.5C22.5 5.327 21.827 6 21 6H16.5V5H20.966C18.866 2.46 15.81 1 12.5 1C6.435 1 1.5 5.935 1.5 12C1.5 18.065 6.435 23 12.5 23C18.565 23 23.5 18.065 23.5 12H24.5ZM17.5 9V11.5H20V12.5H17.5V15H20V16H16.5V8H20V9H17.5Z" fill="#129412"/>
</svg>
