<svg width="23" height="23" viewBox="0 0 23 23" fill="none" xmlns="http://www.w3.org/2000/svg">
<path opacity="0.972" fill-rule="evenodd" clip-rule="evenodd" d="M18.5548 0.0563955C13.7423 0.13159 8.92971 0.13159 4.11719 0.0563955C8.92971 -0.0187985 13.7423 -0.0187985 18.5548 0.0563955Z" fill="#129412"/>
<path fill-rule="evenodd" clip-rule="evenodd" d="M3.60826 0.113281C3.56687 0.181403 3.54809 0.256603 3.55187 0.338869C3.72867 0.304286 3.89786 0.247889 4.05944 0.169678C8.62714 0.172261 13.1953 0.172261 17.7639 0.169678C18.1211 0.188475 18.4783 0.207278 18.8354 0.226075C18.7003 0.315938 18.5687 0.353532 18.4407 0.338869C18.644 0.397443 18.8508 0.435043 19.061 0.451663C19.061 0.395266 19.061 0.338869 19.061 0.282472C19.1753 0.27333 19.2881 0.282726 19.3994 0.310671C19.4466 0.367705 19.4654 0.433497 19.4558 0.50806C19.3806 0.50806 19.3054 0.50806 19.2302 0.50806C19.2302 0.564457 19.2302 0.620854 19.2302 0.677251C19.4446 0.642301 19.6326 0.689303 19.7942 0.818243C19.647 0.774919 19.5061 0.74672 19.3712 0.733648C19.3533 0.821678 19.3063 0.887476 19.2302 0.931037C19.249 0.949834 19.2678 0.968637 19.2866 0.987434C19.235 1.00854 19.1879 1.03674 19.1456 1.07203C18.8358 1.03457 18.5444 0.940579 18.2715 0.790045C18.1723 0.825456 18.0877 0.881853 18.0177 0.959235C17.9895 0.931037 17.9613 0.902838 17.9331 0.87464C17.4329 0.830002 16.9347 0.839398 16.4386 0.902838C16.3675 0.888226 16.3111 0.850626 16.2694 0.790045C16.1331 0.8381 15.9921 0.8757 15.8464 0.902838C15.1632 0.889664 14.4864 0.889664 13.8161 0.902838C13.7127 0.907655 13.6376 0.945255 13.5905 1.01563C13.0237 1.07647 12.4785 1.07647 11.955 1.01563C9.93437 0.959326 7.90408 0.940523 5.86414 0.959235C5.64143 0.893713 5.40642 0.856114 5.15918 0.846442C4.81166 0.877516 4.46386 0.905715 4.11584 0.931037C3.6862 0.995984 3.27265 1.09938 2.8751 1.24122C2.86552 1.16666 2.88432 1.10087 2.9315 1.04383C3.24924 1.00807 3.26808 0.979871 2.9879 0.959235C3.00476 0.840576 2.98598 0.727782 2.9315 0.620854C2.50083 0.777812 2.48202 0.730811 2.8751 0.479861C3.00143 0.424762 3.13301 0.396563 3.26988 0.395266C3.26988 0.338869 3.26988 0.282472 3.26988 0.226075C3.37822 0.177421 3.49101 0.139827 3.60826 0.113281Z" fill="#129412"/>
<path fill-rule="evenodd" clip-rule="evenodd" d="M4.11523 0.0546875C8.92775 0.129882 13.7403 0.129882 18.5528 0.0546875C20.5797 0.316691 21.8957 1.42583 22.5006 3.38211C22.4442 3.38211 22.3878 3.38211 22.3314 3.38211C22.3046 3.09488 22.2106 2.8317 22.0495 2.59255C21.9931 2.61135 21.9554 2.64895 21.9367 2.70534C22.033 2.89151 22.0989 3.07948 22.134 3.26931C22.0817 3.3728 22.016 3.39158 21.9367 3.32571C21.8793 3.45751 21.7853 3.55152 21.6547 3.60769C21.784 4.07754 21.8592 4.55691 21.8803 5.04582C21.8796 7.31478 21.8796 9.57066 21.8803 11.8134C21.8708 12.0296 21.8615 12.2458 21.8521 12.462C21.8364 12.5137 21.8082 12.5512 21.7675 12.5748C21.7769 9.83008 21.7675 7.08547 21.7393 4.34086C21.7205 4.22806 21.7017 4.11527 21.6829 4.00247C21.6548 4.13275 21.6455 4.26432 21.6547 4.39725C21.5573 3.31906 21.0873 2.43549 20.2448 1.7466C20.2181 1.66728 20.1617 1.62968 20.0756 1.6338C19.5114 1.27745 18.8911 1.08006 18.2145 1.04163C16.6643 1.01668 15.1228 1.00729 13.5899 1.01344C13.6369 0.943058 13.7121 0.905458 13.8155 0.900642C14.4858 0.887467 15.1626 0.887467 15.8458 0.900642C15.9915 0.873503 16.1325 0.835904 16.2688 0.787848C16.3104 0.848429 16.3668 0.886029 16.438 0.900642C16.9341 0.837201 17.4323 0.827805 17.9325 0.872443C17.9607 0.900642 17.9889 0.92884 18.0171 0.957039C18.0871 0.879656 18.1717 0.823259 18.2709 0.787848C18.5438 0.938382 18.8352 1.03237 19.145 1.06983C19.1873 1.03454 19.2343 1.00634 19.286 0.985237C19.2672 0.96644 19.2484 0.947637 19.2296 0.92884C19.3057 0.885279 19.3527 0.819481 19.3706 0.731451C19.5054 0.744524 19.6464 0.772722 19.7936 0.816046C19.632 0.687106 19.444 0.640105 19.2296 0.675054C19.2296 0.618657 19.2296 0.56226 19.2296 0.505863C19.3048 0.505863 19.38 0.505863 19.4552 0.505863C19.4648 0.431301 19.446 0.365508 19.3988 0.308474C19.2875 0.280529 19.1747 0.271133 19.0604 0.280275C19.0604 0.336672 19.0604 0.393069 19.0604 0.449466C18.8502 0.432846 18.6434 0.395246 18.44 0.336672C18.5681 0.351335 18.6997 0.313741 18.8348 0.223878C18.4777 0.205081 18.1204 0.186278 17.7633 0.167481C13.1947 0.170064 8.62653 0.170064 4.05883 0.167481C3.89725 0.245693 3.72806 0.30209 3.55126 0.336672C3.54748 0.254406 3.56626 0.179206 3.60765 0.111084C3.77431 0.0739358 3.9435 0.055133 4.11523 0.0546875Z" fill="#129412"/>
<path fill-rule="evenodd" clip-rule="evenodd" d="M3.27175 0.226562C3.27175 0.282959 3.27175 0.339356 3.27175 0.395753C3.13487 0.39705 3.0033 0.425249 2.87697 0.480349C2.48389 0.731298 2.50269 0.778299 2.93337 0.621341C2.98785 0.72827 3.00663 0.841064 2.98977 0.959723C3.26995 0.980358 3.25111 1.00856 2.93337 1.04432C2.88619 1.10135 2.86738 1.16715 2.87697 1.24171C3.27451 1.09986 3.68807 0.996471 4.1177 0.931524C4.46573 0.906202 4.81353 0.878004 5.16105 0.846929C5.40829 0.856601 5.6433 0.894201 5.86601 0.959723C5.86601 0.97852 5.86601 0.997323 5.86601 1.01612C5.40513 1.01495 4.93518 1.02434 4.45609 1.04432C3.77949 1.08274 3.15913 1.28013 2.59499 1.63649C2.49627 1.45465 2.55267 1.35125 2.76418 1.3263C2.67751 1.26372 2.63991 1.17913 2.65138 1.07252C2.58512 1.06017 2.52872 1.07896 2.48219 1.12891C2.45895 1.26352 2.40255 1.37631 2.313 1.4673C2.21942 1.32072 2.12543 1.17033 2.03102 1.01612C1.97766 1.04357 1.92126 1.06237 1.86183 1.07252C1.71132 1.17631 1.57033 1.2891 1.43885 1.4109C1.41102 1.50306 1.40162 1.59705 1.41065 1.69288C1.32731 1.67811 1.25211 1.6969 1.18506 1.74928C0.993178 1.94116 0.80519 2.12915 0.621094 2.31325C1.22423 1.25867 2.10778 0.5631 3.27175 0.226562Z" fill="#129412"/>
<path opacity="0.681" fill-rule="evenodd" clip-rule="evenodd" d="M5.86719 1.01262C5.86719 0.993819 5.86719 0.975016 5.86719 0.956219C7.90712 0.937507 9.93741 0.956309 11.9581 1.01262C9.88857 1.06589 7.85828 1.06589 5.86719 1.01262Z" fill="#129412"/>
<path fill-rule="evenodd" clip-rule="evenodd" d="M2.59255 1.63599C1.5276 2.41236 1.00123 3.46511 1.01344 4.79422C0.975836 4.79422 0.957039 4.813 0.957039 4.85062C0.882724 9.39136 0.882724 13.9407 0.957039 18.4987C0.968335 18.7947 1.03413 19.0767 1.15443 19.3446C1.21718 19.39 1.28298 19.4276 1.35182 19.4574C1.97755 20.6478 2.95507 21.3246 4.28446 21.4877C4.18864 21.4787 4.09463 21.4881 4.00247 21.5159C4.04009 21.5347 4.07765 21.5535 4.11527 21.5723C8.90895 21.6005 13.7027 21.6099 18.4965 21.6005C18.7874 21.6738 19.0882 21.7208 19.3988 21.7415C19.2255 21.8296 19.0563 21.9237 18.8913 22.0235C18.9382 22.0705 18.9853 22.1175 19.0323 22.1645C19.0728 22.1108 19.1197 22.1015 19.1733 22.1363C19.126 22.1933 19.1073 22.2591 19.1169 22.3337C13.9453 22.3993 8.77557 22.4087 3.6077 22.3619C3.65935 22.3775 3.69692 22.4057 3.72049 22.4465C1.48844 21.911 0.266503 20.5011 0.0546875 18.2167C0.102569 13.4121 0.130767 8.59949 0.139283 3.77908C0.12744 3.86694 0.0992411 3.94212 0.0546875 4.00466C0.121416 3.3909 0.309404 2.82691 0.618657 2.31275C0.802754 2.12866 0.990741 1.94067 1.18263 1.74879C1.24967 1.69641 1.32487 1.67761 1.40821 1.69239C1.39918 1.59656 1.40858 1.50256 1.43641 1.4104C1.56789 1.28861 1.70888 1.17581 1.85939 1.07202C1.91883 1.06188 1.97522 1.04307 2.02858 1.01562C2.12299 1.16984 2.21699 1.32022 2.31057 1.4668C2.40012 1.37582 2.45652 1.26302 2.47976 1.12842C2.52628 1.07847 2.58268 1.05967 2.64895 1.07202C2.63747 1.17863 2.67507 1.26323 2.76174 1.32581C2.55023 1.35076 2.49383 1.45415 2.59255 1.63599Z" fill="#129412"/>
<path opacity="0.349" fill-rule="evenodd" clip-rule="evenodd" d="M20.0742 1.63312C20.1603 1.629 20.2167 1.6666 20.2434 1.74591C20.1573 1.75003 20.1009 1.71243 20.0742 1.63312Z" fill="#129412"/>
<path fill-rule="evenodd" clip-rule="evenodd" d="M10.2097 2.3125C11.5733 2.46635 12.1655 3.21829 11.9862 4.56838C11.7056 5.37621 11.1416 5.78977 10.2943 5.80911C9.21624 5.71803 8.64291 5.13528 8.57422 4.06081C8.63558 3.02197 9.18077 2.43921 10.2097 2.3125Z" fill="#129412"/>
<path fill-rule="evenodd" clip-rule="evenodd" d="M22.5061 3.38331C22.5787 3.56366 22.6163 3.75164 22.6189 3.94728C22.5744 3.88473 22.5462 3.80956 22.5343 3.72169C22.5804 8.74158 22.571 13.7609 22.5061 18.7797C22.4688 18.8484 22.4312 18.9235 22.3933 19.0053C22.2938 19.0163 22.2092 19.0163 22.1395 19.0053C22.0506 18.8175 22.013 18.6295 22.0267 18.4413C21.9586 18.6501 21.8834 18.8569 21.8011 19.0617C21.7546 18.8759 21.7264 18.688 21.7166 18.4977C21.771 16.5249 21.7899 14.551 21.773 12.576C21.8137 12.5524 21.8419 12.5149 21.8575 12.4632C21.867 12.247 21.8763 12.0308 21.8857 11.8147C21.8851 9.57186 21.8851 7.31598 21.8857 5.04702C21.8647 4.55811 21.7895 4.07874 21.6602 3.60889C21.7908 3.55272 21.8848 3.45871 21.9421 3.32691C22.0214 3.39278 22.0872 3.374 22.1395 3.27051C22.1043 3.08068 22.0385 2.89271 21.9421 2.70654C21.9609 2.65015 21.9985 2.61255 22.0549 2.59375C22.2161 2.8329 22.3101 3.09608 22.3369 3.38331C22.3933 3.38331 22.4497 3.38331 22.5061 3.38331Z" fill="#129412"/>
<path opacity="0.987" fill-rule="evenodd" clip-rule="evenodd" d="M0.958079 4.84766C0.93935 7.52668 0.958147 10.1961 1.01448 12.856C1.01448 14.6043 1.01448 16.3526 1.01448 18.1009C1.03149 18.2453 1.01268 18.3769 0.958079 18.4957C0.883765 13.9377 0.883765 9.3884 0.958079 4.84766Z" fill="#129412"/>
<path opacity="0.949" fill-rule="evenodd" clip-rule="evenodd" d="M21.7671 12.5762C21.784 14.5513 21.7652 16.5252 21.7107 18.4979C21.6565 18.3984 21.6377 18.2856 21.6543 18.1595C21.6543 13.5726 21.6543 8.98562 21.6543 4.39868C21.6451 4.26576 21.6545 4.13418 21.6825 4.00391C21.7013 4.1167 21.7201 4.22949 21.7389 4.34229C21.7671 7.0869 21.7765 9.83152 21.7671 12.5762Z" fill="#129412"/>
<path fill-rule="evenodd" clip-rule="evenodd" d="M14.0961 10.8819C13.0246 10.8819 11.953 10.8819 10.8815 10.8819C10.8815 11.0134 10.8815 11.1451 10.8815 11.2767C10.8815 11.4082 10.8815 11.5399 10.8815 11.6714C10.909 11.7263 10.9372 11.7827 10.9661 11.8406C12.0615 11.7846 13.1613 11.7658 14.2653 11.7842C14.5918 11.8018 14.8644 11.9333 15.0831 12.179C15.4437 12.7931 15.7915 13.4135 16.1264 14.0401C16.1495 14.4435 16.3093 14.7819 16.6058 15.0552C16.6246 15.1304 16.6434 15.2057 16.6622 15.2808C16.7056 15.2189 16.7526 15.2189 16.8032 15.2808C17.0142 15.6461 17.2397 16.0033 17.4799 16.3524C17.7875 16.2228 18.0882 16.0818 18.3823 15.9294C18.5327 15.8918 18.6831 15.8918 18.8335 15.9294C18.8851 15.9451 18.9227 15.9733 18.9463 16.014C19.0846 16.2162 19.1598 16.4418 19.1718 16.6908C19.135 16.906 19.0222 17.0657 18.8335 17.1701C18.3127 17.4399 17.7863 17.6937 17.2543 17.9315C17.069 17.9714 16.8811 17.9901 16.6904 17.9879C16.4343 17.8919 16.2369 17.7227 16.0982 17.4803C15.5455 16.5059 15.0097 15.5284 14.4909 14.5477C14.4604 14.243 14.3852 13.9704 14.2653 13.7299C12.6483 13.7205 11.0316 13.6923 9.41517 13.6453C9.40339 13.6123 9.38455 13.5841 9.35878 13.5607C9.16815 13.5416 8.98018 13.5134 8.79481 13.4761C8.42157 13.2423 8.18656 12.9039 8.08984 12.461C8.16649 10.6725 8.29806 8.88655 8.48462 7.10328C8.71506 6.50299 9.15687 6.18339 9.80995 6.14453C10.663 6.22687 11.1142 6.69683 11.1635 7.55445C11.1098 8.21419 11.0534 8.87217 10.9943 9.52835C12.0474 9.56907 13.1001 9.6161 14.1525 9.66934C14.4112 9.79167 14.524 9.99847 14.4909 10.2897C14.5323 10.6128 14.4007 10.8102 14.0961 10.8819Z" fill="#129412"/>
<path opacity="0.939" fill-rule="evenodd" clip-rule="evenodd" d="M7.72658 7.38778C7.76961 7.43109 7.826 7.45929 7.89577 7.47238C7.23017 7.46764 6.57219 7.43944 5.92188 7.38778C6.51793 7.31345 7.11946 7.31345 7.72658 7.38778Z" fill="#129412"/>
<path fill-rule="evenodd" clip-rule="evenodd" d="M5.92018 7.38444C6.57049 7.4361 7.22848 7.4643 7.89407 7.46903C7.82431 7.45595 7.76791 7.42775 7.72488 7.38444C7.82595 7.37688 7.9199 7.39566 8.00687 7.44084C8.05892 7.81356 8.0777 8.18956 8.06326 8.56877C7.88042 8.78122 7.65484 8.83762 7.3865 8.73797C7.23727 8.70052 7.0775 8.68168 6.90713 8.68157C6.72372 8.68264 6.56395 8.72026 6.42775 8.79436C6.21508 9.19551 6.02711 9.60913 5.86378 10.0351C5.7154 9.95789 5.67779 9.9955 5.75099 10.1479C5.73148 10.2153 5.70328 10.2153 5.66639 10.1479C5.65557 10.265 5.62737 10.3778 5.5818 10.4863C5.53127 10.4295 5.49371 10.4295 5.469 10.4863C5.51463 10.5749 5.53347 10.6689 5.5254 10.7683C5.48649 10.9305 5.39247 11.0433 5.24342 11.1066C5.1313 11.1251 5.01851 11.1439 4.90504 11.163C4.76026 11.0974 4.60985 11.0598 4.45386 11.0502C4.30796 10.9167 4.214 10.7475 4.17188 10.5427C4.39194 9.83945 4.67392 9.16269 5.01783 8.51238C5.10942 8.39439 5.20343 8.27218 5.29981 8.1458C5.2574 8.10795 5.23857 8.06098 5.24342 8.0048C5.32688 7.64341 5.55247 7.43661 5.92018 7.38444Z" fill="#129412"/>
<path opacity="0.592" fill-rule="evenodd" clip-rule="evenodd" d="M8.00781 7.44531C8.04261 7.45157 8.07081 7.47035 8.09241 7.50171C8.13865 7.86908 8.12924 8.22624 8.06421 8.57325C8.07865 8.19404 8.05987 7.81804 8.00781 7.44531Z" fill="#129412"/>
<path opacity="0.965" fill-rule="evenodd" clip-rule="evenodd" d="M5.24512 8.00781C5.24027 8.06398 5.25911 8.11096 5.30152 8.1488C5.20513 8.27519 5.11112 8.3974 5.01953 8.51538C5.05241 8.32098 5.12759 8.15179 5.24512 8.00781Z" fill="#129412"/>
<path opacity="0.322" fill-rule="evenodd" clip-rule="evenodd" d="M7.38844 8.73999C7.06365 8.72386 6.7441 8.7427 6.42969 8.79639C6.56589 8.72228 6.72566 8.68467 6.90906 8.68359C7.07944 8.68371 7.23921 8.70254 7.38844 8.73999Z" fill="#129412"/>
<path opacity="0.421" fill-rule="evenodd" clip-rule="evenodd" d="M1.01263 4.79297C1.0155 7.47842 1.0155 10.1666 1.01263 12.8577C0.956297 10.1978 0.9375 7.52839 0.95623 4.84937C0.95623 4.81175 0.975027 4.79297 1.01263 4.79297Z" fill="#129412"/>
<path opacity="0.992" fill-rule="evenodd" clip-rule="evenodd" d="M5.86743 10.0389C5.77517 10.2989 5.66238 10.5434 5.52905 10.7721C5.53712 10.6727 5.51828 10.5787 5.47266 10.4901C5.49736 10.4334 5.53492 10.4334 5.58545 10.4901C5.63102 10.3817 5.65922 10.2689 5.67005 10.1517C5.70693 10.2192 5.73513 10.2192 5.75464 10.1517C5.68144 9.99935 5.71905 9.96173 5.86743 10.0389Z" fill="#129412"/>
<path fill-rule="evenodd" clip-rule="evenodd" d="M7.83838 11.3909C7.84774 11.052 7.83833 10.7136 7.81018 10.3757C7.7883 10.3234 7.75068 10.2858 7.69739 10.2629C7.63321 10.2905 7.56739 10.3093 7.5 10.3193C7.60089 10.2343 7.71369 10.1592 7.83838 10.0938C7.89478 10.1125 7.9324 10.1501 7.95118 10.2065C7.91542 10.6087 7.8778 11.0034 7.83838 11.3909Z" fill="#129412"/>
<path fill-rule="evenodd" clip-rule="evenodd" d="M7.83601 11.3897C7.66986 11.5483 7.48189 11.6799 7.27204 11.7844C7.13166 11.773 7.00003 11.8012 6.87726 11.869C6.90303 11.8924 6.92187 11.9206 6.93365 11.9536C6.83361 11.9924 6.73959 12.0394 6.65167 12.0946C6.68111 12.1263 6.69989 12.1639 6.70807 12.2074C6.50442 12.3253 6.4104 12.5039 6.42608 12.7432C5.40276 14.759 5.7223 16.5355 7.38483 18.0727C9.39702 19.3933 11.2487 19.1959 12.9399 17.4805C13.2899 16.9873 13.5624 16.4609 13.7577 15.9014C13.7984 15.8778 13.8266 15.8403 13.8423 15.7886C13.8933 15.4708 13.9215 15.1512 13.9269 14.8299C14.0209 14.7547 14.1148 14.7547 14.2089 14.8299C14.4328 15.1774 14.6489 15.5346 14.8574 15.9014C14.5823 17.4087 13.7833 18.5555 12.4606 19.3416C12.3647 19.3326 12.2707 19.342 12.1786 19.3698C12.1974 19.3886 12.2162 19.4074 12.235 19.4262C12.1255 19.4434 12.0315 19.4903 11.953 19.5672C11.9154 19.5484 11.8778 19.5296 11.8402 19.5108C11.5749 19.6083 11.3117 19.7117 11.0506 19.821C11.082 19.8426 11.1008 19.8708 11.107 19.9056C8.34324 20.3801 6.34115 19.365 5.10075 16.8602C4.40651 14.8925 4.68849 13.0878 5.94671 11.4461C6.38006 10.9458 6.897 10.5698 7.49762 10.3181C7.56502 10.3081 7.63083 10.2893 7.69501 10.2617C7.74831 10.2846 7.78592 10.3222 7.80781 10.3745C7.83595 10.7124 7.84537 11.0508 7.83601 11.3897Z" fill="#129412"/>
<path opacity="0.882" fill-rule="evenodd" clip-rule="evenodd" d="M22.6167 3.94824C22.6918 8.85455 22.6918 13.7611 22.6167 18.6678C22.5791 18.7055 22.5415 18.743 22.5039 18.7806C22.5688 13.7619 22.5782 8.74255 22.5321 3.72266C22.5439 3.81052 22.5721 3.8857 22.6167 3.94824Z" fill="#129412"/>
<path opacity="0.44" fill-rule="evenodd" clip-rule="evenodd" d="M14.1013 10.8828C13.0584 10.939 12.0057 10.9578 10.9431 10.9392C10.9598 11.0653 10.9409 11.1781 10.8867 11.2776C10.8867 11.146 10.8867 11.0144 10.8867 10.8828C11.9583 10.8828 13.0298 10.8828 14.1013 10.8828Z" fill="#129412"/>
<path opacity="0.941" fill-rule="evenodd" clip-rule="evenodd" d="M4.45703 11.0508C4.61303 11.0604 4.76344 11.0979 4.90821 11.1636C5.02168 11.1444 5.13447 11.1256 5.24659 11.1072C4.97318 11.2658 4.70997 11.247 4.45703 11.0508Z" fill="#129412"/>
<path opacity="0.872" fill-rule="evenodd" clip-rule="evenodd" d="M0.0558795 18.215C-0.0186265 13.4861 -0.0186265 8.74873 0.0558795 4.00293C0.100433 3.94039 0.128632 3.86521 0.140475 3.77734C0.131959 8.59776 0.10376 13.4103 0.0558795 18.215Z" fill="#129412"/>
<path opacity="0.176" fill-rule="evenodd" clip-rule="evenodd" d="M10.8867 11.6719C12.0219 11.7082 13.1498 11.7458 14.2705 11.7847C13.1665 11.7663 12.0668 11.7851 10.9713 11.8411C10.9424 11.7831 10.9142 11.7267 10.8867 11.6719Z" fill="#129412"/>
<path fill-rule="evenodd" clip-rule="evenodd" d="M7.27342 11.7876C6.97045 12.0905 6.68847 12.4101 6.42746 12.7464C6.41178 12.5071 6.5058 12.3285 6.70945 12.2106C6.70127 12.1671 6.68249 12.1294 6.65305 12.0978C6.74097 12.0425 6.83499 11.9956 6.93503 11.9568C6.92325 11.9238 6.90441 11.8956 6.87864 11.8722C7.00141 11.8044 7.13304 11.7762 7.27342 11.7876Z" fill="#129412"/>
<path fill-rule="evenodd" clip-rule="evenodd" d="M8.79688 13.4766C8.98225 13.5138 9.17022 13.542 9.36084 13.5612C9.38662 13.5845 9.40545 13.6127 9.41724 13.6458C11.0336 13.6927 12.6504 13.7209 14.2674 13.7303C14.3873 13.9708 14.4625 14.2434 14.493 14.5481C14.345 14.2998 14.1758 14.0648 13.9854 13.8431C12.4439 13.8244 10.9023 13.8055 9.36084 13.7867C9.14394 13.7255 8.95591 13.6221 8.79688 13.4766Z" fill="#129412"/>
<path opacity="0.996" fill-rule="evenodd" clip-rule="evenodd" d="M16.1289 14.043C16.3748 14.4408 16.6004 14.8545 16.8057 15.2837C16.7551 15.2218 16.7081 15.2218 16.6647 15.2837C16.6459 15.2085 16.6271 15.1333 16.6083 15.0581C16.3118 14.7848 16.152 14.4464 16.1289 14.043Z" fill="#129412"/>
<path opacity="0.09" fill-rule="evenodd" clip-rule="evenodd" d="M14.2117 14.8315C14.1177 14.7564 14.0237 14.7564 13.9297 14.8315C13.9461 14.7667 13.9931 14.7291 14.0707 14.7188C14.1483 14.7291 14.1953 14.7667 14.2117 14.8315Z" fill="#129412"/>
<path opacity="0.773" fill-rule="evenodd" clip-rule="evenodd" d="M13.927 14.832C13.9216 15.1534 13.8934 15.473 13.8424 15.7908C13.8267 15.8424 13.7985 15.88 13.7578 15.9036C13.7994 15.5365 13.8558 15.1794 13.927 14.832Z" fill="#129412"/>
<path fill-rule="evenodd" clip-rule="evenodd" d="M18.9492 16.0156C19.0839 16.0562 19.1685 16.1501 19.203 16.2976C19.2479 16.4408 19.2385 16.5724 19.1748 16.6924C19.1627 16.4434 19.0876 16.2178 18.9492 16.0156Z" fill="#129412"/>
<path opacity="0.039" fill-rule="evenodd" clip-rule="evenodd" d="M17.2554 17.9336C17.1642 18.0166 17.0514 18.0542 16.917 18.0464C16.8299 18.0458 16.7547 18.027 16.6914 17.99C16.8821 17.9922 17.0701 17.9735 17.2554 17.9336Z" fill="#129412"/>
<path fill-rule="evenodd" clip-rule="evenodd" d="M1.01733 18.1016C1.06956 18.5607 1.18235 19.0119 1.35572 19.4551C1.28688 19.4253 1.22108 19.3877 1.15833 19.3423C1.03803 19.0744 0.972234 18.7924 0.960938 18.4963C1.01554 18.3775 1.03434 18.2459 1.01733 18.1016Z" fill="#129412"/>
<path fill-rule="evenodd" clip-rule="evenodd" d="M12.4607 19.3432C12.0676 19.6495 11.6164 19.8374 11.1072 19.9071C11.1009 19.8723 11.0821 19.8441 11.0508 19.8225C11.3118 19.7132 11.575 19.6099 11.8403 19.5124C11.878 19.5311 11.9155 19.55 11.9531 19.5688C12.0317 19.4919 12.1257 19.4449 12.2351 19.4278C12.2163 19.409 12.1975 19.3901 12.1787 19.3714C12.2709 19.3435 12.3649 19.3341 12.4607 19.3432Z" fill="#129412"/>
<path fill-rule="evenodd" clip-rule="evenodd" d="M21.6525 18.1602C21.6359 18.2862 21.6547 18.399 21.7089 18.4985C21.7187 18.6888 21.7469 18.8768 21.7935 19.0625C21.8757 18.8578 21.9509 18.651 22.0191 18.4421C22.0053 18.6303 22.0429 18.8184 22.1319 19.0061C22.2015 19.0171 22.2861 19.0171 22.3857 19.0061C22.4235 18.9244 22.4612 18.8492 22.4984 18.7805C22.5361 18.7429 22.5736 18.7053 22.6112 18.6677C22.4629 19.6043 22.0681 20.4127 21.4269 21.0928C21.2214 21.2306 20.9959 21.334 20.7501 21.403C20.7005 21.4795 20.6817 21.564 20.6937 21.6568C20.5623 21.6567 20.4495 21.7036 20.3554 21.7978C20.3867 21.8194 20.4055 21.8476 20.4118 21.8824C19.7218 22.2938 18.9699 22.5005 18.1559 22.5027C13.3992 22.5196 8.64313 22.5009 3.88745 22.4463C3.83106 22.4463 3.77466 22.4463 3.71826 22.4463C3.69469 22.4056 3.65713 22.3774 3.60547 22.3617C8.77335 22.4086 13.9431 22.3992 19.1146 22.3335C19.105 22.259 19.1238 22.1932 19.171 22.1361C19.1175 22.1013 19.0705 22.1107 19.03 22.1643C18.9831 22.1174 18.936 22.0703 18.889 22.0233C19.0541 21.9235 19.2232 21.8295 19.3966 21.7414C19.086 21.7207 18.7852 21.6737 18.4943 21.6004C18.5568 21.5558 18.632 21.5276 18.7198 21.5158C18.6277 21.4879 18.5337 21.4786 18.4379 21.4876C19.0193 21.4128 19.5645 21.2248 20.0734 20.9236C20.1595 20.9277 20.2159 20.8901 20.2426 20.8108C20.3748 20.6598 20.5252 20.5283 20.6937 20.416C20.8114 20.3548 20.8866 20.2609 20.9193 20.134C21.3541 19.5439 21.5985 18.8859 21.6525 18.1602Z" fill="#129412"/>
<path opacity="0.561" fill-rule="evenodd" clip-rule="evenodd" d="M20.9248 20.1328C20.8921 20.2596 20.8169 20.3536 20.6992 20.4148C20.7319 20.288 20.8071 20.194 20.9248 20.1328Z" fill="#129412"/>
<path opacity="0.329" fill-rule="evenodd" clip-rule="evenodd" d="M20.2434 20.8089C20.2167 20.8882 20.1603 20.9258 20.0742 20.9217C20.1009 20.8424 20.1573 20.8048 20.2434 20.8089Z" fill="#129412"/>
<path fill-rule="evenodd" clip-rule="evenodd" d="M21.4309 21.0898C21.3486 21.2006 21.2546 21.3039 21.1489 21.4C20.9112 21.5724 20.6668 21.7321 20.4158 21.8794C20.4095 21.8446 20.3907 21.8164 20.3594 21.7948C20.4535 21.7007 20.5663 21.6537 20.6978 21.6538C20.6857 21.5611 20.7045 21.4765 20.7542 21.4C20.9999 21.331 21.2255 21.2276 21.4309 21.0898Z" fill="#129412"/>
<path opacity="0.829" fill-rule="evenodd" clip-rule="evenodd" d="M4.28589 21.4877C9.00445 21.4877 13.723 21.4877 18.4415 21.4877C18.5373 21.4787 18.6314 21.488 18.7235 21.5159C18.6356 21.5277 18.5605 21.5559 18.4979 21.6005C13.7041 21.6099 8.91038 21.6005 4.1167 21.5723C4.07908 21.5535 4.04152 21.5347 4.00391 21.5159C4.09606 21.488 4.19007 21.4787 4.28589 21.4877Z" fill="#129412"/>
<path opacity="0.055" fill-rule="evenodd" clip-rule="evenodd" d="M3.89062 22.4453C8.6463 22.4998 13.4024 22.5186 18.1591 22.5017C13.6192 22.5675 9.06978 22.5768 4.51099 22.5299C4.29352 22.5199 4.08672 22.4917 3.89062 22.4453Z" fill="#129412"/>
</svg>
