<svg width="24" height="24" viewBox="0 0 24 24" fill="none" xmlns="http://www.w3.org/2000/svg">
<path d="M20.3659 0.867188C20.2581 0.970312 20.2487 1.0125 20.2487 1.44844C20.2487 1.89844 20.244 1.92187 20.1456 1.94531C20.0847 1.95937 19.6675 2.02969 19.2175 2.10469L18.3972 2.24062L15.6034 1.68281C14.0659 1.37812 12.7722 1.125 12.7206 1.125C12.6737 1.12969 10.6487 2.33437 8.22528 3.81094C3.52371 6.675 3.66903 6.57656 3.77684 6.87656C3.80965 6.97969 3.92684 7.05937 4.34871 7.27031C5.04715 7.62187 5.38465 7.70625 6.03621 7.67344C6.49559 7.65469 6.72059 7.60312 8.71746 7.06875C9.91746 6.74531 10.944 6.46875 11.0003 6.45C11.0753 6.42656 11.1081 6.45 11.1597 6.57187C11.244 6.78281 11.5581 7.11562 11.769 7.22344C11.8675 7.27031 13.1331 7.60781 14.5862 7.97344L17.2253 8.63437L18.655 8.32031C19.4425 8.15156 20.1222 7.99687 20.169 7.9875C20.2393 7.96406 20.2487 8.00156 20.2487 8.36719C20.2487 8.73281 20.2581 8.77969 20.3659 8.88281L20.4784 9H21.7487H23.019L23.1315 8.88281L23.2487 8.77031V4.875V0.979687L23.1315 0.867188L23.019 0.75H21.7487H20.4784L20.3659 0.867188ZM22.4987 4.875V8.25H21.7487H20.9987V4.875V1.5H21.7487H22.4987V4.875ZM15.6737 2.46562L18.3831 3.00469L19.2409 2.86406C19.7143 2.78437 20.1362 2.71875 20.1737 2.71875C20.2393 2.71875 20.2487 2.95312 20.2487 4.95937V7.2L18.7487 7.53281L17.2487 7.86562L14.7362 7.23281C13.3534 6.89062 12.1628 6.57656 12.0878 6.53906C11.7222 6.34687 11.7222 5.7 12.0925 5.50781C12.1675 5.47031 12.2987 5.4375 12.3831 5.4375C12.4722 5.4375 13.1753 5.56406 13.944 5.71875C14.7128 5.87344 15.3831 6 15.43 6C15.5706 6 15.7487 5.78906 15.7487 5.625C15.7487 5.325 15.6784 5.29687 14.0237 4.97344C12.3315 4.64062 12.1206 4.62656 11.7456 4.84687C11.5018 4.9875 11.2253 5.29687 11.1503 5.50781L11.094 5.65312L8.74559 6.28125C6.07371 6.99844 5.85809 7.03125 5.24403 6.84375C4.96746 6.75937 4.92059 6.73125 4.97215 6.68437C5.00965 6.65156 5.79715 6.16406 6.72528 5.60156C8.31434 4.64062 10.3112 3.42656 12.0222 2.38125C12.4347 2.12812 12.8143 1.92187 12.8659 1.92187C12.9175 1.92187 14.1784 2.16562 15.6737 2.46562Z" fill="#129412"/>
<path d="M11.2988 8.31457C10.4222 8.50207 9.70503 8.92394 9.14253 9.58488C8.07847 10.8411 7.96128 12.6599 8.86128 14.0286C10.1644 16.0302 12.9628 16.3255 14.6457 14.6427C16.3285 12.9599 16.0332 10.1614 14.0316 8.85832C13.68 8.62394 13.3613 8.48801 12.8925 8.35676C12.5269 8.25832 11.6738 8.23488 11.2988 8.31457ZM12.63 9.06926C13.7597 9.30832 14.6925 10.2411 14.9316 11.3708C15.2128 12.6974 14.5613 14.0568 13.3613 14.6614C12.8457 14.9193 12.391 15.0177 11.8378 14.9849C11.0597 14.938 10.4457 14.6568 9.86909 14.0849C8.70659 12.9271 8.72065 11.0661 9.89722 9.88488C10.6144 9.15832 11.6316 8.85832 12.63 9.06926Z" fill="#129412"/>
<path d="M11.7438 9.86719C11.6782 9.92812 11.6266 10.0219 11.6266 10.0734C11.6266 10.1391 11.5657 10.2 11.4532 10.2609C10.9844 10.5 10.7547 11.1 10.9469 11.5641C11.0875 11.8969 11.2328 12.0281 11.7672 12.3C12.2688 12.5578 12.3766 12.6516 12.3766 12.8344C12.3766 12.975 12.1797 13.125 11.9969 13.125C11.786 13.125 11.6266 12.9656 11.6266 12.7547C11.6266 12.5578 11.4485 12.375 11.2516 12.375C10.9047 12.375 10.7735 12.7781 10.975 13.2188C11.0922 13.4812 11.2235 13.6219 11.4532 13.7391C11.5657 13.8 11.6266 13.8609 11.6266 13.9266C11.6266 14.0719 11.8328 14.25 12.0016 14.25C12.1703 14.25 12.3766 14.0719 12.3766 13.9266C12.3766 13.8609 12.4375 13.8 12.5547 13.7391C13.0141 13.5047 13.2344 12.9469 13.061 12.4547C12.9391 12.1219 12.7797 11.9766 12.236 11.7C11.7344 11.4422 11.6266 11.3484 11.6266 11.1656C11.6266 11.025 11.8235 10.875 12.0063 10.875C12.2172 10.875 12.3766 11.0344 12.3766 11.2453C12.3766 11.4422 12.5547 11.625 12.7516 11.625C13.0985 11.625 13.2297 11.2219 13.0282 10.7812C12.911 10.5187 12.7797 10.3781 12.5547 10.2609C12.4375 10.2 12.3766 10.1391 12.3766 10.0734C12.3766 9.92812 12.1703 9.75 12.0016 9.75C11.9125 9.75 11.8141 9.79219 11.7438 9.86719Z" fill="#129412"/>
<path d="M0.867188 15.1172L0.75 15.2297V19.125V23.0203L0.867188 23.1328L0.979688 23.25H2.25H3.52031L3.63281 23.1328C3.74063 23.0297 3.75 22.9875 3.75 22.5516C3.75 22.1016 3.75469 22.0781 3.85781 22.0547C3.91406 22.0406 4.33125 21.9703 4.78125 21.8953L5.60156 21.7547L8.46563 22.3266L11.3297 22.8937L14.8641 20.7422C16.8094 19.5562 18.7969 18.3469 19.2891 18.0469C20.2406 17.4656 20.3156 17.3906 20.2219 17.1234C20.1891 17.0203 20.0766 16.9359 19.7109 16.7484C19.0312 16.3969 18.6281 16.2984 17.9813 16.3266C17.4984 16.3453 17.3063 16.3875 15.2813 16.9312C14.0813 17.2547 13.0547 17.5312 12.9984 17.55C12.9234 17.5734 12.8906 17.55 12.8391 17.4281C12.7547 17.2172 12.4406 16.8844 12.2297 16.7766C12.1313 16.7297 10.8656 16.3922 9.4125 16.0266L6.77344 15.3656L5.34375 15.6797C4.55625 15.8484 3.87656 16.0031 3.83438 16.0125C3.75938 16.0359 3.75 15.9984 3.75 15.6328C3.75 15.2672 3.74063 15.2203 3.63281 15.1172L3.52031 15H2.25H0.979688L0.867188 15.1172ZM3 19.125V22.5H2.25H1.5V19.125V15.75H2.25H3V19.125ZM9.32344 16.7812C10.6734 17.1187 11.8359 17.4234 11.9109 17.4609C12.2766 17.6531 12.2766 18.3 11.9062 18.4922C11.8313 18.5297 11.7 18.5625 11.6156 18.5625C11.5312 18.5625 10.8141 18.4312 10.0219 18.2719C8.82188 18.0328 8.55938 17.9953 8.46094 18.0375C8.23125 18.1453 8.19844 18.5437 8.40469 18.675C8.46094 18.7078 9.17344 18.8672 9.98438 19.0312C11.5922 19.35 11.8547 19.3687 12.2156 19.1812C12.45 19.0641 12.7688 18.7219 12.8438 18.5109L12.9 18.3469L15.2531 17.7188C17.925 17.0016 18.1406 16.9687 18.7547 17.1562C19.0312 17.2406 19.0781 17.2687 19.0266 17.3156C18.9234 17.4094 11.2875 22.0406 11.1984 22.0641C11.1562 22.0781 9.88594 21.8391 8.38594 21.5391L5.64844 20.9906L4.75781 21.1359C4.27031 21.2156 3.83906 21.2812 3.81094 21.2812C3.76406 21.2812 3.75 20.8031 3.75 19.0406V16.8L5.24063 16.4672C6.05625 16.2844 6.75938 16.1437 6.79688 16.1531C6.83438 16.1625 7.97344 16.4437 9.32344 16.7812Z" fill="#129412"/>
</svg>
