<svg width="24" height="24" viewBox="0 0 24 24" fill="none" xmlns="http://www.w3.org/2000/svg">
<g clip-path="url(#clip0_454_7366)">
<rect x="0.5" y="0.5" width="23" height="23" rx="4.5" stroke="#129412"/>
<path fill-rule="evenodd" clip-rule="evenodd" d="M6.80986 4.00139C7.59011 3.97604 8.17789 4.29666 8.57328 4.96326C8.89425 5.88513 8.6562 6.61868 7.85917 7.16388C6.99445 7.55614 6.2609 7.3861 5.65854 6.6538C5.19568 5.80456 5.30743 5.04187 5.99374 4.36574C6.24134 4.18461 6.51337 4.06319 6.80986 4.00139Z" fill="#129412"/>
<path fill-rule="evenodd" clip-rule="evenodd" d="M12.465 4.03169C13.4326 3.97838 14.0496 4.41559 14.3159 5.34332C14.4275 6.21331 14.0923 6.83998 13.3103 7.22332C12.307 7.54639 11.5832 7.23061 11.1388 6.27603C10.8698 5.10317 11.3119 4.35505 12.465 4.03169Z" fill="#129412"/>
<path fill-rule="evenodd" clip-rule="evenodd" d="M18.9965 4.81823C19.4435 4.81336 19.8904 4.81823 20.3372 4.83281C20.4004 4.85709 20.4441 4.90081 20.4684 4.96397C20.483 6.42131 20.4878 7.87867 20.483 9.33607C20.7182 9.32549 20.9514 9.34006 21.1825 9.37979C21.2277 9.41517 21.2616 9.4589 21.2845 9.51095C21.3085 9.79403 21.2988 10.0758 21.2554 10.3562C21.2418 10.3979 21.2175 10.4319 21.1825 10.4582C20.9428 10.5002 20.6999 10.5147 20.4538 10.502C20.4587 10.9393 20.4538 11.3765 20.4393 11.8136C20.4025 11.8989 20.3394 11.9524 20.2498 11.9739C19.9486 11.9933 19.6474 11.9933 19.3462 11.9739C19.2442 11.9496 19.1811 11.8865 19.1568 11.7844C19.1422 11.3571 19.1373 10.9296 19.1422 10.502C18.258 10.5068 17.3739 10.502 16.4898 10.4874C16.4138 10.4472 16.3701 10.3841 16.3586 10.2979C16.3316 9.99459 16.3414 9.69339 16.3878 9.39436C17.221 7.91254 18.0468 6.42603 18.8653 4.93482C18.906 4.88906 18.9497 4.85018 18.9965 4.81823Z" fill="#129412"/>
<path fill-rule="evenodd" clip-rule="evenodd" d="M19.1434 6.77344C19.1614 6.77667 19.176 6.78638 19.1871 6.80258C19.192 7.21065 19.1968 7.61871 19.2017 8.02677C19.2061 8.45687 19.1915 8.88437 19.158 9.30926C18.6987 9.33814 18.2372 9.34788 17.7735 9.3384C17.7723 9.25315 17.7966 9.17544 17.8463 9.10522C18.2864 8.33186 18.7188 7.55462 19.1434 6.77344Z" fill="#F3F3F3"/>
<path fill-rule="evenodd" clip-rule="evenodd" d="M11.478 7.70492C11.5756 7.70011 11.6728 7.70498 11.7695 7.71949C12.2251 7.93713 12.7012 7.99543 13.1977 7.89438C13.4057 7.82672 13.6145 7.76359 13.8243 7.70492C14.7964 7.9775 15.3891 8.60904 15.6023 9.59949C15.6218 9.92012 15.6218 10.2407 15.6023 10.5614C15.5265 10.7524 15.3857 10.8544 15.1797 10.8674C15.0023 10.8925 14.8274 10.8828 14.655 10.8383C14.0148 9.90615 13.1404 9.55639 12.0318 9.78895C11.7531 9.87963 11.5005 10.0157 11.274 10.197C11.0467 10.4045 10.8427 10.628 10.6619 10.8674C10.4675 10.8868 10.2732 10.8868 10.0789 10.8674C9.904 10.8285 9.78254 10.7264 9.71457 10.5614C9.53674 9.12407 10.1246 8.17195 11.478 7.70492Z" fill="#129412"/>
<path fill-rule="evenodd" clip-rule="evenodd" d="M5.8224 7.70489C5.8911 7.70014 5.9591 7.70498 6.02643 7.71946C6.67298 8.03889 7.32395 8.04862 7.9793 7.74861C8.06674 7.72917 8.15418 7.72917 8.24163 7.74861C8.64022 7.87496 8.99969 8.06926 9.32008 8.33156C9.39126 8.39641 9.43984 8.47415 9.46581 8.56474C9.33083 8.84712 9.23852 9.14343 9.18891 9.45373C9.17921 9.85209 9.16947 10.2504 9.15977 10.6488C9.14342 10.7301 9.10456 10.7981 9.04318 10.8528C8.45003 9.90289 7.59989 9.51911 6.49279 9.70148C5.85201 9.89566 5.36624 10.2843 5.03542 10.8674C4.81195 10.8868 4.5885 10.8868 4.36503 10.8674C4.19883 10.7984 4.09682 10.677 4.05898 10.503C3.90552 9.08813 4.49331 8.15542 5.8224 7.70489Z" fill="#129412"/>
<path fill-rule="evenodd" clip-rule="evenodd" d="M6.78144 10.2401C7.82894 10.2045 8.49449 10.6903 8.77803 11.6975C8.85554 12.506 8.55922 13.1327 7.88904 13.5775C7.15383 13.9028 6.4737 13.8153 5.84873 13.3151C5.3028 12.7264 5.16193 12.0512 5.42609 11.2894C5.70564 10.7131 6.15743 10.3634 6.78144 10.2401Z" fill="#129412"/>
<path fill-rule="evenodd" clip-rule="evenodd" d="M12.3791 10.2968C13.4306 10.2219 14.0961 10.6883 14.3757 11.6959C14.4929 12.4916 14.2258 13.1182 13.5741 13.5759C12.7714 13.9628 12.0476 13.851 11.4027 13.2407C10.8868 12.5747 10.8188 11.8654 11.1986 11.113C11.4862 10.6852 11.8797 10.4132 12.3791 10.2968Z" fill="#129412"/>
<path fill-rule="evenodd" clip-rule="evenodd" d="M13.8682 14.0586C13.9987 14.0596 14.125 14.0839 14.2471 14.1315C15.3658 14.6734 15.8273 15.5624 15.6316 16.7984C15.6115 16.877 15.5678 16.9402 15.5004 16.9879C14.162 17.0263 12.8213 17.0507 11.4781 17.0608C11.2158 17.0559 10.9534 17.0511 10.6911 17.0462C10.6298 16.9867 10.5958 16.9138 10.5891 16.8276C10.6632 16.1288 10.5515 15.4633 10.2539 14.831C10.3079 14.7183 10.3857 14.6211 10.4871 14.5395C10.8344 14.2782 11.223 14.1325 11.653 14.1023C12.0139 14.2729 12.3928 14.3749 12.7897 14.4084C13.1853 14.3947 13.5448 14.2781 13.8682 14.0586Z" fill="#129412"/>
<path fill-rule="evenodd" clip-rule="evenodd" d="M5.7658 14.0587C5.86519 14.0574 5.96234 14.072 6.05727 14.1024C6.5268 14.35 7.02231 14.418 7.54378 14.3064C7.77116 14.2291 7.99947 14.1562 8.22874 14.0878C9.00025 14.2888 9.56375 14.7455 9.91929 15.4577C9.97607 15.5989 10.0149 15.7446 10.0359 15.895C10.0553 16.1961 10.0553 16.4973 10.0359 16.7985C10.0155 16.9025 9.96205 16.9851 9.87557 17.0463C9.55495 17.0511 9.23433 17.056 8.91371 17.0608C7.39784 17.0266 5.88218 17.0266 4.36672 17.0608C4.16975 17.0631 4.05799 16.9659 4.03153 16.7694C3.85321 15.3709 4.43131 14.4673 5.7658 14.0587Z" fill="#129412"/>
<path fill-rule="evenodd" clip-rule="evenodd" d="M18.7324 18.4268C19.0701 18.3827 19.3783 18.4534 19.6569 18.639C19.7402 18.7297 19.7958 18.8358 19.8236 18.9572C19.8139 19.0074 19.7836 19.0377 19.7327 19.0482C19.6038 19.0932 19.4724 19.1134 19.3386 19.1088C19.2697 18.9606 19.1535 18.895 18.99 18.9118C18.7229 18.9052 18.637 19.0214 18.7324 19.2604C19.0291 19.3936 19.3221 19.535 19.6115 19.6848C19.8395 19.8948 19.9153 20.1525 19.8388 20.4577C19.7508 20.7175 19.574 20.8842 19.3083 20.9579C18.937 21.0476 18.5935 20.987 18.2777 20.776C18.1301 20.6536 18.0695 20.502 18.0958 20.3213C18.2122 20.2479 18.3335 20.1823 18.4596 20.1243C18.5397 20.2034 18.6054 20.2943 18.6566 20.3971C18.827 20.5269 19.014 20.5522 19.2174 20.4729C19.3573 20.3488 19.3675 20.2174 19.2477 20.0788C18.985 19.9576 18.7223 19.8363 18.4596 19.7151C18.1822 19.5285 18.0862 19.2708 18.1716 18.9421C18.268 18.6687 18.455 18.4969 18.7324 18.4268Z" fill="#129412"/>
<path fill-rule="evenodd" clip-rule="evenodd" d="M6.03098 20.7883C6.04108 20.3433 6.03095 19.8987 6.00067 19.4545C5.98227 19.4583 5.97218 19.4684 5.97036 19.4849C5.83713 19.839 5.70072 20.1926 5.56113 20.5458C5.47756 20.5921 5.38662 20.6123 5.28831 20.6064C5.19001 20.6123 5.09907 20.5921 5.0155 20.5458C4.86338 20.1811 4.71182 19.8174 4.5608 19.4545C4.5507 19.9193 4.54058 20.3841 4.53049 20.8489C4.51915 20.8767 4.50399 20.902 4.48502 20.9247C4.34355 20.9449 4.2021 20.9449 4.06063 20.9247C4.04166 20.902 4.0265 20.8767 4.01516 20.8489C3.99495 20.0911 3.99495 19.3333 4.01516 18.5755C4.0265 18.5477 4.04166 18.5224 4.06063 18.4997C4.26273 18.4795 4.4648 18.4795 4.66689 18.4997C4.68205 18.5148 4.69721 18.53 4.71236 18.5451C4.89843 19.0124 5.0904 19.4772 5.28831 19.9395C5.4818 19.4805 5.66368 19.0158 5.83395 18.5451C5.8491 18.53 5.86426 18.5148 5.87942 18.4997C6.089 18.4751 6.29616 18.4801 6.50083 18.5148C6.55079 19.3003 6.56089 20.0885 6.53115 20.8793C6.51599 20.8944 6.50083 20.9096 6.48568 20.9247C6.35433 20.9449 6.22296 20.9449 6.09161 20.9247C6.04502 20.8911 6.02483 20.8456 6.03098 20.7883Z" fill="#129412"/>
<path fill-rule="evenodd" clip-rule="evenodd" d="M7.03398 18.4863C7.4989 18.4812 7.96369 18.4863 8.42839 18.5014C8.44354 18.5166 8.4587 18.5317 8.47385 18.5469C8.49807 18.6859 8.49301 18.8224 8.4587 18.9561C8.15557 18.9662 7.85244 18.9763 7.54931 18.9864C7.5089 19.138 7.5089 19.2896 7.54931 19.4411C7.83222 19.4512 8.11516 19.4614 8.39807 19.4714C8.43254 19.6255 8.4376 19.7821 8.41323 19.9413C8.11768 19.9712 7.81958 19.9813 7.51899 19.9716C7.50975 20.1311 7.51987 20.2877 7.54931 20.4415C7.87523 20.4375 8.19352 20.4627 8.50417 20.5172C8.53436 20.6606 8.5192 20.797 8.4587 20.9265C7.98245 20.9512 7.50753 20.9462 7.03398 20.9113C6.99388 20.101 6.99388 19.2926 7.03398 18.4863Z" fill="#129412"/>
<path fill-rule="evenodd" clip-rule="evenodd" d="M8.97079 18.4863C9.16304 18.4812 9.35501 18.4863 9.54674 18.5014C9.56189 18.5166 9.57705 18.5317 9.59221 18.5469C9.77827 19.0141 9.97024 19.4789 10.1682 19.9413C10.3616 19.4823 10.5435 19.0175 10.7138 18.5469C10.7289 18.5317 10.7441 18.5166 10.7593 18.5014C10.9688 18.4768 11.176 18.4819 11.3807 18.5166C11.4017 19.2947 11.4118 20.0727 11.411 20.8507C11.3997 20.8784 11.3845 20.9037 11.3655 20.9265C11.2948 20.9315 11.2241 20.9366 11.1533 20.9416C11.0688 20.9394 10.9931 20.9192 10.926 20.881C10.9209 20.4058 10.9058 19.9309 10.8805 19.4563C10.7313 19.8077 10.5848 20.1613 10.441 20.5172C10.3539 20.5888 10.2529 20.6191 10.1378 20.6082C10.0494 20.6132 9.9686 20.593 9.89534 20.5475C9.74944 20.1803 9.59788 19.8165 9.44064 19.4563C9.43558 19.9416 9.42042 20.4266 9.39517 20.9113C9.2554 20.945 9.11393 20.95 8.97079 20.9265C8.95563 20.9113 8.94048 20.8961 8.92532 20.881C8.9051 20.1029 8.9051 19.3249 8.92532 18.5469C8.94705 18.5304 8.96221 18.5102 8.97079 18.4863Z" fill="#129412"/>
<path fill-rule="evenodd" clip-rule="evenodd" d="M12.0031 18.4566C12.3683 18.4456 12.7321 18.4607 13.0944 18.5021C13.5386 18.668 13.6851 18.9762 13.5339 19.4266C13.4833 19.5126 13.4176 19.5834 13.3369 19.6388C13.704 19.8765 13.8 20.1998 13.6249 20.6089C13.4966 20.7976 13.3198 20.9138 13.0944 20.9575C12.7104 20.9777 12.3265 20.9777 11.9425 20.9575C11.9173 20.9322 11.892 20.9069 11.8667 20.8817C11.8465 20.1138 11.8465 19.3458 11.8667 18.5779C11.8942 18.5139 11.9397 18.4735 12.0031 18.4566Z" fill="#129412"/>
<path fill-rule="evenodd" clip-rule="evenodd" d="M14.1544 18.4863C14.6092 18.4812 15.0639 18.4863 15.5185 18.5014C15.5336 18.5166 15.5488 18.5317 15.5639 18.5469C15.5882 18.6859 15.5831 18.8224 15.5488 18.9561C15.2457 18.9662 14.9425 18.9763 14.6394 18.9864C14.5719 19.1277 14.5618 19.2742 14.6091 19.426C14.8915 19.4512 15.1744 19.4664 15.4578 19.4714C15.473 19.4866 15.4882 19.5018 15.5033 19.5169C15.5284 19.6594 15.5234 19.8009 15.4882 19.9413C15.2068 19.9495 14.9239 19.9546 14.6394 19.9565C14.599 20.1181 14.599 20.2798 14.6394 20.4415C14.9425 20.4516 15.2457 20.4617 15.5488 20.4718C15.596 20.5323 15.6163 20.603 15.6094 20.684C15.6144 20.7724 15.5942 20.8532 15.5488 20.9265C15.084 20.9467 14.6192 20.9467 14.1544 20.9265C14.1392 20.9113 14.1241 20.8962 14.1089 20.881C14.0887 20.103 14.0887 19.3249 14.1089 18.5469C14.1306 18.5304 14.1458 18.5102 14.1544 18.4863Z" fill="#129412"/>
<path fill-rule="evenodd" clip-rule="evenodd" d="M16.0645 18.4888C16.4605 18.476 16.8545 18.4911 17.2467 18.5342C17.5073 18.623 17.674 18.7999 17.7469 19.0647C17.8317 19.4643 17.7256 19.7978 17.4286 20.065C17.576 20.3193 17.7073 20.582 17.8227 20.8532C17.8194 20.8817 17.8093 20.907 17.7924 20.929C17.6307 20.9492 17.469 20.9492 17.3074 20.929C17.1498 20.6752 16.9982 20.4176 16.8527 20.156C16.7433 20.126 16.6322 20.1159 16.5192 20.1257C16.5243 20.3785 16.5192 20.6311 16.5041 20.8835C16.4889 20.8987 16.4738 20.9138 16.4586 20.929C16.3273 20.9492 16.1959 20.9492 16.0645 20.929C16.0494 20.9138 16.0342 20.8987 16.0191 20.8835C15.9989 20.1055 15.9989 19.3274 16.0191 18.5494C16.0408 18.5329 16.056 18.5127 16.0645 18.4888Z" fill="#129412"/>
<path fill-rule="evenodd" clip-rule="evenodd" d="M12.397 18.9412C12.6018 18.9298 12.8039 18.9449 13.0033 18.9867C13.1545 19.1918 13.1141 19.3434 12.882 19.4414C12.7203 19.4616 12.5587 19.4616 12.397 19.4414C12.3573 19.2746 12.3573 19.1079 12.397 18.9412Z" fill="#F3F3F3"/>
<path fill-rule="evenodd" clip-rule="evenodd" d="M16.5495 18.9735C16.7578 18.9573 16.9599 18.9826 17.1557 19.0493C17.2835 19.1766 17.3087 19.3231 17.2315 19.4888C17.1947 19.5358 17.1492 19.5711 17.0951 19.5949C16.9132 19.6151 16.7313 19.6151 16.5495 19.5949C16.5096 19.3878 16.5096 19.1807 16.5495 18.9735Z" fill="#F3F3F3"/>
<path fill-rule="evenodd" clip-rule="evenodd" d="M12.397 19.9414C12.6219 19.9295 12.8442 19.9447 13.0639 19.9869C13.19 20.0923 13.2153 20.2186 13.1397 20.3658C13.0918 20.4125 13.0362 20.4479 12.9729 20.4719C12.7911 20.4921 12.6092 20.4921 12.4273 20.4719C12.4121 20.4567 12.397 20.4416 12.3818 20.4264C12.3582 20.2622 12.3632 20.1005 12.397 19.9414Z" fill="#F3F3F3"/>
<path fill-rule="evenodd" clip-rule="evenodd" d="M5.97266 19.4873C5.97448 19.4709 5.98457 19.4608 6.00297 19.457C6.03325 19.9012 6.04338 20.3457 6.03328 20.7908C6.01306 20.3563 5.99288 19.9218 5.97266 19.4873Z" fill="#129412"/>
</g>
<defs>
<clipPath id="clip0_454_7366">
<rect width="24" height="24" fill="white"/>
</clipPath>
</defs>
</svg>
