<svg width="20" height="24" viewBox="0 0 20 24" fill="none" xmlns="http://www.w3.org/2000/svg">
<path d="M10.5536 8.01753C9.97507 7.43684 9.27063 6.97803 8.48749 6.68019C8.11774 7.09109 7.86597 7.59134 7.76083 8.13378C7.73224 8.28003 7.71508 8.42666 7.70721 8.57258C7.77157 8.5947 7.83452 8.61833 7.89607 8.64514C8.57833 8.93441 9.16408 9.41862 9.57457 10.0287C9.90424 10.5164 10.1231 11.081 10.1968 11.6929C10.2161 11.8456 10.2254 12.0012 10.2254 12.1599C10.2254 12.6899 10.1188 13.1891 9.92646 13.6446C9.68758 14.2064 9.31783 14.7035 8.85368 15.09C8.755 15.1733 8.65127 15.2506 8.54402 15.3232C7.93399 15.7351 7.20593 15.974 6.41135 15.974C5.88283 15.974 5.38436 15.8671 4.92808 15.675C4.24436 15.3858 3.66077 14.9012 3.24883 14.2915C2.8383 13.6825 2.59943 12.9527 2.59943 12.1599C2.59943 11.6303 2.70457 11.1319 2.89765 10.6752C3.15729 10.0623 3.57565 9.52737 4.1013 9.12795C4.09127 8.98953 4.08696 8.85116 4.08696 8.71278C4.08696 8.00192 4.19852 7.30817 4.41096 6.65234C3.59777 6.94808 2.8683 7.41828 2.27041 8.01763C1.21052 9.07433 0.552537 10.5451 0.554693 12.16C0.552583 13.7752 1.21057 15.246 2.27041 16.303C3.15293 17.1869 4.32297 17.7888 5.6246 17.9636V19.7895H2.91049V21.3621H5.6246V23.9997H7.198V21.3621H9.91427V19.7894H7.198V17.9636C8.50038 17.7887 9.67183 17.1869 10.5536 16.303C10.8483 16.0083 11.1108 15.6829 11.3389 15.3307C11.9289 14.417 12.2715 13.3253 12.2701 12.1599C12.2701 11.8864 12.2508 11.6157 12.215 11.3518C12.0355 10.0573 11.4333 8.89508 10.5536 8.01753Z" fill="#129412"/>
<path d="M14.3579 0V1.5727H16.7581L14.2778 4.05295C13.2336 3.25697 11.9785 2.85464 10.7298 2.85577C9.23436 2.85464 7.72892 3.42858 6.58747 4.57219C5.77072 5.38678 5.24581 6.38691 5.0112 7.43719C5.00834 7.45003 5.00694 7.46292 5.00333 7.47366C4.99405 7.51444 4.98617 7.55555 4.97834 7.59455C4.964 7.67034 4.95116 7.74581 4.93902 7.82123C4.93114 7.86666 4.92472 7.91423 4.9197 7.95961C4.91042 8.02866 4.90255 8.09944 4.89683 8.17022C4.89327 8.211 4.88895 8.25216 4.88684 8.29289C4.88544 8.31328 4.88398 8.334 4.88258 8.35584C4.87897 8.39695 4.87756 8.43914 4.87611 8.47988C4.87325 8.55713 4.87109 8.63578 4.87109 8.71303C4.87109 8.77275 4.87325 8.83247 4.8747 8.89359C4.87756 8.95369 4.88117 9.01303 4.88398 9.07458L4.89327 9.20686C4.89327 9.2287 4.89683 9.25083 4.89823 9.27445C5.02414 10.581 5.58837 11.8584 6.58747 12.8557C7.19253 13.4611 7.90053 13.9074 8.65363 14.1924C8.88172 13.941 9.06772 13.65 9.20145 13.3367C9.33945 13.0081 9.41816 12.6605 9.43386 12.3018C8.92255 12.118 8.4448 11.8223 8.03286 11.4104C7.66025 11.036 7.38134 10.608 7.19609 10.1488C7.06381 9.82439 6.97869 9.48473 6.94147 9.14213C6.91719 8.93934 6.91147 8.73483 6.92075 8.53209C6.92361 8.48166 6.92717 8.43305 6.93003 8.38406C6.93359 8.34797 6.93645 8.31183 6.94287 8.27536C6.94287 8.26139 6.94573 8.24747 6.94719 8.23317C6.95075 8.19848 6.95506 8.16239 6.96148 8.12803C6.96936 8.08083 6.97723 8.03184 6.98652 7.98502C7.02795 7.7708 7.08734 7.56019 7.166 7.35563C7.18034 7.31808 7.19459 7.28198 7.2118 7.24406C7.22755 7.20473 7.24466 7.16541 7.26327 7.12608C7.27902 7.08675 7.29763 7.04737 7.31834 7.0095C7.3355 6.97055 7.35622 6.93263 7.37844 6.89508C7.48213 6.7027 7.60447 6.5175 7.74463 6.34116C7.77322 6.30506 7.80327 6.26897 7.83261 6.23423C7.89767 6.16022 7.96348 6.08798 8.03427 6.0172C8.1222 5.92922 8.21164 5.84733 8.30459 5.77186C8.60928 5.51869 8.94322 5.32022 9.29366 5.17898C9.98094 4.90045 10.7376 4.82963 11.4592 4.96978C12.1816 5.10994 12.8653 5.45541 13.4274 6.01716C13.8015 6.39155 14.0782 6.81956 14.2635 7.27838C14.5438 7.96566 14.6147 8.72086 14.4745 9.44287C14.3329 10.1645 13.9867 10.8486 13.4274 11.4104C13.3044 11.533 13.1757 11.6464 13.042 11.7468C13.0498 11.8852 13.0541 12.0236 13.0541 12.1602C13.0563 12.865 12.944 13.5598 12.7287 14.2206C13.5118 13.9374 14.2463 13.4814 14.8721 12.8557C16.0143 11.7153 16.59 10.2099 16.5885 8.71298C16.5899 7.46391 16.1873 6.21094 15.3899 5.16497L17.8701 2.68472V5.08594H19.4428V0H14.3579Z" fill="#129412"/>
</svg>
