<svg width="22" height="22" viewBox="0 0 22 22" fill="none" xmlns="http://www.w3.org/2000/svg">
<path d="M13.5078 12.0547L17.8906 17.8906H4.25L7.64844 13.5078L10.0859 16.4375L13.5078 12.0547ZM2.14062 2.14062V19.8594H19.8594V2.14062H2.14062ZM3.125 0.171875H18.875L19.1797 0.195312L19.4609 0.242188L19.7422 0.3125L20.0234 0.40625L20.2812 0.523438L20.5156 0.6875L20.75 0.851562L20.9609 1.03906L21.1484 1.25L21.3125 1.48438L21.4766 1.71875L21.5938 1.97656L21.6875 2.25781L21.7578 2.53906L21.8047 2.82031L21.8281 3.125V18.875L21.8047 19.1797L21.7578 19.4609L21.6875 19.7422L21.5938 20.0234L21.4766 20.2812L21.3125 20.5156L21.1484 20.75L20.9609 20.9609L20.75 21.1484L20.5156 21.3125L20.2812 21.4766L20.0234 21.5938L19.7422 21.6875L19.4609 21.7578L19.1797 21.8047L18.875 21.8281H3.125L2.82031 21.8047L2.53906 21.7578L2.25781 21.6875L1.97656 21.5938L1.71875 21.4766L1.48438 21.3125L1.25 21.1484L1.03906 20.9609L0.851562 20.75L0.6875 20.5156L0.523438 20.2812L0.40625 20.0234L0.3125 19.7422L0.242188 19.4609L0.195312 19.1797L0.171875 18.875V3.125L0.195312 2.82031L0.242188 2.53906L0.3125 2.25781L0.40625 1.97656L0.523438 1.71875L0.6875 1.48438L0.851562 1.25L1.03906 1.03906L1.25 0.851562L1.48438 0.6875L1.71875 0.523438L1.97656 0.40625L2.25781 0.3125L2.53906 0.242188L2.82031 0.195312L3.125 0.171875Z" fill="#129412"/>
</svg>
