
<svg width="21" height="20" viewBox="0 0 21 20" fill="none" xmlns="http://www.w3.org/2000/svg">
<path d="M11.1 9C10.7 8.9 10.3 8.7 10 8.4C9.7 8.3 9.6 8 9.6 7.8C9.6 7.6 9.7 7.3 9.9 7.2C10.2 7 10.5 6.8 10.8 6.9C11.4 6.9 11.9 7.2 12.2 7.6L13.1 6.4C12.8 6.1 12.5 5.9 12.2 5.7C11.9 5.5 11.5 5.4 11.1 5.4V4H9.9V5.4C9.4 5.5 8.9 5.8 8.5 6.2C8.1 6.7 7.8 7.3 7.9 7.9C7.9 8.5 8.1 9.1 8.5 9.5C9 10 9.7 10.3 10.3 10.6C10.6 10.7 11 10.9 11.3 11.1C11.5 11.3 11.6 11.6 11.6 11.9C11.6 12.2 11.5 12.5 11.3 12.8C11 13.1 10.6 13.2 10.3 13.2C9.9 13.2 9.4 13.1 9.1 12.8C8.8 12.6 8.5 12.3 8.3 12L7.3 13.1C7.6 13.5 7.9 13.8 8.3 14.1C8.8 14.4 9.4 14.7 10 14.7V16H11.1V14.5C11.7 14.4 12.2 14.1 12.6 13.7C13.1 13.2 13.4 12.4 13.4 11.7C13.4 11.1 13.2 10.4 12.7 10C12.2 9.5 11.7 9.2 11.1 9ZM10.5 2C6.1 2 2.5 5.6 2.5 10C2.5 14.4 6.1 18 10.5 18C14.9 18 18.5 14.4 18.5 10C18.5 5.6 14.9 2 10.5 2ZM10.5 16.9C6.7 16.9 3.6 13.8 3.6 10C3.6 6.2 6.7 3.1 10.5 3.1C14.3 3.1 17.4 6.2 17.4 10C17.4 13.8 14.3 16.9 10.5 16.9Z" fill="#747474"/>
</svg>
