<svg width="16" height="20" viewBox="0 0 16 20" fill="none" xmlns="http://www.w3.org/2000/svg">
<path d="M6.25 17C6.25 17.9661 7.03386 18.75 8 18.75C8.96597 18.7498 9.75 17.966 9.75 17V15.75H6.25V17ZM6.44238 2.75C5.62489 2.74998 4.83812 3.06148 4.24219 3.62109C3.72078 4.11075 3.38004 4.75824 3.26855 5.45898L3.23438 5.7627L3.01465 9.2959C2.92367 10.7301 2.46618 12.1156 1.68848 13.3203L1.5293 13.5586C1.4838 13.624 1.45109 13.6972 1.43359 13.7744L1.4209 13.8535C1.41102 13.9594 1.42917 14.066 1.47266 14.1631C1.51618 14.2602 1.58426 14.3441 1.66992 14.4072C1.73426 14.4546 1.8068 14.4892 1.88379 14.5088L1.96191 14.5234L5.69922 14.9727C7.22758 15.1554 8.77144 15.1553 10.2998 14.9727L14.0371 14.5234C14.1428 14.5107 14.2434 14.4703 14.3291 14.4072C14.4148 14.3441 14.4828 14.2602 14.5264 14.1631C14.559 14.0902 14.5773 14.0119 14.5801 13.9326L14.5781 13.8535L14.5654 13.7744C14.5479 13.6972 14.5153 13.624 14.4697 13.5586H14.4707C13.5963 12.3 13.0822 10.8263 12.9854 9.29688L12.7646 5.7627C12.7134 4.94668 12.3528 4.1808 11.7568 3.62109C11.1609 3.0615 10.3742 2.74992 9.55664 2.75H6.44238ZM5.75 15.4814L5.30859 15.4287L1.90234 15.0205C1.71095 14.9976 1.52834 14.9257 1.37305 14.8115C1.21781 14.6974 1.09455 14.5449 1.01562 14.3691C0.936698 14.1933 0.90495 13.9995 0.922852 13.8076C0.936304 13.6636 0.977651 13.5241 1.04395 13.3965L1.11816 13.2734C1.88915 12.1638 2.36202 10.876 2.49316 9.53418L2.51465 9.26562L2.73535 5.73145C2.79453 4.78865 3.21089 3.90358 3.89941 3.25684C4.545 2.65055 5.38483 2.29583 6.26562 2.25391L6.44238 2.25H7.5V1C7.5 0.867392 7.55272 0.740252 7.64648 0.646484C7.74023 0.552836 7.86748 0.5 8 0.5C8.13247 0.500102 8.25984 0.552807 8.35352 0.646484C8.44716 0.740234 8.5 0.867483 8.5 1V2.25H9.55664C10.5015 2.24995 11.4109 2.60996 12.0996 3.25684C12.7883 3.90379 13.2047 4.78934 13.2637 5.73242L13.4844 9.26562C13.5756 10.7039 14.0586 12.0899 14.8809 13.2734C14.9908 13.4317 15.0584 13.6158 15.0762 13.8076C15.0939 13.9993 15.0613 14.1925 14.9824 14.3682C14.9035 14.5438 14.781 14.6964 14.626 14.8105C14.4708 14.9247 14.288 14.9965 14.0967 15.0195L10.6904 15.4287L10.25 15.4814V17C10.25 17.5966 10.0127 18.1689 9.59082 18.5908C9.16895 19.0127 8.5966 19.2499 8 19.25C7.40326 19.25 6.83016 19.0128 6.4082 18.5908C5.98643 18.1689 5.75 17.5966 5.75 17V15.4814Z" stroke="black"/>
</svg>
