<svg width="24" height="24" viewBox="0 0 24 24" fill="none" xmlns="http://www.w3.org/2000/svg">
<path d="M6.84537 21.6147C6.47952 21.8903 6.11405 22.1663 5.74758 22.441C5.64367 22.5189 5.53956 22.5971 5.43079 22.6679C5.23471 22.7954 5.0529 22.7575 4.9165 22.5656C4.0372 21.3283 3.15857 20.0906 2.27884 18.8536C1.96475 18.412 1.64536 17.9741 1.33415 17.5304C1.19861 17.3372 1.23737 17.1838 1.43077 17.0517C1.60086 16.9357 1.76775 16.8149 1.95897 16.7031C2.08728 16.8295 2.19266 16.949 2.29054 17.0826C2.14666 17.1909 2.01028 17.2851 1.86606 17.3847C3.00012 18.9714 4.12801 20.5495 5.25669 22.1287C5.67583 21.8303 6.0753 21.5459 6.49104 21.2702C6.61999 21.3908 6.73268 21.5028 6.84537 21.6147Z" fill="#129412"/>
<path d="M11.8594 15.0078C12.1757 15.0521 12.493 15.0904 12.8081 15.1422C13.2429 15.2138 13.6829 15.2691 14.1084 15.3787C14.8732 15.5757 15.2878 16.1131 15.4578 16.9058C15.7689 16.6873 16.0697 16.4761 16.3976 16.2746C16.5442 16.3893 16.6635 16.4944 16.7765 16.6142C16.4643 16.8418 16.1558 17.0505 15.8538 17.2685C15.6026 17.4498 15.3626 17.629 15.2774 17.968C15.2349 18.1374 15.0665 18.2751 14.9471 18.4134C14.8326 18.2813 14.7261 18.1631 14.6264 18.0301C14.8415 17.7939 14.9353 17.5218 14.9505 17.2275C14.9843 16.5744 14.5031 15.8868 13.6073 15.7913C13.1465 15.7422 12.6919 15.6354 12.2334 15.5383C12.1884 15.4518 12.1485 15.3786 12.0995 15.3123C12.0227 15.2084 11.9397 15.1091 11.8594 15.0078Z" fill="#129412"/>
<path d="M18.3784 13.502C18.23 13.5482 18.0822 13.6319 17.9331 13.6344C17.1371 13.6475 16.3408 13.6408 15.5446 13.6401C15.1007 13.6397 14.7295 13.2757 14.7176 12.8288C14.7143 12.7044 14.7171 12.5798 14.7171 12.4215C14.5494 12.4215 14.389 12.422 14.2287 12.4215C13.9322 12.4206 13.8279 12.2787 13.9182 11.9995C14.063 11.5516 14.2078 11.1038 14.3853 10.6484C14.5507 10.7195 14.6835 10.7981 14.8139 10.8952C14.7156 11.2371 14.6196 11.5605 14.5171 11.9061C14.6854 11.9061 14.8247 11.9058 14.964 11.9062C15.1406 11.9066 15.2318 11.9942 15.2324 12.1721C15.233 12.3357 15.2324 12.4993 15.2326 12.6629C15.2331 13.0007 15.3539 13.1237 15.6855 13.1248C16.4565 13.1274 17.2275 13.13 18.0021 13.1478C18.1299 13.276 18.2541 13.389 18.3784 13.502Z" fill="#129412"/>
<path d="M11.0548 4.07974C10.9081 4.35813 10.7614 4.63653 10.6101 4.92356C10.8386 4.92356 11.1064 4.92358 11.3741 4.92355C12.0952 4.92348 12.4797 5.26218 12.57 5.97582C12.5717 5.98911 12.5869 6.00068 12.5894 6.04843C12.576 6.60342 12.5691 7.12303 12.5464 7.63935C12.3876 7.54438 12.2447 7.45269 12.0984 7.33927C12.0947 6.96047 12.0988 6.60334 12.0928 6.24638C12.084 5.71391 11.8358 5.3975 11.2887 5.43378C10.9027 5.45939 10.5132 5.43402 10.1216 5.41622C9.9642 5.21325 9.8104 5.02547 9.67188 4.83041C10.1628 4.62848 10.4584 4.26746 10.6491 3.80469C10.7936 3.90163 10.9242 3.99069 11.0548 4.07974Z" fill="#129412"/>
<path d="M9.65625 4.83463C9.81005 5.02241 9.96386 5.21019 10.0996 5.41661C9.34594 5.43295 8.61042 5.43066 7.87156 5.41266C7.76107 5.24076 7.65395 5.08456 7.54682 4.92835C7.60071 4.92358 7.65461 4.91881 7.73243 4.91192C7.11048 4.22796 6.91859 3.46132 7.25115 2.59766C7.39554 2.73643 7.52074 2.86852 7.6436 3.02053C7.64062 3.23524 7.62132 3.43207 7.64247 3.62446C7.74267 4.53563 8.75354 5.16801 9.65625 4.83463Z" fill="#129412"/>
<path d="M15.5586 1.73078C15.8368 1.60666 16.1048 1.41688 16.3953 1.37177C17.0442 1.27101 17.6645 1.40103 18.1591 1.87218C18.5452 2.23991 18.7742 2.69721 18.7965 3.23937C18.8074 3.50343 18.7977 3.76833 18.7788 4.05101C18.6901 4.01183 18.621 3.95324 18.5496 3.8975C18.4643 3.83084 18.3771 3.76661 18.2873 3.67982C18.2835 3.52624 18.2907 3.39364 18.2815 3.26219C18.2524 2.84787 18.0703 2.48514 17.762 2.23442C17.1858 1.76588 16.5472 1.73172 15.8857 2.09915C15.7688 1.96943 15.6637 1.8501 15.5586 1.73078Z" fill="#129412"/>
<path d="M7.13382 11.0611C7.13382 10.6811 7.13382 10.301 7.13382 9.90418C6.91772 9.89241 6.71034 9.91627 6.52398 9.86447C5.92914 9.69915 5.71848 9.29359 5.67544 8.68704C5.65842 8.44719 5.6734 8.20506 5.6913 7.93673C5.7557 7.84303 5.80262 7.77657 5.85446 7.70312C5.96966 7.77988 6.07516 7.85019 6.18406 7.94222C6.18783 8.19773 6.16994 8.43331 6.1926 8.66491C6.23238 9.07163 6.34502 9.38527 6.92035 9.37405C7.04499 9.37162 7.16976 9.37161 7.2944 9.37411C7.53523 9.37894 7.63895 9.47228 7.64019 9.70575C7.64268 10.1731 7.63647 10.6406 7.61978 11.1134C7.55808 11.1731 7.51043 11.2274 7.46235 11.2821C7.34412 11.2026 7.23897 11.1319 7.13382 11.0611Z" fill="#129412"/>
<path d="M14.8187 10.8751C14.686 10.7965 14.5532 10.7179 14.4032 10.6381C14.4586 10.3909 14.5312 10.1448 14.6075 9.88652C14.2279 9.91615 13.8891 9.84251 13.6163 9.56127C13.4152 9.35391 13.3107 9.11379 13.3125 8.82403C13.3156 8.33405 13.3139 7.84403 13.3329 7.33594C13.5081 7.40916 13.6646 7.50047 13.8245 7.61352C13.8283 8.00984 13.8275 8.38442 13.8292 8.75899C13.8309 9.12191 14.0857 9.37139 14.4541 9.37303C14.618 9.37375 14.7819 9.37033 14.9457 9.37379C15.1553 9.37822 15.286 9.53407 15.2234 9.72343C15.0955 10.1096 14.9544 10.4915 14.8187 10.8751Z" fill="#129412"/>
<path d="M19.9258 13.7154C20.4947 13.3635 21.0899 13.302 21.7171 13.544C22.3057 13.7712 22.8363 14.458 22.8287 15.0913C22.8245 15.4367 22.8471 15.7834 22.6225 16.1063C22.4583 16.0437 22.3182 15.9663 22.1805 15.8716C22.2255 15.6252 22.2978 15.3971 22.3048 15.1669C22.3196 14.6839 22.0555 14.3478 21.6581 14.1087C21.232 13.8522 20.7918 13.8654 20.3335 14.0549C20.1883 13.9364 20.0571 13.8259 19.9258 13.7154Z" fill="#129412"/>
<path d="M18.288 3.70312C18.3744 3.76841 18.4616 3.83264 18.5469 3.8993C18.6183 3.95504 18.6874 4.01363 18.7727 4.07453C18.7879 4.35001 18.7879 4.62192 18.7879 4.89388C18.9962 4.92032 19.1853 4.9359 19.3712 4.96955C19.8785 5.06142 20.1948 5.5349 20.2009 6.00443C20.2059 6.37901 20.2013 6.75372 20.1823 7.14653C20.0072 7.05771 19.8507 6.95072 19.6908 6.82201C19.6871 6.5527 19.6904 6.30504 19.6855 6.05755C19.6792 5.73965 19.5583 5.55199 19.242 5.48641C18.9758 5.43121 18.6951 5.44598 18.4175 5.41413C18.3587 5.32966 18.2987 5.264 18.2492 5.19118C18.1922 5.10735 18.1445 5.01719 18.1133 4.92641C18.2615 4.94472 18.2836 4.8794 18.2825 4.76662C18.2788 4.41218 18.2854 4.05763 18.288 3.70312Z" fill="#129412"/>
<path d="M11.0643 4.06164C10.9254 3.98913 10.7948 3.90007 10.6528 3.78305C10.6415 3.53703 10.669 3.31476 10.6363 3.10177C10.5647 2.63695 10.2914 2.30234 9.89268 2.06074C9.49019 1.81685 9.06338 1.84042 8.62024 1.91398C8.50594 1.78172 8.39946 1.66333 8.29297 1.54494C8.80504 1.2537 9.35205 1.28277 9.8664 1.47347C10.7323 1.79452 11.1915 2.54079 11.1978 3.42559C11.1992 3.63178 11.1166 3.83857 11.0643 4.06164Z" fill="#129412"/>
<path d="M7.12925 11.0859C7.23777 11.1349 7.34292 11.2057 7.46115 11.2852C7.50924 11.2305 7.55688 11.1762 7.62196 11.1383C7.63974 11.6843 7.63951 12.2141 7.64069 12.7439C7.64124 12.9941 7.77149 13.125 8.01957 13.1268C8.4401 13.1298 8.86062 13.1321 9.28473 13.1498C9.41092 13.3216 9.53352 13.4781 9.65612 13.6346C9.05637 13.6372 8.45647 13.6489 7.85694 13.6389C7.47289 13.6325 7.12527 13.2474 7.12506 12.8607C7.12475 12.2764 7.12555 11.692 7.12925 11.0859Z" fill="#129412"/>
<path d="M18.3969 13.4998C18.2562 13.3883 18.132 13.2753 18.0195 13.1398C18.2183 13.0374 18.2814 12.8841 18.2817 12.6939C18.2819 12.5143 18.286 12.3346 18.2805 12.1552C18.2751 11.978 18.3536 11.8982 18.531 11.9044C18.6782 11.9096 18.8257 11.9055 18.9978 11.9055C18.8506 11.4368 18.7106 10.9913 18.587 10.5469C18.6891 10.6074 18.7782 10.6625 18.8595 10.7273C18.995 10.8354 19.1255 10.9498 19.2581 11.0615C19.3701 11.4211 19.4932 11.7779 19.5898 12.1416C19.6436 12.3441 19.5019 12.4153 19.3239 12.42C19.1606 12.4244 18.997 12.421 18.8017 12.421C18.8011 12.8262 18.8135 13.2432 18.3969 13.4998Z" fill="#129412"/>
<path d="M11.8407 15.0007C11.9381 15.1109 12.0211 15.2102 12.0979 15.3141C12.1469 15.3804 12.1867 15.4536 12.212 15.5435C11.0659 15.3736 9.93837 15.1838 8.80748 14.9783C8.76184 14.8923 8.72355 14.8193 8.67638 14.7525C8.59981 14.644 8.51743 14.5397 8.4375 14.4336C8.98211 14.5144 9.52738 14.5912 10.0712 14.6773C10.6441 14.7679 11.2157 14.8674 11.7877 14.9641C11.8008 14.9663 11.8117 14.9823 11.8407 15.0007Z" fill="#129412"/>
<path d="M13.918 5.05539C14.1712 4.99166 14.4245 4.92793 14.7177 4.85413C14.7177 4.47301 14.7177 4.03853 14.7364 3.58594C14.9116 3.70603 15.0682 3.84424 15.2282 4.00418C15.2317 4.31959 15.2317 4.61327 15.2317 4.92787C15.5794 4.92787 15.8982 4.92787 16.218 4.94439C16.3121 5.11658 16.4052 5.27225 16.4765 5.4314C15.7934 5.43508 15.1321 5.43382 14.4708 5.43725C14.3809 5.43771 14.2911 5.46168 14.1977 5.45953C14.102 5.31467 14.01 5.18503 13.918 5.05539Z" fill="#129412"/>
<path d="M15.0936 21.5071C14.5849 21.4588 14.0743 21.4251 13.568 21.3582C13.0192 21.2856 12.4744 21.1823 11.928 21.091C11.8997 21.0862 11.8736 21.068 11.8284 21.0308C11.7663 20.9354 11.7265 20.8623 11.6775 20.796C11.6007 20.6921 11.5177 20.5928 11.457 20.4883C11.9871 20.5664 12.4971 20.6499 13.0079 20.7285C13.6247 20.8235 14.2421 20.9144 14.8595 21.0244C14.9377 21.1968 15.0156 21.352 15.0936 21.5071Z" fill="#129412"/>
<path d="M11.4389 20.4939C11.5193 20.5951 11.6023 20.6944 11.6791 20.7983C11.7281 20.8646 11.7679 20.9378 11.8129 21.0243C11.4605 20.9918 11.106 20.9493 10.7538 20.8926C10.2366 20.8093 9.72138 20.7141 9.20474 20.6274C8.97215 20.5884 8.73815 20.5578 8.49382 20.4902C8.38943 20.3242 8.296 20.1914 8.21094 20.0424C8.32014 20.0134 8.42463 19.9769 8.52123 19.9917C9.03917 20.0713 9.55535 20.1625 10.0717 20.252C10.5277 20.331 10.9832 20.4131 11.4389 20.4939Z" fill="#129412"/>
<path d="M8.42699 14.4137C8.5175 14.5359 8.59988 14.6403 8.67645 14.7487C8.72362 14.8155 8.76192 14.8886 8.78817 14.9779C8.35958 14.9251 7.94769 14.8491 7.53428 14.7824C6.94767 14.6879 6.36201 14.5378 5.75777 14.7087C5.62887 14.5754 5.50779 14.456 5.38672 14.3367C5.91895 14.0952 6.46888 14.0702 7.03755 14.1783C7.49457 14.2651 7.95661 14.3255 8.42699 14.4137Z" fill="#129412"/>
<path d="M19.2593 11.0456C19.1237 10.9519 18.9932 10.8375 18.8577 10.7295C18.7764 10.6646 18.6873 10.6095 18.5773 10.5329C18.4646 10.267 18.367 10.021 18.2904 9.76871C18.218 9.53056 18.3382 9.3808 18.5857 9.37666C18.7182 9.37444 18.8516 9.36712 18.9832 9.37806C19.2736 9.4022 19.4835 9.28024 19.6474 9.05469C19.7784 9.17043 19.8989 9.27437 20.0194 9.3783C19.8553 9.71942 19.5459 9.83318 19.2051 9.88939C19.1069 9.90559 19.0038 9.89188 18.8811 9.89188C19.0126 10.2837 19.1374 10.6557 19.2593 11.0456Z" fill="#129412"/>
<path d="M21.1889 17.3945C20.7265 17.7346 20.2658 18.077 19.8011 18.4139C19.5754 18.5776 19.3423 18.7311 19.0926 18.876C18.9798 18.7447 18.8871 18.6267 18.8008 18.4941C18.8481 18.4449 18.8866 18.407 18.9301 18.376C19.5715 17.9197 20.2135 17.4644 20.8625 17.0234C20.9761 17.1569 21.0825 17.2757 21.1889 17.3945Z" fill="#129412"/>
<path d="M18.7931 18.5117C18.8859 18.6297 18.9787 18.7478 19.0747 18.8819C18.8377 19.081 18.6014 19.2696 18.3563 19.4459C17.938 19.7469 17.5142 20.0403 17.0698 20.33C16.9415 20.2037 16.8362 20.0843 16.7383 19.9506C17.0612 19.7138 17.3754 19.4895 17.6924 19.2691C18.058 19.0148 18.4261 18.764 18.7931 18.5117Z" fill="#129412"/>
<path d="M16.7827 16.5987C16.6633 16.4937 16.5439 16.3886 16.4141 16.2717C16.8659 15.9197 17.3277 15.5788 17.7908 15.2396C18.0047 15.083 18.2212 14.9298 18.4561 14.7891C18.5844 14.9161 18.6931 15.0291 18.7952 15.1569C18.12 15.6474 17.4513 16.1231 16.7827 16.5987Z" fill="#129412"/>
<path d="M13.9019 5.05859C14.0108 5.18577 14.1028 5.31541 14.1835 5.46739C13.9293 5.6238 13.82 5.82519 13.8242 6.10655C13.8318 6.60174 13.8218 7.09719 13.8192 7.59253C13.6627 7.50122 13.5063 7.40991 13.3345 7.31496C13.3166 6.84327 13.2973 6.37454 13.3166 5.90741C13.3325 5.52268 13.5284 5.23091 13.9019 5.05859Z" fill="#129412"/>
<path d="M16.7321 19.9648C16.8374 20.0843 16.9428 20.2037 17.0561 20.3368C16.5363 20.7074 16.0117 21.069 15.4779 21.4165C15.3814 21.4793 15.2472 21.4842 15.1118 21.5127C15.0153 21.3543 14.9373 21.1992 14.8789 21.0235C15.0976 20.9412 15.3193 20.9162 15.4913 20.8104C15.917 20.5482 16.32 20.2491 16.7321 19.9648Z" fill="#129412"/>
<path d="M20.0345 9.36899C19.8988 9.27322 19.7783 9.16928 19.6484 9.03367C19.6547 8.874 19.6824 8.74615 19.684 8.61797C19.6912 8.02661 19.6912 7.43517 19.6938 6.84375C19.8503 6.95074 20.0068 7.05772 20.1785 7.16828C20.1963 7.73715 20.2102 8.30279 20.1943 8.86758C20.1896 9.03322 20.1002 9.19647 20.0345 9.36899Z" fill="#129412"/>
<path d="M11.1481 10.6409C11.1503 11.3607 11.1525 12.0806 11.1349 12.8212C10.9595 12.7333 10.8038 12.6246 10.6448 12.4941C10.6437 11.7369 10.6459 11.0013 10.6633 10.2695C10.737 10.3309 10.7904 10.3953 10.8552 10.4447C10.9485 10.5158 11.0501 10.576 11.1481 10.6409Z" fill="#129412"/>
<path d="M6.17919 7.92172C6.07369 7.85142 5.96819 7.78112 5.853 7.70436C5.80115 7.7778 5.75424 7.84426 5.69323 7.91623C5.67653 7.30947 5.66421 6.69701 5.67749 6.0851C5.68128 5.91048 5.75936 5.73748 5.82735 5.55078C5.99189 5.61368 6.13245 5.68953 6.26989 5.78369C6.24022 5.97316 6.19462 6.14388 6.19067 6.31555C6.17837 6.85075 6.18184 7.3863 6.17919 7.92172Z" fill="#129412"/>
<path d="M5.37272 14.3398C5.51093 14.4568 5.632 14.5761 5.75246 14.7242C5.52905 14.8674 5.29608 14.9659 5.08569 15.0998C4.7136 15.3367 4.35525 15.5952 3.97738 15.8368C3.84422 15.7234 3.72485 15.6179 3.60547 15.5124C4.18884 15.1224 4.77221 14.7323 5.37272 14.3398Z" fill="#129412"/>
<path d="M15.2273 3.98393C15.0707 3.84572 14.9142 3.7075 14.7424 3.56568C14.6524 2.89812 14.873 2.3424 15.3469 1.88143C15.4008 1.82902 15.4675 1.78975 15.543 1.73828C15.6628 1.85149 15.7679 1.97081 15.8776 2.11521C15.6088 2.30447 15.3989 2.54098 15.3382 2.84509C15.264 3.21728 15.2611 3.60368 15.2273 3.98393Z" fill="#129412"/>
<path d="M8.20084 20.0586C8.29426 20.1914 8.38769 20.3242 8.48152 20.4743C7.94752 20.8647 7.41312 21.2379 6.86207 21.6137C6.73274 21.5043 6.62005 21.3924 6.50391 21.2603C6.7045 21.0946 6.90684 20.9465 7.11296 20.8038C7.47437 20.5536 7.83809 20.3068 8.20084 20.0586Z" fill="#129412"/>
<path d="M3.58742 15.5195C3.7216 15.6185 3.84098 15.724 3.96731 15.8522C3.91331 15.9205 3.85333 15.9674 3.79124 16.0114C3.29331 16.3638 2.79497 16.7156 2.29676 17.0677C2.19138 16.9482 2.086 16.8288 1.97266 16.6956C2.50067 16.2966 3.03665 15.9113 3.58742 15.5195Z" fill="#129412"/>
<path d="M11.1516 10.62C11.0503 10.5768 10.9487 10.5166 10.8554 10.4455C10.7906 10.3961 10.7373 10.3317 10.6602 10.2487C10.6413 10.0762 10.6404 9.92897 10.6407 9.78176C10.6413 9.45289 10.7176 9.38036 11.0428 9.3749C11.3207 9.37023 11.6106 9.43064 11.8646 9.25781C11.9606 9.40242 12.0515 9.53262 12.1425 9.66281C11.872 9.93983 11.5154 9.8811 11.1549 9.89649C11.1549 10.1383 11.1549 10.3683 11.1516 10.62Z" fill="#129412"/>
<path d="M12.1568 9.65489C12.0508 9.53158 11.9598 9.40139 11.8789 9.24858C12.0633 8.99561 12.1009 8.73204 12.0953 8.45092C12.088 8.08725 12.0981 7.72324 12.1007 7.35938C12.2436 7.45106 12.3866 7.54274 12.5455 7.65965C12.5743 8.02891 12.5873 8.37295 12.6003 8.71698C12.5646 8.99607 12.5387 9.27891 12.3299 9.49757C12.2797 9.5501 12.2247 9.59798 12.1568 9.65489Z" fill="#129412"/>
<path d="M18.8023 15.1443C18.6936 15.0313 18.5849 14.9183 18.4727 14.7902C18.9469 14.4282 19.4246 14.0813 19.915 13.7266C20.0588 13.8292 20.1901 13.9397 20.3279 14.073C20.1851 14.1986 20.036 14.3019 19.8863 14.4042C19.5251 14.6512 19.1637 14.8977 18.8023 15.1443Z" fill="#129412"/>
<path d="M21.2068 17.3934C21.0838 17.2771 20.9774 17.1583 20.8711 17.0102C21.0413 16.8672 21.2246 16.7688 21.3786 16.6364C21.6551 16.3986 21.914 16.1403 22.1803 15.8906C22.3204 15.968 22.4605 16.0455 22.617 16.1239C22.4934 16.4671 22.2108 16.6832 21.9327 16.8978C21.705 17.0734 21.4605 17.2273 21.2068 17.3934Z" fill="#129412"/>
<path d="M10.6503 12.5156C10.8061 12.6243 10.9618 12.733 11.1339 12.8427C11.168 13.2456 10.8093 13.6295 10.4 13.6396C10.1674 13.6453 9.93448 13.6399 9.67997 13.6362C9.53564 13.4764 9.41304 13.3199 9.30859 13.1449C9.65306 13.126 9.97939 13.1277 10.3057 13.1243C10.4913 13.1224 10.6351 12.9779 10.6422 12.7948C10.6458 12.7017 10.6477 12.6087 10.6503 12.5156Z" fill="#129412"/>
<path d="M6.27338 5.76463C6.13282 5.68878 5.99225 5.61293 5.83594 5.53373C6.01419 5.14297 6.33242 4.94225 6.76058 4.92311C7.00772 4.91206 7.25579 4.92171 7.52518 4.92545C7.65404 5.08507 7.76117 5.24127 7.84991 5.4166C7.54595 5.43605 7.25928 5.4521 6.97509 5.43244C6.67016 5.41135 6.44208 5.51607 6.27338 5.76463Z" fill="#129412"/>
<path d="M8.27282 1.54688C8.39665 1.6644 8.50314 1.78279 8.60987 1.92976C8.11843 2.14965 7.8116 2.51177 7.64468 3.00317C7.51948 2.87108 7.39429 2.73899 7.26562 2.5909C7.45542 2.09921 7.78845 1.75869 8.27282 1.54688Z" fill="#129412"/>
<path d="M12.6052 8.69638C12.5886 8.3739 12.5756 8.02987 12.5625 7.66389C12.5693 7.12235 12.5763 6.60274 12.5926 6.06641C12.6042 6.92473 12.6065 7.79978 12.6052 8.69638Z" fill="#129412"/>
<path d="M14.947 18.4131C14.4994 18.9405 13.9353 19.1219 13.2632 18.9883C12.9958 18.9352 12.7252 18.8978 12.4353 18.8293C12.2764 18.6331 12.1382 18.4609 12 18.2888C12.3611 18.342 12.7259 18.3778 13.0825 18.4525C13.6571 18.5729 14.1776 18.5312 14.6051 18.0508C14.726 18.1628 14.8326 18.281 14.947 18.4131Z" fill="#129412"/>
<path d="M16.2188 4.946C16.8282 4.92717 17.4387 4.92487 18.071 4.92603C18.1445 5.01691 18.1921 5.10708 18.2491 5.19091C18.2987 5.26373 18.3587 5.32938 18.4175 5.41385C17.7947 5.43174 17.1686 5.43397 16.5207 5.43287C16.4059 5.27387 16.3128 5.11819 16.2188 4.946Z" fill="#129412"/>
<path d="M11.9835 18.2802C12.1388 18.4612 12.2771 18.6333 12.4189 18.8207C12.0749 18.7901 11.726 18.7519 11.3798 18.697C10.8383 18.6111 10.2974 18.5199 9.75906 18.4162C9.6556 18.3963 9.53937 18.3277 9.47823 18.2452C9.44031 18.194 9.4701 18.0567 9.51616 17.9906C9.55331 17.9372 9.66358 17.9033 9.73583 17.9113C10.0541 17.9465 10.3711 17.9956 10.6872 18.0478C11.1142 18.1184 11.5401 18.1965 11.9835 18.2802Z" fill="#129412"/>
</svg>
