<svg width="24" height="24" viewBox="0 0 24 24" fill="none" xmlns="http://www.w3.org/2000/svg">
<g clip-path="url(#clip0_409_2881)">
<path d="M6.757 8C6 8 5.476 8.587 5.372 9.167L4 16H5.007L5.412 14H8.072L8.484 16H9.499L8.102 9.193C7.982 8.525 7.513 8.001 6.756 8.001L6.757 8ZM5.615 13L6.356 9.343C6.375 9.236 6.502 9.001 6.756 9.001C6.844 9.001 7.051 9.001 7.122 9.394L7.865 13H5.615ZM11 10.5V13.5C11 14.328 11.672 15 12.5 15C13.328 15 14 14.328 14 13.5V13H12.5V12H15V13.6H14.989C14.932 14.93 13.844 15.993 12.5 15.993C11.119 15.993 10 14.874 10 13.493V10.493C10 9.112 11.119 7.993 12.5 7.993C13.881 7.993 15 9.112 15 10.493H13.999C13.995 9.668 13.326 9 12.5 9C11.674 9 11 9.672 11 10.5ZM24 12C24 18.617 18.617 24 12 24C5.383 24 0 18.617 0 12C0 5.383 5.383 0 12 0C15.49 0 18.719 1.491 21 4.091V0H22V4.5C22 5.327 21.327 6 20.5 6H16V5H20.466C18.366 2.46 15.31 1 12 1C5.935 1 1 5.935 1 12C1 18.065 5.935 23 12 23C18.065 23 23 18.065 23 12H24ZM17 9V11.5H19.5V12.5H17V15H19.5V16H16V8H19.5V9H17Z" fill="#129412"/>
</g>
<defs>
<clipPath id="clip0_409_2881">
<rect width="24" height="24" fill="white"/>
</clipPath>
</defs>
</svg>
