<svg width="24" height="24" viewBox="0 0 24 24" fill="none" xmlns="http://www.w3.org/2000/svg">
<path d="M9.34863 2.83301C9.84243 2.53156 10.4375 2.43172 11.2402 2.56836L9.19922 7.32031H7.11914C6.99293 7.32031 6.86659 7.32281 6.74023 7.3291L7.41113 5.72168L7.41016 5.7207L7.44629 5.64258L7.45215 5.62891L7.45703 5.61523L7.51758 5.45508C7.52351 5.44085 7.52958 5.42741 7.53418 5.41602C7.54146 5.39799 7.546 5.38647 7.55078 5.375C7.56055 5.35155 7.56161 5.35077 7.55762 5.35742L7.5752 5.32812L7.58789 5.29785C8.15576 3.98099 8.71968 3.21697 9.34863 2.83301Z" stroke="#129412"/>
<path d="M15.3574 4.08008L15.3594 4.08105C16.5599 4.57883 17.3278 5.06872 17.7803 5.61133C17.8636 5.7227 17.9298 5.81566 17.9951 5.92188L18.001 5.92969C18.0733 6.04226 18.1153 6.13467 18.1377 6.21875L18.1484 6.25684L18.1641 6.29297C18.1967 6.36645 18.2126 6.41278 18.2227 6.45801L18.2266 6.47461L18.2314 6.49023C18.3159 6.77723 18.3467 7.10208 18.3174 7.46875C17.8459 7.37106 17.3667 7.31934 16.8809 7.31934H11.3809L13.1689 3.15918L15.3574 4.08008Z" stroke="#129412"/>
<mask id="path-3-inside-1_414_8175" fill="white">
<path d="M12.5195 17.6601H12.7695C13.0695 17.6601 13.3195 17.3901 13.3195 17.0601C13.3195 16.6401 13.1995 16.5801 12.9395 16.4801L12.5195 16.3301V17.6601Z"/>
</mask>
<path d="M12.5195 17.6601H11.5195V18.6601H12.5195V17.6601ZM12.9395 16.4801L13.2985 15.5467L13.2872 15.5424L13.2759 15.5383L12.9395 16.4801ZM12.5195 16.3301L12.8559 15.3883L11.5195 14.9111V16.3301H12.5195ZM12.5195 17.6601V18.6601H12.7695V17.6601V16.6601H12.5195V17.6601ZM12.7695 17.6601V18.6601C13.6991 18.6601 14.3195 17.8617 14.3195 17.0601H13.3195H12.3195C12.3195 16.9715 12.3531 16.8807 12.4209 16.807C12.4891 16.7328 12.6099 16.6601 12.7695 16.6601V17.6601ZM13.3195 17.0601H14.3195C14.3195 16.7963 14.2917 16.3885 14.0151 16.0344C13.7542 15.7005 13.3809 15.5784 13.2985 15.5467L12.9395 16.4801L12.5806 17.4134C12.6509 17.4405 12.6469 17.4411 12.6273 17.4304C12.5948 17.4125 12.5146 17.3625 12.439 17.2657C12.3626 17.1679 12.3327 17.0763 12.3224 17.0315C12.3142 16.9962 12.3195 16.9958 12.3195 17.0601H13.3195ZM12.9395 16.4801L13.2759 15.5383L12.8559 15.3883L12.5195 16.3301L12.1832 17.2718L12.6032 17.4218L12.9395 16.4801ZM12.5195 16.3301H11.5195V17.6601H12.5195H13.5195V16.3301H12.5195Z" fill="#129412" mask="url(#path-3-inside-1_414_8175)"/>
<path d="M7.11816 9.82031H16.8779C17.3178 9.82031 17.7399 9.8826 18.1445 9.99902C19.9407 10.5478 21.2578 12.2188 21.2578 14.2002V16.1504C21.2578 16.3352 21.2493 16.5226 21.2393 16.7129C21.1489 18.3767 20.6458 19.5491 19.7998 20.3115C18.9495 21.0777 17.6751 21.5 15.8984 21.5H8.09863C7.87617 21.5 7.66838 21.4822 7.45312 21.4541L7.4375 21.4521L7.4209 21.4512C5.91213 21.3515 4.82171 20.9036 4.08203 20.165C3.34224 19.4263 2.89159 18.3355 2.78711 16.8262L2.78613 16.8125L2.78418 16.7979C2.75568 16.5698 2.73829 16.3622 2.73828 16.1504V14.2002L2.75098 13.8652C2.87695 12.2068 3.93038 10.8019 5.39648 10.1699L5.39746 10.1689C5.93206 9.93735 6.50395 9.82033 7.11816 9.82031ZM11.998 11.2607C11.5254 11.2608 11.1309 11.5768 11.0137 12.0107C9.94756 12.1206 9.13867 13.0414 9.13867 14.1406C9.13873 14.7764 9.32797 15.2499 9.63281 15.5908C9.73957 15.7101 9.85603 15.807 9.97266 15.8867C9.4961 15.9732 9.13867 16.3879 9.13867 16.8906C9.13882 18.0208 9.94133 18.9768 11.0078 19.1641C11.1162 19.6111 11.5162 19.9403 11.998 19.9404C12.4708 19.9404 12.8642 19.6235 12.9814 19.1895C14.0482 19.0803 14.8583 18.1602 14.8584 17.0605C14.8584 16.4244 14.6684 15.9504 14.3633 15.6094C14.256 15.4895 14.1396 15.3924 14.0225 15.3125C14.4995 15.2265 14.8583 14.8136 14.8584 14.3105C14.8584 13.1797 14.0547 12.2217 12.9873 12.0352C12.8783 11.5889 12.4794 11.2607 11.998 11.2607Z" stroke="#129412"/>
<mask id="path-6-inside-2_414_8175" fill="white">
<path d="M10.6797 14.1391C10.6797 14.5591 10.7997 14.6191 11.0597 14.7191L11.4797 14.8691V13.5391H11.2297C10.9197 13.5391 10.6797 13.8091 10.6797 14.1391Z"/>
</mask>
<path d="M11.0597 14.7191L10.7007 15.6524L10.712 15.6567L10.7234 15.6608L11.0597 14.7191ZM11.4797 14.8691L11.1434 15.8108L12.4797 16.2881V14.8691H11.4797ZM11.4797 13.5391H12.4797V12.5391H11.4797V13.5391ZM11.2297 13.5391V14.5391V13.5391ZM10.6797 14.1391H9.67969C9.67969 14.4028 9.70753 14.8106 9.98416 15.1647C10.245 15.4986 10.6183 15.6207 10.7007 15.6524L11.0597 14.7191L11.4187 13.7857C11.3483 13.7586 11.3523 13.758 11.3719 13.7687C11.4044 13.7866 11.4846 13.8366 11.5602 13.9334C11.6366 14.0312 11.6665 14.1229 11.6768 14.1676C11.685 14.2029 11.6797 14.2033 11.6797 14.1391H10.6797ZM11.0597 14.7191L10.7234 15.6608L11.1434 15.8108L11.4797 14.8691L11.816 13.9273L11.396 13.7773L11.0597 14.7191ZM11.4797 14.8691H12.4797V13.5391H11.4797H10.4797V14.8691H11.4797ZM11.4797 13.5391V12.5391H11.2297V13.5391V14.5391H11.4797V13.5391ZM11.2297 13.5391V12.5391C10.2788 12.5391 9.67969 13.3497 9.67969 14.1391H10.6797H11.6797C11.6797 14.2163 11.6513 14.3077 11.5788 14.3876C11.5031 14.4709 11.3784 14.5391 11.2297 14.5391V13.5391Z" fill="#129412" mask="url(#path-6-inside-2_414_8175)"/>
</svg>
