<svg width="25" height="24" viewBox="0 0 25 24" fill="none" xmlns="http://www.w3.org/2000/svg">
<g clip-path="url(#clip0_414_8202)">
<path d="M20.1284 15.151C20.7554 14.511 21.5014 13.533 21.5014 12.487V11.987H16.5014V12.487C16.5014 13.533 17.2464 14.511 17.8744 15.151C15.5334 15.806 13.5014 18.379 13.5014 20.999C13.5014 22.646 14.8474 23.987 16.5014 23.987H21.5014C23.1554 23.987 24.5014 22.646 24.5014 20.999C24.5014 18.379 22.4694 15.806 20.1284 15.151ZM17.5924 12.987H20.4104C20.1654 13.7 19.4784 14.422 19.0014 14.841C18.5234 14.422 17.8374 13.7 17.5924 12.987ZM21.5014 22.987H16.5014C15.3984 22.987 14.5014 22.095 14.5014 20.999C14.5014 18.573 16.8234 16.111 19.0014 15.999C21.1794 16.111 23.5014 18.573 23.5014 20.999C23.5014 22.096 22.6044 22.987 21.5014 22.987ZM14.5014 12.487V11.999H1.50137C1.50437 11.52 1.76737 11.08 2.18637 10.852L9.97838 6.662C10.1384 6.576 10.3194 6.531 10.5014 6.531C10.6834 6.531 10.8644 6.576 11.0234 6.662L17.2094 9.988H19.3134C19.3054 9.983 19.2994 9.976 19.2904 9.971L11.4974 5.781C11.3414 5.697 11.1744 5.635 11.0014 5.593V4.79L14.9724 2.521L10.9734 0H10.0014V5.593C9.82938 5.635 9.66237 5.697 9.50537 5.781L1.70937 9.972C0.963375 10.378 0.501375 11.159 0.501375 12.007V12.999H2.50137V20.999H0.504375L0.484375 23.996L1.48438 24.002L1.49738 21.999H11.6024C11.5364 21.676 11.5014 21.341 11.5014 20.999H9.50138V12.999H11.5014V20.999C11.5014 19.688 11.8734 18.401 12.5014 17.254V12.999H14.5564C14.5354 12.829 14.5014 12.664 14.5014 12.487ZM11.0014 1.199L13.0304 2.477L11.0014 3.637V1.199ZM5.50138 20.999H3.50137V12.999H5.50138V20.999ZM8.50138 20.999H6.50138V12.999H8.50138V20.999Z" fill="#129412"/>
</g>
<defs>
<clipPath id="clip0_414_8202">
<rect width="24" height="24" fill="white" transform="translate(0.5)"/>
</clipPath>
</defs>
</svg>
