<svg width="24" height="24" viewBox="0 0 24 24" fill="none" xmlns="http://www.w3.org/2000/svg">
<path opacity="0.972" fill-rule="evenodd" clip-rule="evenodd" d="M19.5548 1.0564C14.7423 1.13159 9.92971 1.13159 5.11719 1.0564C9.92971 0.981201 14.7423 0.981201 19.5548 1.0564Z" fill="#129412"/>
<path fill-rule="evenodd" clip-rule="evenodd" d="M4.60826 1.11328C4.56687 1.1814 4.54809 1.2566 4.55187 1.33887C4.72867 1.30429 4.89786 1.24789 5.05944 1.16968C9.62714 1.17226 14.1953 1.17226 18.7639 1.16968C19.1211 1.18848 19.4783 1.20728 19.8354 1.22608C19.7003 1.31594 19.5687 1.35353 19.4407 1.33887C19.644 1.39744 19.8508 1.43504 20.061 1.45166C20.061 1.39527 20.061 1.33887 20.061 1.28247C20.1753 1.27333 20.2881 1.28273 20.3994 1.31067C20.4466 1.3677 20.4654 1.4335 20.4558 1.50806C20.3806 1.50806 20.3054 1.50806 20.2302 1.50806C20.2302 1.56446 20.2302 1.62085 20.2302 1.67725C20.4446 1.6423 20.6326 1.6893 20.7942 1.81824C20.647 1.77492 20.5061 1.74672 20.3712 1.73365C20.3533 1.82168 20.3063 1.88748 20.2302 1.93104C20.249 1.94983 20.2678 1.96864 20.2866 1.98743C20.235 2.00854 20.1879 2.03674 20.1456 2.07203C19.8358 2.03457 19.5444 1.94058 19.2715 1.79004C19.1723 1.82546 19.0877 1.88185 19.0177 1.95924C18.9895 1.93104 18.9613 1.90284 18.9331 1.87464C18.4329 1.83 17.9347 1.8394 17.4386 1.90284C17.3675 1.88823 17.3111 1.85063 17.2694 1.79004C17.1331 1.8381 16.9921 1.8757 16.8464 1.90284C16.1632 1.88966 15.4864 1.88966 14.8161 1.90284C14.7127 1.90765 14.6376 1.94525 14.5905 2.01563C14.0237 2.07647 13.4785 2.07647 12.955 2.01563C10.9344 1.95933 8.90408 1.94052 6.86414 1.95924C6.64143 1.89371 6.40642 1.85611 6.15918 1.84644C5.81166 1.87752 5.46386 1.90571 5.11584 1.93104C4.6862 1.99598 4.27265 2.09938 3.8751 2.24122C3.86552 2.16666 3.88432 2.10087 3.9315 2.04383C4.24924 2.00807 4.26808 1.97987 3.9879 1.95924C4.00476 1.84058 3.98598 1.72778 3.9315 1.62085C3.50083 1.77781 3.48202 1.73081 3.8751 1.47986C4.00143 1.42476 4.13301 1.39656 4.26988 1.39527C4.26988 1.33887 4.26988 1.28247 4.26988 1.22608C4.37822 1.17742 4.49101 1.13983 4.60826 1.11328Z" fill="#129412"/>
<path fill-rule="evenodd" clip-rule="evenodd" d="M5.11523 1.05469C9.92775 1.12988 14.7403 1.12988 19.5528 1.05469C21.5797 1.31669 22.8957 2.42583 23.5006 4.38211C23.4442 4.38211 23.3878 4.38211 23.3314 4.38211C23.3046 4.09488 23.2106 3.8317 23.0495 3.59255C22.9931 3.61135 22.9554 3.64895 22.9367 3.70534C23.033 3.89151 23.0989 4.07948 23.134 4.26931C23.0817 4.3728 23.016 4.39158 22.9367 4.32571C22.8793 4.45751 22.7853 4.55152 22.6547 4.60769C22.784 5.07754 22.8592 5.55691 22.8803 6.04582C22.8796 8.31478 22.8796 10.5707 22.8803 12.8134C22.8708 13.0296 22.8615 13.2458 22.8521 13.462C22.8364 13.5137 22.8082 13.5512 22.7675 13.5748C22.7769 10.8301 22.7675 8.08547 22.7393 5.34086C22.7205 5.22806 22.7017 5.11527 22.6829 5.00247C22.6548 5.13275 22.6455 5.26432 22.6547 5.39725C22.5573 4.31906 22.0873 3.43549 21.2448 2.7466C21.2181 2.66728 21.1617 2.62968 21.0756 2.6338C20.5114 2.27745 19.8911 2.08006 19.2145 2.04163C17.6643 2.01668 16.1228 2.00729 14.5899 2.01344C14.6369 1.94306 14.7121 1.90546 14.8155 1.90064C15.4858 1.88747 16.1626 1.88747 16.8458 1.90064C16.9915 1.8735 17.1325 1.8359 17.2688 1.78785C17.3104 1.84843 17.3668 1.88603 17.438 1.90064C17.9341 1.8372 18.4323 1.8278 18.9325 1.87244C18.9607 1.90064 18.9889 1.92884 19.0171 1.95704C19.0871 1.87966 19.1717 1.82326 19.2709 1.78785C19.5438 1.93838 19.8352 2.03237 20.145 2.06983C20.1873 2.03454 20.2343 2.00634 20.286 1.98524C20.2672 1.96644 20.2484 1.94764 20.2296 1.92884C20.3057 1.88528 20.3527 1.81948 20.3706 1.73145C20.5054 1.74452 20.6464 1.77272 20.7936 1.81605C20.632 1.68711 20.444 1.6401 20.2296 1.67505C20.2296 1.61866 20.2296 1.56226 20.2296 1.50586C20.3048 1.50586 20.38 1.50586 20.4552 1.50586C20.4648 1.4313 20.446 1.36551 20.3988 1.30847C20.2875 1.28053 20.1747 1.27113 20.0604 1.28028C20.0604 1.33667 20.0604 1.39307 20.0604 1.44947C19.8502 1.43285 19.6434 1.39525 19.44 1.33667C19.5681 1.35134 19.6997 1.31374 19.8348 1.22388C19.4777 1.20508 19.1204 1.18628 18.7633 1.16748C14.1947 1.17006 9.62653 1.17006 5.05883 1.16748C4.89725 1.24569 4.72806 1.30209 4.55126 1.33667C4.54748 1.25441 4.56626 1.17921 4.60765 1.11108C4.77431 1.07394 4.9435 1.05513 5.11523 1.05469Z" fill="#129412"/>
<path fill-rule="evenodd" clip-rule="evenodd" d="M4.27175 1.22656C4.27175 1.28296 4.27175 1.33936 4.27175 1.39575C4.13487 1.39705 4.0033 1.42525 3.87697 1.48035C3.48389 1.7313 3.50269 1.7783 3.93337 1.62134C3.98785 1.72827 4.00663 1.84106 3.98977 1.95972C4.26995 1.98036 4.25111 2.00856 3.93337 2.04432C3.88619 2.10135 3.86738 2.16715 3.87697 2.24171C4.27451 2.09986 4.68807 1.99647 5.1177 1.93152C5.46573 1.9062 5.81353 1.878 6.16105 1.84693C6.40829 1.8566 6.6433 1.8942 6.86601 1.95972C6.86601 1.97852 6.86601 1.99732 6.86601 2.01612C6.40513 2.01495 5.93518 2.02434 5.45609 2.04432C4.77949 2.08274 4.15913 2.28013 3.59499 2.63649C3.49627 2.45465 3.55267 2.35125 3.76418 2.3263C3.67751 2.26372 3.63991 2.17913 3.65138 2.07252C3.58512 2.06017 3.52872 2.07896 3.48219 2.12891C3.45895 2.26352 3.40255 2.37631 3.313 2.4673C3.21942 2.32072 3.12543 2.17033 3.03102 2.01612C2.97766 2.04357 2.92126 2.06237 2.86183 2.07252C2.71132 2.17631 2.57033 2.2891 2.43885 2.4109C2.41102 2.50306 2.40162 2.59705 2.41065 2.69288C2.32731 2.67811 2.25211 2.6969 2.18506 2.74928C1.99318 2.94116 1.80519 3.12915 1.62109 3.31325C2.22423 2.25867 3.10778 1.5631 4.27175 1.22656Z" fill="#129412"/>
<path opacity="0.681" fill-rule="evenodd" clip-rule="evenodd" d="M6.86719 2.01262C6.86719 1.99382 6.86719 1.97502 6.86719 1.95622C8.90712 1.93751 10.9374 1.95631 12.9581 2.01262C10.8886 2.06589 8.85828 2.06589 6.86719 2.01262Z" fill="#129412"/>
<path fill-rule="evenodd" clip-rule="evenodd" d="M3.59255 2.63599C2.5276 3.41236 2.00123 4.46511 2.01344 5.79422C1.97584 5.79422 1.95704 5.813 1.95704 5.85062C1.88272 10.3914 1.88272 14.9407 1.95704 19.4987C1.96833 19.7947 2.03413 20.0767 2.15443 20.3446C2.21718 20.39 2.28298 20.4276 2.35182 20.4574C2.97755 21.6478 3.95507 22.3246 5.28446 22.4877C5.18864 22.4787 5.09463 22.4881 5.00247 22.5159C5.04009 22.5347 5.07765 22.5535 5.11527 22.5723C9.90895 22.6005 14.7027 22.6099 19.4965 22.6005C19.7874 22.6738 20.0882 22.7208 20.3988 22.7415C20.2255 22.8296 20.0563 22.9237 19.8913 23.0235C19.9382 23.0705 19.9853 23.1175 20.0323 23.1645C20.0728 23.1108 20.1197 23.1015 20.1733 23.1363C20.126 23.1933 20.1073 23.2591 20.1169 23.3337C14.9453 23.3993 9.77557 23.4087 4.6077 23.3619C4.65935 23.3775 4.69692 23.4057 4.72049 23.4465C2.48844 22.911 1.2665 21.5011 1.05469 19.2167C1.10257 14.4121 1.13077 9.59949 1.13928 4.77908C1.12744 4.86694 1.09924 4.94212 1.05469 5.00466C1.12142 4.3909 1.3094 3.82691 1.61866 3.31275C1.80275 3.12866 1.99074 2.94067 2.18263 2.74879C2.24967 2.69641 2.32487 2.67761 2.40821 2.69239C2.39918 2.59656 2.40858 2.50256 2.43641 2.4104C2.56789 2.28861 2.70888 2.17581 2.85939 2.07202C2.91883 2.06188 2.97522 2.04307 3.02858 2.01562C3.12299 2.16984 3.21699 2.32022 3.31057 2.4668C3.40012 2.37582 3.45652 2.26302 3.47976 2.12842C3.52628 2.07847 3.58268 2.05967 3.64895 2.07202C3.63747 2.17863 3.67507 2.26323 3.76174 2.32581C3.55023 2.35076 3.49383 2.45415 3.59255 2.63599Z" fill="#129412"/>
<path opacity="0.349" fill-rule="evenodd" clip-rule="evenodd" d="M21.0742 2.63312C21.1603 2.629 21.2167 2.6666 21.2434 2.74591C21.1573 2.75003 21.1009 2.71243 21.0742 2.63312Z" fill="#129412"/>
<path fill-rule="evenodd" clip-rule="evenodd" d="M11.2097 3.3125C12.5733 3.46635 13.1655 4.21829 12.9862 5.56838C12.7056 6.37621 12.1416 6.78977 11.2943 6.80911C10.2162 6.71803 9.64291 6.13528 9.57422 5.06081C9.63558 4.02197 10.1808 3.43921 11.2097 3.3125Z" fill="#129412"/>
<path fill-rule="evenodd" clip-rule="evenodd" d="M23.5061 4.38331C23.5787 4.56366 23.6163 4.75164 23.6189 4.94728C23.5744 4.88473 23.5462 4.80956 23.5343 4.72169C23.5804 9.74158 23.571 14.7609 23.5061 19.7797C23.4688 19.8484 23.4312 19.9235 23.3933 20.0053C23.2938 20.0163 23.2092 20.0163 23.1395 20.0053C23.0506 19.8175 23.013 19.6295 23.0267 19.4413C22.9586 19.6501 22.8834 19.8569 22.8011 20.0617C22.7546 19.8759 22.7264 19.688 22.7166 19.4977C22.771 17.5249 22.7899 15.551 22.773 13.576C22.8137 13.5524 22.8419 13.5149 22.8575 13.4632C22.867 13.247 22.8763 13.0308 22.8857 12.8147C22.8851 10.5719 22.8851 8.31598 22.8857 6.04702C22.8647 5.55811 22.7895 5.07874 22.6602 4.60889C22.7908 4.55272 22.8848 4.45871 22.9421 4.32691C23.0214 4.39278 23.0872 4.374 23.1395 4.27051C23.1043 4.08068 23.0385 3.89271 22.9421 3.70654C22.9609 3.65015 22.9985 3.61255 23.0549 3.59375C23.2161 3.8329 23.3101 4.09608 23.3369 4.38331C23.3933 4.38331 23.4497 4.38331 23.5061 4.38331Z" fill="#129412"/>
<path opacity="0.987" fill-rule="evenodd" clip-rule="evenodd" d="M1.95808 5.84766C1.93935 8.52668 1.95815 11.1961 2.01448 13.856C2.01448 15.6043 2.01448 17.3526 2.01448 19.1009C2.03149 19.2453 2.01268 19.3769 1.95808 19.4957C1.88377 14.9377 1.88377 10.3884 1.95808 5.84766Z" fill="#129412"/>
<path opacity="0.949" fill-rule="evenodd" clip-rule="evenodd" d="M22.7671 13.5762C22.784 15.5513 22.7652 17.5252 22.7107 19.4979C22.6565 19.3984 22.6377 19.2856 22.6543 19.1595C22.6543 14.5726 22.6543 9.98562 22.6543 5.39868C22.6451 5.26576 22.6545 5.13418 22.6825 5.00391C22.7013 5.1167 22.7201 5.22949 22.7389 5.34229C22.7671 8.0869 22.7765 10.8315 22.7671 13.5762Z" fill="#129412"/>
<path fill-rule="evenodd" clip-rule="evenodd" d="M15.0961 11.8819C14.0246 11.8819 12.953 11.8819 11.8815 11.8819C11.8815 12.0134 11.8815 12.1451 11.8815 12.2767C11.8815 12.4082 11.8815 12.5399 11.8815 12.6714C11.909 12.7263 11.9372 12.7827 11.9661 12.8406C13.0615 12.7846 14.1613 12.7658 15.2653 12.7842C15.5918 12.8018 15.8644 12.9333 16.0831 13.179C16.4437 13.7931 16.7915 14.4135 17.1264 15.0401C17.1495 15.4435 17.3093 15.7819 17.6058 16.0552C17.6246 16.1304 17.6434 16.2057 17.6622 16.2808C17.7056 16.2189 17.7526 16.2189 17.8032 16.2808C18.0142 16.6461 18.2397 17.0033 18.4799 17.3524C18.7875 17.2228 19.0882 17.0818 19.3823 16.9294C19.5327 16.8918 19.6831 16.8918 19.8335 16.9294C19.8851 16.9451 19.9227 16.9733 19.9463 17.014C20.0846 17.2162 20.1598 17.4418 20.1718 17.6908C20.135 17.906 20.0222 18.0657 19.8335 18.1701C19.3127 18.4399 18.7863 18.6937 18.2543 18.9315C18.069 18.9714 17.8811 18.9901 17.6904 18.9879C17.4343 18.8919 17.2369 18.7227 17.0982 18.4803C16.5455 17.5059 16.0097 16.5284 15.4909 15.5477C15.4604 15.243 15.3852 14.9704 15.2653 14.7299C13.6483 14.7205 12.0316 14.6923 10.4152 14.6453C10.4034 14.6123 10.3845 14.5841 10.3588 14.5607C10.1682 14.5416 9.98018 14.5134 9.79481 14.4761C9.42157 14.2423 9.18656 13.9039 9.08984 13.461C9.16649 11.6725 9.29806 9.88655 9.48462 8.10328C9.71506 7.50299 10.1569 7.18339 10.81 7.14453C11.663 7.22687 12.1142 7.69683 12.1635 8.55445C12.1098 9.21419 12.0534 9.87217 11.9943 10.5283C13.0474 10.5691 14.1001 10.6161 15.1525 10.6693C15.4112 10.7917 15.524 10.9985 15.4909 11.2897C15.5323 11.6128 15.4007 11.8102 15.0961 11.8819Z" fill="#129412"/>
<path opacity="0.939" fill-rule="evenodd" clip-rule="evenodd" d="M8.72658 8.38778C8.76961 8.43109 8.826 8.45929 8.89577 8.47238C8.23017 8.46764 7.57219 8.43944 6.92188 8.38778C7.51793 8.31345 8.11946 8.31345 8.72658 8.38778Z" fill="#129412"/>
<path fill-rule="evenodd" clip-rule="evenodd" d="M6.92018 8.38444C7.57049 8.4361 8.22848 8.4643 8.89407 8.46903C8.82431 8.45595 8.76791 8.42775 8.72488 8.38444C8.82595 8.37688 8.9199 8.39566 9.00687 8.44084C9.05892 8.81356 9.0777 9.18956 9.06326 9.56877C8.88042 9.78122 8.65484 9.83762 8.3865 9.73797C8.23727 9.70052 8.0775 9.68168 7.90713 9.68157C7.72372 9.68264 7.56395 9.72026 7.42775 9.79436C7.21508 10.1955 7.02711 10.6091 6.86378 11.0351C6.7154 10.9579 6.67779 10.9955 6.75099 11.1479C6.73148 11.2153 6.70328 11.2153 6.66639 11.1479C6.65557 11.265 6.62737 11.3778 6.5818 11.4863C6.53127 11.4295 6.49371 11.4295 6.469 11.4863C6.51463 11.5749 6.53347 11.6689 6.5254 11.7683C6.48649 11.9305 6.39247 12.0433 6.24342 12.1066C6.1313 12.1251 6.01851 12.1439 5.90504 12.163C5.76026 12.0974 5.60985 12.0598 5.45386 12.0502C5.30796 11.9167 5.214 11.7475 5.17188 11.5427C5.39194 10.8395 5.67392 10.1627 6.01783 9.51238C6.10942 9.39439 6.20343 9.27218 6.29981 9.1458C6.2574 9.10795 6.23857 9.06098 6.24342 9.0048C6.32688 8.64341 6.55247 8.43661 6.92018 8.38444Z" fill="#129412"/>
<path opacity="0.592" fill-rule="evenodd" clip-rule="evenodd" d="M9.00781 8.44531C9.04261 8.45157 9.07081 8.47035 9.09241 8.50171C9.13865 8.86908 9.12924 9.22624 9.06421 9.57325C9.07865 9.19404 9.05987 8.81804 9.00781 8.44531Z" fill="#129412"/>
<path opacity="0.965" fill-rule="evenodd" clip-rule="evenodd" d="M6.24512 9.00781C6.24027 9.06398 6.25911 9.11096 6.30152 9.1488C6.20513 9.27519 6.11112 9.3974 6.01953 9.51538C6.05241 9.32098 6.12759 9.15179 6.24512 9.00781Z" fill="#129412"/>
<path opacity="0.322" fill-rule="evenodd" clip-rule="evenodd" d="M8.38844 9.73999C8.06365 9.72386 7.7441 9.7427 7.42969 9.79639C7.56589 9.72228 7.72566 9.68467 7.90906 9.68359C8.07944 9.68371 8.23921 9.70254 8.38844 9.73999Z" fill="#129412"/>
<path opacity="0.421" fill-rule="evenodd" clip-rule="evenodd" d="M2.01263 5.79297C2.0155 8.47842 2.0155 11.1666 2.01263 13.8577C1.9563 11.1978 1.9375 8.52839 1.95623 5.84937C1.95623 5.81175 1.97503 5.79297 2.01263 5.79297Z" fill="#129412"/>
<path opacity="0.992" fill-rule="evenodd" clip-rule="evenodd" d="M6.86743 11.0389C6.77517 11.2989 6.66238 11.5434 6.52905 11.7721C6.53712 11.6727 6.51828 11.5787 6.47266 11.4901C6.49736 11.4334 6.53492 11.4334 6.58545 11.4901C6.63102 11.3817 6.65922 11.2689 6.67005 11.1517C6.70693 11.2192 6.73513 11.2192 6.75464 11.1517C6.68144 10.9993 6.71905 10.9617 6.86743 11.0389Z" fill="#129412"/>
<path fill-rule="evenodd" clip-rule="evenodd" d="M8.83838 12.3909C8.84774 12.052 8.83833 11.7136 8.81018 11.3757C8.7883 11.3234 8.75068 11.2858 8.69739 11.2629C8.63321 11.2905 8.56739 11.3093 8.5 11.3193C8.60089 11.2343 8.71369 11.1592 8.83838 11.0938C8.89478 11.1125 8.9324 11.1501 8.95118 11.2065C8.91542 11.6087 8.8778 12.0034 8.83838 12.3909Z" fill="#129412"/>
<path fill-rule="evenodd" clip-rule="evenodd" d="M8.83601 12.3897C8.66986 12.5483 8.48189 12.6799 8.27204 12.7844C8.13166 12.773 8.00003 12.8012 7.87726 12.869C7.90303 12.8924 7.92187 12.9206 7.93365 12.9536C7.83361 12.9924 7.73959 13.0394 7.65167 13.0946C7.68111 13.1263 7.69989 13.1639 7.70807 13.2074C7.50442 13.3253 7.4104 13.5039 7.42608 13.7432C6.40276 15.759 6.7223 17.5355 8.38483 19.0727C10.397 20.3933 12.2487 20.1959 13.9399 18.4805C14.2899 17.9873 14.5624 17.4609 14.7577 16.9014C14.7984 16.8778 14.8266 16.8403 14.8423 16.7886C14.8933 16.4708 14.9215 16.1512 14.9269 15.8299C15.0209 15.7547 15.1148 15.7547 15.2089 15.8299C15.4328 16.1774 15.6489 16.5346 15.8574 16.9014C15.5823 18.4087 14.7833 19.5555 13.4606 20.3416C13.3647 20.3326 13.2707 20.342 13.1786 20.3698C13.1974 20.3886 13.2162 20.4074 13.235 20.4262C13.1255 20.4434 13.0315 20.4903 12.953 20.5672C12.9154 20.5484 12.8778 20.5296 12.8402 20.5108C12.5749 20.6083 12.3117 20.7117 12.0506 20.821C12.082 20.8426 12.1008 20.8708 12.107 20.9056C9.34324 21.3801 7.34115 20.365 6.10075 17.8602C5.40651 15.8925 5.68849 14.0878 6.94671 12.4461C7.38006 11.9458 7.897 11.5698 8.49762 11.3181C8.56502 11.3081 8.63083 11.2893 8.69501 11.2617C8.74831 11.2846 8.78592 11.3222 8.80781 11.3745C8.83595 11.7124 8.84537 12.0508 8.83601 12.3897Z" fill="#129412"/>
<path opacity="0.882" fill-rule="evenodd" clip-rule="evenodd" d="M23.6167 4.94824C23.6918 9.85455 23.6918 14.7611 23.6167 19.6678C23.5791 19.7055 23.5415 19.743 23.5039 19.7806C23.5688 14.7619 23.5782 9.74255 23.5321 4.72266C23.5439 4.81052 23.5721 4.8857 23.6167 4.94824Z" fill="#129412"/>
<path opacity="0.44" fill-rule="evenodd" clip-rule="evenodd" d="M15.1013 11.8828C14.0584 11.939 13.0057 11.9578 11.9431 11.9392C11.9598 12.0653 11.9409 12.1781 11.8867 12.2776C11.8867 12.146 11.8867 12.0144 11.8867 11.8828C12.9583 11.8828 14.0298 11.8828 15.1013 11.8828Z" fill="#129412"/>
<path opacity="0.941" fill-rule="evenodd" clip-rule="evenodd" d="M5.45703 12.0508C5.61303 12.0604 5.76344 12.0979 5.90821 12.1636C6.02168 12.1444 6.13447 12.1256 6.24659 12.1072C5.97318 12.2658 5.70997 12.247 5.45703 12.0508Z" fill="#129412"/>
<path opacity="0.872" fill-rule="evenodd" clip-rule="evenodd" d="M1.05588 19.215C0.981374 14.4861 0.981374 9.74873 1.05588 5.00293C1.10043 4.94039 1.12863 4.86521 1.14047 4.77734C1.13196 9.59776 1.10376 14.4103 1.05588 19.215Z" fill="#129412"/>
<path opacity="0.176" fill-rule="evenodd" clip-rule="evenodd" d="M11.8867 12.6719C13.0219 12.7082 14.1498 12.7458 15.2705 12.7847C14.1665 12.7663 13.0668 12.7851 11.9713 12.8411C11.9424 12.7831 11.9142 12.7267 11.8867 12.6719Z" fill="#129412"/>
<path fill-rule="evenodd" clip-rule="evenodd" d="M8.27342 12.7876C7.97045 13.0905 7.68847 13.4101 7.42746 13.7464C7.41178 13.5071 7.5058 13.3285 7.70945 13.2106C7.70127 13.1671 7.68249 13.1294 7.65305 13.0978C7.74097 13.0425 7.83499 12.9956 7.93503 12.9568C7.92325 12.9238 7.90441 12.8956 7.87864 12.8722C8.00141 12.8044 8.13304 12.7762 8.27342 12.7876Z" fill="#129412"/>
<path fill-rule="evenodd" clip-rule="evenodd" d="M9.79688 14.4766C9.98225 14.5138 10.1702 14.542 10.3608 14.5612C10.3866 14.5845 10.4055 14.6127 10.4172 14.6458C12.0336 14.6927 13.6504 14.7209 15.2674 14.7303C15.3873 14.9708 15.4625 15.2434 15.493 15.5481C15.345 15.2998 15.1758 15.0648 14.9854 14.8431C13.4439 14.8244 11.9023 14.8055 10.3608 14.7867C10.1439 14.7255 9.95591 14.6221 9.79688 14.4766Z" fill="#129412"/>
<path opacity="0.996" fill-rule="evenodd" clip-rule="evenodd" d="M17.1289 15.043C17.3748 15.4408 17.6004 15.8545 17.8057 16.2837C17.7551 16.2218 17.7081 16.2218 17.6647 16.2837C17.6459 16.2085 17.6271 16.1333 17.6083 16.0581C17.3118 15.7848 17.152 15.4464 17.1289 15.043Z" fill="#129412"/>
<path opacity="0.09" fill-rule="evenodd" clip-rule="evenodd" d="M15.2117 15.8315C15.1177 15.7564 15.0237 15.7564 14.9297 15.8315C14.9461 15.7667 14.9931 15.7291 15.0707 15.7188C15.1483 15.7291 15.1953 15.7667 15.2117 15.8315Z" fill="#129412"/>
<path opacity="0.773" fill-rule="evenodd" clip-rule="evenodd" d="M14.927 15.832C14.9216 16.1534 14.8934 16.473 14.8424 16.7908C14.8267 16.8424 14.7985 16.88 14.7578 16.9036C14.7994 16.5365 14.8558 16.1794 14.927 15.832Z" fill="#129412"/>
<path fill-rule="evenodd" clip-rule="evenodd" d="M19.9492 17.0156C20.0839 17.0562 20.1685 17.1501 20.203 17.2976C20.2479 17.4408 20.2385 17.5724 20.1748 17.6924C20.1627 17.4434 20.0876 17.2178 19.9492 17.0156Z" fill="#129412"/>
<path opacity="0.039" fill-rule="evenodd" clip-rule="evenodd" d="M18.2554 18.9336C18.1642 19.0166 18.0514 19.0542 17.917 19.0464C17.8299 19.0458 17.7547 19.027 17.6914 18.99C17.8821 18.9922 18.0701 18.9735 18.2554 18.9336Z" fill="#129412"/>
<path fill-rule="evenodd" clip-rule="evenodd" d="M2.01733 19.1016C2.06956 19.5607 2.18235 20.0119 2.35572 20.4551C2.28688 20.4253 2.22108 20.3877 2.15833 20.3423C2.03803 20.0744 1.97223 19.7924 1.96094 19.4963C2.01554 19.3775 2.03434 19.2459 2.01733 19.1016Z" fill="#129412"/>
<path fill-rule="evenodd" clip-rule="evenodd" d="M13.4607 20.3432C13.0676 20.6495 12.6164 20.8374 12.1072 20.9071C12.1009 20.8723 12.0821 20.8441 12.0508 20.8225C12.3118 20.7132 12.575 20.6099 12.8403 20.5124C12.878 20.5311 12.9155 20.55 12.9531 20.5688C13.0317 20.4919 13.1257 20.4449 13.2351 20.4278C13.2163 20.409 13.1975 20.3901 13.1787 20.3714C13.2709 20.3435 13.3649 20.3341 13.4607 20.3432Z" fill="#129412"/>
<path fill-rule="evenodd" clip-rule="evenodd" d="M22.6525 19.1602C22.6359 19.2862 22.6547 19.399 22.7089 19.4985C22.7187 19.6888 22.7469 19.8768 22.7935 20.0625C22.8757 19.8578 22.9509 19.651 23.0191 19.4421C23.0053 19.6303 23.0429 19.8184 23.1319 20.0061C23.2015 20.0171 23.2861 20.0171 23.3857 20.0061C23.4235 19.9244 23.4612 19.8492 23.4984 19.7805C23.5361 19.7429 23.5736 19.7053 23.6112 19.6677C23.4629 20.6043 23.0681 21.4127 22.4269 22.0928C22.2214 22.2306 21.9959 22.334 21.7501 22.403C21.7005 22.4795 21.6817 22.564 21.6937 22.6568C21.5623 22.6567 21.4495 22.7036 21.3554 22.7978C21.3867 22.8194 21.4055 22.8476 21.4118 22.8824C20.7218 23.2938 19.9699 23.5005 19.1559 23.5027C14.3992 23.5196 9.64313 23.5009 4.88745 23.4463C4.83106 23.4463 4.77466 23.4463 4.71826 23.4463C4.69469 23.4056 4.65713 23.3774 4.60547 23.3617C9.77335 23.4086 14.9431 23.3992 20.1146 23.3335C20.105 23.259 20.1238 23.1932 20.171 23.1361C20.1175 23.1013 20.0705 23.1107 20.03 23.1643C19.9831 23.1174 19.936 23.0703 19.889 23.0233C20.0541 22.9235 20.2232 22.8295 20.3966 22.7414C20.086 22.7207 19.7852 22.6737 19.4943 22.6004C19.5568 22.5558 19.632 22.5276 19.7198 22.5158C19.6277 22.4879 19.5337 22.4786 19.4379 22.4876C20.0193 22.4128 20.5645 22.2248 21.0734 21.9236C21.1595 21.9277 21.2159 21.8901 21.2426 21.8108C21.3748 21.6598 21.5252 21.5283 21.6937 21.416C21.8114 21.3548 21.8866 21.2609 21.9193 21.134C22.3541 20.5439 22.5985 19.8859 22.6525 19.1602Z" fill="#129412"/>
<path opacity="0.561" fill-rule="evenodd" clip-rule="evenodd" d="M21.9248 21.1328C21.8921 21.2596 21.8169 21.3536 21.6992 21.4148C21.7319 21.288 21.8071 21.194 21.9248 21.1328Z" fill="#129412"/>
<path opacity="0.329" fill-rule="evenodd" clip-rule="evenodd" d="M21.2434 21.8089C21.2167 21.8882 21.1603 21.9258 21.0742 21.9217C21.1009 21.8424 21.1573 21.8048 21.2434 21.8089Z" fill="#129412"/>
<path fill-rule="evenodd" clip-rule="evenodd" d="M22.4309 22.0898C22.3486 22.2006 22.2546 22.3039 22.1489 22.4C21.9112 22.5724 21.6668 22.7321 21.4158 22.8794C21.4095 22.8446 21.3907 22.8164 21.3594 22.7948C21.4535 22.7007 21.5663 22.6537 21.6978 22.6538C21.6857 22.5611 21.7045 22.4765 21.7542 22.4C21.9999 22.331 22.2255 22.2276 22.4309 22.0898Z" fill="#129412"/>
<path opacity="0.829" fill-rule="evenodd" clip-rule="evenodd" d="M5.28589 22.4877C10.0045 22.4877 14.723 22.4877 19.4415 22.4877C19.5373 22.4787 19.6314 22.488 19.7235 22.5159C19.6356 22.5277 19.5605 22.5559 19.4979 22.6005C14.7041 22.6099 9.91038 22.6005 5.1167 22.5723C5.07908 22.5535 5.04152 22.5347 5.00391 22.5159C5.09606 22.488 5.19007 22.4787 5.28589 22.4877Z" fill="#129412"/>
<path opacity="0.055" fill-rule="evenodd" clip-rule="evenodd" d="M4.89062 23.4453C9.6463 23.4998 14.4024 23.5186 19.1591 23.5017C14.6192 23.5675 10.0698 23.5768 5.51099 23.5299C5.29352 23.5199 5.08672 23.4917 4.89062 23.4453Z" fill="#129412"/>
</svg>
