<svg width="24" height="24" viewBox="0 0 24 24" fill="none" xmlns="http://www.w3.org/2000/svg">
<path d="M12.5536 8.01753C11.9751 7.43684 11.2706 6.97803 10.4875 6.68019C10.1177 7.09109 9.86597 7.59134 9.76083 8.13378C9.73224 8.28003 9.71508 8.42666 9.70721 8.57258C9.77157 8.5947 9.83452 8.61833 9.89607 8.64514C10.5783 8.93441 11.1641 9.41862 11.5746 10.0287C11.9042 10.5164 12.1231 11.081 12.1968 11.6929C12.2161 11.8456 12.2254 12.0012 12.2254 12.1599C12.2254 12.6899 12.1188 13.1891 11.9265 13.6446C11.6876 14.2064 11.3178 14.7035 10.8537 15.09C10.755 15.1733 10.6513 15.2506 10.544 15.3232C9.93399 15.7351 9.20593 15.974 8.41135 15.974C7.88283 15.974 7.38436 15.8671 6.92808 15.675C6.24436 15.3858 5.66077 14.9012 5.24883 14.2915C4.8383 13.6825 4.59943 12.9527 4.59943 12.1599C4.59943 11.6303 4.70457 11.1319 4.89765 10.6752C5.15729 10.0623 5.57565 9.52737 6.1013 9.12795C6.09127 8.98953 6.08696 8.85116 6.08696 8.71278C6.08696 8.00192 6.19852 7.30817 6.41096 6.65234C5.59777 6.94808 4.8683 7.41828 4.27041 8.01763C3.21052 9.07433 2.55254 10.5451 2.55469 12.16C2.55258 13.7752 3.21057 15.246 4.27041 16.303C5.15293 17.1869 6.32297 17.7888 7.6246 17.9636V19.7895H4.91049V21.3621H7.6246V23.9997H9.198V21.3621H11.9143V19.7894H9.198V17.9636C10.5004 17.7887 11.6718 17.1869 12.5536 16.303C12.8483 16.0083 13.1108 15.6829 13.3389 15.3307C13.9289 14.417 14.2715 13.3253 14.2701 12.1599C14.2701 11.8864 14.2508 11.6157 14.215 11.3518C14.0355 10.0573 13.4333 8.89508 12.5536 8.01753Z" fill="#129412"/>
<path d="M16.3579 0V1.5727H18.7581L16.2778 4.05295C15.2336 3.25697 13.9785 2.85464 12.7298 2.85577C11.2344 2.85464 9.72892 3.42858 8.58747 4.57219C7.77072 5.38678 7.24581 6.38691 7.0112 7.43719C7.00834 7.45003 7.00694 7.46292 7.00333 7.47366C6.99405 7.51444 6.98617 7.55555 6.97834 7.59455C6.964 7.67034 6.95116 7.74581 6.93902 7.82123C6.93114 7.86666 6.92472 7.91423 6.9197 7.95961C6.91042 8.02866 6.90255 8.09944 6.89683 8.17022C6.89327 8.211 6.88895 8.25216 6.88684 8.29289C6.88544 8.31328 6.88398 8.334 6.88258 8.35584C6.87897 8.39695 6.87756 8.43914 6.87611 8.47988C6.87325 8.55713 6.87109 8.63578 6.87109 8.71303C6.87109 8.77275 6.87325 8.83247 6.8747 8.89359C6.87756 8.95369 6.88117 9.01303 6.88398 9.07458L6.89327 9.20686C6.89327 9.2287 6.89683 9.25083 6.89823 9.27445C7.02414 10.581 7.58837 11.8584 8.58747 12.8557C9.19253 13.4611 9.90053 13.9074 10.6536 14.1924C10.8817 13.941 11.0677 13.65 11.2015 13.3367C11.3395 13.0081 11.4182 12.6605 11.4339 12.3018C10.9225 12.118 10.4448 11.8223 10.0329 11.4104C9.66025 11.036 9.38134 10.608 9.19609 10.1488C9.06381 9.82439 8.97869 9.48473 8.94147 9.14213C8.91719 8.93934 8.91147 8.73483 8.92075 8.53209C8.92361 8.48166 8.92717 8.43305 8.93003 8.38406C8.93359 8.34797 8.93645 8.31183 8.94287 8.27536C8.94287 8.26139 8.94573 8.24747 8.94719 8.23317C8.95075 8.19848 8.95506 8.16239 8.96148 8.12803C8.96936 8.08083 8.97723 8.03184 8.98652 7.98502C9.02795 7.7708 9.08734 7.56019 9.166 7.35563C9.18034 7.31808 9.19459 7.28198 9.2118 7.24406C9.22755 7.20473 9.24466 7.16541 9.26327 7.12608C9.27902 7.08675 9.29763 7.04737 9.31834 7.0095C9.3355 6.97055 9.35622 6.93263 9.37844 6.89508C9.48213 6.7027 9.60447 6.5175 9.74463 6.34116C9.77322 6.30506 9.80327 6.26897 9.83261 6.23423C9.89767 6.16022 9.96348 6.08798 10.0343 6.0172C10.1222 5.92922 10.2116 5.84733 10.3046 5.77186C10.6093 5.51869 10.9432 5.32022 11.2937 5.17898C11.9809 4.90045 12.7376 4.82963 13.4592 4.96978C14.1816 5.10994 14.8653 5.45541 15.4274 6.01716C15.8015 6.39155 16.0782 6.81956 16.2635 7.27838C16.5438 7.96566 16.6147 8.72086 16.4745 9.44287C16.3329 10.1645 15.9867 10.8486 15.4274 11.4104C15.3044 11.533 15.1757 11.6464 15.042 11.7468C15.0498 11.8852 15.0541 12.0236 15.0541 12.1602C15.0563 12.865 14.944 13.5598 14.7287 14.2206C15.5118 13.9374 16.2463 13.4814 16.8721 12.8557C18.0143 11.7153 18.59 10.2099 18.5885 8.71298C18.5899 7.46391 18.1873 6.21094 17.3899 5.16497L19.8701 2.68472V5.08594H21.4428V0H16.3579Z" fill="#129412"/>
</svg>
