<svg width="24" height="24" viewBox="0 0 24 24" fill="none" xmlns="http://www.w3.org/2000/svg">
<g clip-path="url(#clip0_409_3624)">
<path d="M24.001 5.5V15.601C24.001 17.604 23.221 19.488 21.804 20.904L18.854 23.854C18.756 23.952 18.628 24 18.5 24C18.372 24 18.244 23.951 18.146 23.854C17.951 23.659 17.951 23.342 18.146 23.147L21.096 20.197C22.324 18.969 23 17.337 23 15.601V5.5C23 4.673 22.327 4 21.5 4C20.673 4 20 4.673 20 5.5C20 5.5 19.998 13.545 19.995 13.567C19.98 14.114 19.787 14.658 19.416 15.1L16.778 17.846C16.68 17.948 16.549 17.999 16.418 17.999C16.293 17.999 16.168 17.953 16.071 17.859C15.872 17.668 15.866 17.351 16.057 17.152L18.673 14.431C18.891 14.171 19.001 13.84 19.001 13.507C19.001 13.504 19.001 13.502 19.001 13.499V13.461C18.991 13.116 18.864 12.77 18.619 12.496C18.069 11.883 17.122 11.83 16.506 12.38L13.777 14.892C13.261 15.366 12.848 15.925 12.546 16.555C12.843 17.308 13.002 18.117 13.002 18.94V23.499C13.002 23.775 12.778 23.999 12.502 23.999C12.226 23.999 12.002 23.775 12.002 23.499V18.94C12.002 17.406 11.355 15.931 10.226 14.893L7.492 12.377C6.883 11.831 5.935 11.883 5.384 12.497C4.89 13.048 4.877 13.891 5.352 14.457L7.945 17.152C8.136 17.351 8.13 17.668 7.931 17.859C7.731 18.05 7.415 18.044 7.224 17.845L4.608 15.124C4.233 14.678 4.035 14.139 4.011 13.598C4.005 13.566 4.001 5.498 4.001 5.498C4.001 4.671 3.328 3.998 2.501 3.998C1.674 3.998 1.001 4.671 1.001 5.498V15.599C1.001 17.335 1.677 18.968 2.905 20.195L5.855 23.145C6.05 23.34 6.05 23.657 5.855 23.852C5.757 23.95 5.629 23.998 5.501 23.998C5.373 23.998 5.245 23.949 5.147 23.852L2.197 20.902C0.78 19.485 0 17.602 0 15.599V5.5C0 4.122 1.122 3 2.5 3C3.878 3 5 4.122 5 5.5V11.498C5.933 10.799 7.262 10.83 8.162 11.636L10.901 14.157C11.327 14.549 11.695 14.995 11.999 15.478C12.304 14.993 12.672 14.551 13.099 14.157L15.833 11.641C16.737 10.831 18.067 10.799 19 11.498V5.5C19 4.122 20.122 3 21.5 3C22.878 3 24.001 4.122 24.001 5.5ZM7.001 2.93C7.001 1.314 8.234 0 9.751 0C10.713 0 11.516 0.415 12.001 1.09C12.486 0.415 13.289 0 14.251 0C15.768 0 17.001 1.314 17.001 2.93C17.001 5.045 14.452 7.638 13.105 8.713C12.78 8.972 12.391 9.101 12.001 9.101C11.611 9.101 11.223 8.972 10.898 8.713C9.55 7.638 7.001 5.046 7.001 2.93ZM8.001 2.93C8.001 4.442 10.06 6.765 11.522 7.93C11.804 8.156 12.199 8.156 12.481 7.93C13.942 6.764 16.001 4.442 16.001 2.93C16.001 1.866 15.216 1 14.251 1C13.221 1 12.501 1.703 12.501 2.709C12.501 2.985 12.277 3.209 12.001 3.209C11.725 3.209 11.501 2.985 11.501 2.709C11.501 1.703 10.781 1 9.751 1C8.786 1 8.001 1.866 8.001 2.93Z" fill="#129412"/>
</g>
<defs>
<clipPath id="clip0_409_3624">
<rect width="24" height="24" fill="white"/>
</clipPath>
</defs>
</svg>
