<svg width="21" height="18" viewBox="0 0 21 18" fill="none" xmlns="http://www.w3.org/2000/svg">
<path d="M16.226 10.02L12.5 13H7.5V12H11.565C11.6554 12 11.7442 11.9754 11.8218 11.9289C11.8993 11.8824 11.9629 11.8157 12.0055 11.736C12.0482 11.6563 12.0685 11.5664 12.0642 11.4761C12.0598 11.3858 12.0311 11.2983 11.981 11.223L11.093 9.891C10.9105 9.61712 10.6633 9.39251 10.3732 9.23709C10.0831 9.08166 9.75911 9.00023 9.43 9H1.5C1.23478 9 0.98043 9.10536 0.792893 9.29289C0.605357 9.48043 0.5 9.73478 0.5 10V16C0.5 16.5304 0.710714 17.0391 1.08579 17.4142C1.46086 17.7893 1.96957 18 2.5 18H12.139C12.5666 18.0001 12.9893 17.9088 13.3787 17.7322C13.7682 17.5556 14.1153 17.2977 14.397 16.976L20.5 10L19.048 9.516C18.5729 9.35783 18.0658 9.32109 17.5729 9.40912C17.08 9.49716 16.617 9.70716 16.226 10.02ZM17.758 4.39C18.209 3.925 18.488 3.282 18.488 2.572C18.488 1.862 18.209 1.219 17.758 0.754C17.5298 0.516116 17.256 0.326726 16.9529 0.197167C16.6498 0.0676094 16.3236 0.00054857 15.994 6.44164e-08C15.994 6.44164e-08 14.75 -0.00300014 13.5 1.286C12.25 -0.00300014 11.006 6.44164e-08 11.006 6.44164e-08C10.6764 0.000419164 10.3504 0.067323 10.0473 0.196708C9.74415 0.326092 9.47027 0.515298 9.242 0.753C8.791 1.219 8.512 1.861 8.512 2.571C8.512 3.281 8.791 3.925 9.242 4.389L13.5 9L17.758 4.39Z" fill="#129412"/>
</svg>
