<svg width="20" height="24" viewBox="0 0 20 24" fill="none" xmlns="http://www.w3.org/2000/svg">
<path fill-rule="evenodd" clip-rule="evenodd" d="M9.30094 17.3435C8.69477 17.098 8.0448 16.9789 7.39094 16.9935C7.1568 16.9907 6.92434 16.9537 6.70094 16.8835C6.63113 16.8714 6.5654 16.8423 6.50957 16.7987C6.45374 16.7551 6.40956 16.6983 6.38094 16.6335C5.93094 15.5035 7.95094 15.3435 8.76094 15.5735C8.79606 15.5867 8.83346 15.5927 8.87092 15.5911C8.90839 15.5895 8.94516 15.5804 8.97904 15.5643C9.01293 15.5483 9.04325 15.5256 9.06819 15.4976C9.09314 15.4696 9.11221 15.4369 9.12427 15.4014C9.13633 15.3659 9.14113 15.3283 9.13839 15.2909C9.13566 15.2535 9.12544 15.217 9.10834 15.1836C9.09124 15.1503 9.06761 15.1207 9.03886 15.0966C9.0101 15.0725 8.9768 15.0545 8.94094 15.0435C8.62093 14.9221 8.28303 14.8545 7.94094 14.8435C7.96106 14.7982 7.97777 14.7514 7.99094 14.7035C8.01761 14.6155 8.03427 14.5255 8.04094 14.4335C8.04658 14.347 8.04658 14.2601 8.04094 14.1735C8.04094 13.9435 7.95094 13.7535 7.92094 13.5335C7.92953 13.4605 7.91273 13.3868 7.87336 13.3248C7.834 13.2627 7.77447 13.2161 7.70478 13.1927C7.63509 13.1694 7.55949 13.1707 7.49069 13.1966C7.42188 13.2224 7.36406 13.2711 7.32694 13.3345C7.30663 13.3716 7.29436 13.4124 7.29094 13.4545C7.18761 13.6572 7.10094 13.8672 7.03094 14.0845C7.00094 14.1712 6.98094 14.2612 6.97094 14.3545C6.96658 14.4478 6.96658 14.5413 6.97094 14.6345C6.98494 14.7119 7.00494 14.7885 7.03094 14.8645C6.77161 14.8992 6.52161 14.9692 6.28094 15.0745C6.09967 15.1448 5.93439 15.2508 5.79492 15.3862C5.65545 15.5217 5.54463 15.6838 5.46907 15.8629C5.3935 16.042 5.35472 16.2345 5.35505 16.4289C5.35537 16.6233 5.39478 16.8157 5.47094 16.9945C5.53281 17.2015 5.64173 17.3914 5.7892 17.5492C5.93666 17.7071 6.11865 17.8287 6.32094 17.9045C6.92094 18.0705 7.53894 18.1615 8.16094 18.1745C8.54094 18.1745 8.92094 18.1745 8.99094 18.6145C9.06094 19.0545 8.66094 19.3345 8.19094 19.5045C7.64278 19.7147 7.04586 19.7633 6.47094 19.6445C6.29664 19.5945 6.13595 19.5056 6.00094 19.3845C5.86556 19.2633 5.7386 19.133 5.62094 18.9945C5.5679 18.9282 5.49069 18.8857 5.40629 18.8763C5.3219 18.867 5.23724 18.8915 5.17094 18.9445C5.10463 18.9976 5.06212 19.0748 5.05274 19.1592C5.04336 19.2436 5.0679 19.3282 5.12094 19.3945C5.28494 19.6305 5.47494 19.8439 5.69094 20.0345C5.8567 20.1663 6.04235 20.271 6.24094 20.3445C6.42561 20.4125 6.6156 20.4592 6.81094 20.4845V20.5545C6.80094 20.6439 6.80094 20.7339 6.81094 20.8245C6.79962 20.9108 6.79962 20.9982 6.81094 21.0845C6.81094 21.3145 6.89094 21.5045 6.93094 21.7245C6.91968 21.7685 6.91791 21.8143 6.92572 21.859C6.93354 21.9037 6.95077 21.9463 6.97628 21.9838C7.00178 22.0213 7.03497 22.053 7.07365 22.0767C7.11233 22.1004 7.15562 22.1156 7.20063 22.1214C7.24564 22.1271 7.29135 22.1232 7.33473 22.1099C7.37811 22.0966 7.41817 22.0742 7.45225 22.0442C7.48632 22.0143 7.51363 21.9774 7.53237 21.9361C7.55111 21.8947 7.56085 21.8499 7.56094 21.8045C7.66094 21.5999 7.74427 21.3899 7.81094 21.1745C7.84094 21.0859 7.86094 20.9959 7.87094 20.9045C7.88555 20.8118 7.88555 20.7173 7.87094 20.6245C7.87562 20.578 7.87562 20.5311 7.87094 20.4845C8.26261 20.454 8.64718 20.3629 9.01094 20.2145C9.35185 20.0663 9.63397 19.8092 9.81312 19.4835C9.99226 19.1578 10.0583 18.7818 10.0009 18.4145C9.97923 18.1929 9.90423 17.9799 9.78234 17.7936C9.66045 17.6073 9.49528 17.4522 9.30094 17.3435ZM10.3009 10.2235C9.96094 10.6435 10.9209 10.9535 11.1909 10.6035C11.3204 10.4386 11.4125 10.2475 11.4609 10.0435C11.4609 9.78354 11.0309 9.65354 10.6809 9.87354C10.6509 9.92354 10.3709 10.1435 10.3009 10.2235Z" fill="#129412"/>
<path fill-rule="evenodd" clip-rule="evenodd" d="M18.9101 6.64293C18.8354 6.60245 18.748 6.59234 18.6661 6.61469C18.5841 6.63704 18.5139 6.69014 18.4701 6.76293C18.3367 7.00423 18.1521 7.21341 17.9292 7.37579C17.7064 7.53818 17.4507 7.64983 17.1801 7.70293C17.0508 7.72293 16.9208 7.72293 16.7901 7.70293C16.1294 7.57293 15.4628 7.49626 14.7901 7.47293C14.0501 7.55293 12.7901 8.34293 11.7201 8.53293C11.4796 8.62332 11.2135 8.61766 10.977 8.51712C10.7406 8.41657 10.5519 8.22887 10.4501 7.99293C10.2901 7.67293 10.5901 7.52293 10.8901 7.33293C11.7229 6.93958 12.4626 6.37375 13.0601 5.67293C13.1875 5.46493 13.2647 5.23012 13.2855 4.98711C13.3063 4.74409 13.2702 4.49957 13.1801 4.27293C12.7601 3.07293 12.0201 2.74293 11.2701 2.86293C10.8565 2.92252 10.4617 3.07492 10.1154 3.30871C9.76904 3.5425 9.48006 3.85162 9.27012 4.21293C9.14012 4.46293 9.49012 4.75293 9.78012 4.54293C10.0747 4.13155 10.5079 3.84036 11.0001 3.72293C11.5601 3.50293 12.1101 3.72293 12.3501 4.55293C12.5101 5.12293 12.0901 5.43293 11.6301 5.71293C11.1701 5.99293 9.84012 6.81293 9.74012 6.91293C9.52591 7.11233 9.3878 7.38007 9.34948 7.6702C9.31116 7.96033 9.37503 8.25476 9.53012 8.50293C10.4801 10.3029 12.1601 9.60293 13.3001 9.06293C13.8209 8.7749 14.3664 8.53395 14.9301 8.34293C15.5575 8.34026 16.1808 8.38693 16.8001 8.48293C16.9961 8.48826 17.1894 8.46826 17.3801 8.42293C17.7452 8.32928 18.0861 8.15882 18.3801 7.92293C18.6376 7.68428 18.8479 7.39933 19.0001 7.08293C19.0434 7.01177 19.0582 6.92687 19.0415 6.84526C19.0248 6.76365 18.9779 6.69137 18.9101 6.64293Z" fill="#129412"/>
<path fill-rule="evenodd" clip-rule="evenodd" d="M10.2317 5.63338C8.62173 3.69338 6.01173 4.63338 5.86173 4.63338C5.13005 4.93235 4.5254 5.47689 4.15173 6.17338C3.15173 7.79338 3.08173 9.84338 5.01173 10.8634C5.27173 10.9734 6.11173 10.6434 5.61173 10.3534C4.23173 9.70338 4.16173 8.04338 5.00173 6.74338C5.43636 6.09004 6.09398 5.61727 6.85173 5.41338C7.63243 5.21663 8.45752 5.30162 9.18172 5.65338C9.37172 5.75338 9.54472 5.88538 9.69172 6.04338C10.0017 6.38338 10.5317 5.99338 10.2317 5.63338ZM19.3217 3.86338L16.8217 2.52338C16.1017 2.08338 15.4217 1.43338 14.6917 0.923381C14.1615 0.521108 13.5564 0.228728 12.9117 0.0633806C12.3434 -0.0467586 11.7565 -0.0129586 11.2046 0.161702C10.6527 0.336363 10.1532 0.646333 9.75173 1.06338C9.23573 1.60138 8.76239 2.17471 8.33173 2.78338C8.08373 3.13405 7.86706 3.50405 7.68173 3.89338C7.78172 4.11338 7.97173 4.17338 8.24173 4.06338C8.43173 3.76471 8.64173 3.48138 8.87173 3.21338C9.32172 2.68938 9.81173 2.20605 10.3417 1.76338C10.6465 1.47082 11.0179 1.25692 11.4239 1.14018C11.8298 1.02344 12.2581 1.00738 12.6717 1.09338C13.3226 1.28832 13.9325 1.60006 14.4717 2.01338C15.0891 2.45871 15.7291 2.86871 16.3917 3.24338L19.0517 4.42338C19.089 4.44185 19.1297 4.45262 19.1712 4.45505C19.2128 4.45748 19.2544 4.45152 19.2936 4.43752C19.3328 4.42352 19.3687 4.40177 19.3993 4.37357C19.4299 4.34537 19.4546 4.3113 19.4717 4.27338C19.5033 4.19875 19.5053 4.11492 19.4775 4.03883C19.4497 3.96273 19.394 3.90003 19.3217 3.86338ZM8.80173 10.8734C8.13439 10.8534 7.46773 10.8734 6.80173 10.9334C6.56173 10.9334 4.36173 11.2634 3.89173 11.3534C3.41113 11.4171 2.96665 11.6429 2.63173 11.9934C2.47173 12.2634 2.44173 12.6334 2.97173 13.0734C3.02218 13.1178 3.08498 13.1457 3.15173 13.1534C2.81487 13.5587 2.51059 13.9901 2.24173 14.4434C1.9216 15.0012 1.63768 15.5791 1.39173 16.1734C1.22173 16.5834 1.06173 17.0034 0.921725 17.4334C0.780392 17.8694 0.667059 18.3127 0.581725 18.7634C0.519459 19.0929 0.492639 19.4281 0.501725 19.7634C0.508725 20.1024 0.558725 20.4384 0.651725 20.7634C0.728392 20.9967 0.821725 21.2234 0.931725 21.4434C1.04173 21.6647 1.16506 21.878 1.30173 22.0834C1.80311 22.8994 2.59133 23.4986 3.51173 23.7634C4.79473 23.9634 6.09672 24.0214 7.39173 23.9334C8.85913 24.0587 10.3363 24.0083 11.7917 23.7834C12.5055 23.6491 13.1614 23.3002 13.6717 22.7834C13.9711 22.4531 14.1932 22.0602 14.3217 21.6334C14.4927 21.0534 14.5707 20.4484 14.5517 19.8434C14.5733 18.7166 14.4557 17.5914 14.2017 16.4934C14.0202 15.734 13.7053 15.0128 13.2717 14.3634C13.1045 14.1276 12.9171 13.9068 12.7117 13.7034C12.5129 13.5077 12.3025 13.324 12.0817 13.1534C11.9815 13.082 11.8781 13.0152 11.7717 12.9534L11.9517 12.7934C12.0416 12.713 12.1131 12.6143 12.1614 12.5039C12.2097 12.3934 12.2337 12.2739 12.2317 12.1534C12.2237 12.0112 12.1824 11.8729 12.1112 11.7496C12.04 11.6263 11.9409 11.5214 11.8217 11.4434C11.0017 10.8034 10.1817 10.9234 8.80173 10.8734ZM11.2417 12.1134C11.2451 12.1433 11.2451 12.1735 11.2417 12.2034C11.1311 12.2994 11.0277 12.4027 10.9317 12.5134C10.8434 12.6165 10.7817 12.7397 10.7521 12.8722C10.7224 13.0047 10.7257 13.1425 10.7617 13.2734C10.791 13.378 10.8501 13.4718 10.9317 13.5434C11.0517 13.6634 11.3817 13.8534 11.4517 13.9134C11.6384 14.0667 11.8151 14.23 11.9817 14.4034C12.1451 14.564 12.2884 14.7407 12.4117 14.9334C12.7694 15.4971 13.0234 16.1202 13.1617 16.7734C13.3787 17.7884 13.4717 18.8264 13.4417 19.8634C13.4477 20.2834 13.4047 20.7034 13.3117 21.1134C13.2457 21.4842 13.0797 21.8299 12.8317 22.1134C12.3041 22.5704 11.6388 22.8379 10.9417 22.8734C9.7502 22.9664 8.55325 22.9664 7.36173 22.8734C6.14504 23.0006 4.91841 23.0006 3.70173 22.8734C2.99769 22.6688 2.39295 22.2134 2.00173 21.5934C1.88173 21.4234 1.77173 21.2467 1.67173 21.0634C1.57154 20.8895 1.49104 20.7051 1.43173 20.5134C1.34303 20.2554 1.29249 19.9859 1.28173 19.7134C1.25224 19.4342 1.25224 19.1526 1.28173 18.8734C1.35039 18.4507 1.44373 18.034 1.56173 17.6234C1.68173 17.2034 1.82173 16.7934 1.97173 16.3934C2.18749 15.822 2.44485 15.2672 2.74173 14.7334C3.02402 14.2012 3.35903 13.6987 3.74173 13.2334C4.00173 12.9334 3.58173 12.7934 3.31173 12.5734C3.19173 12.4634 3.12173 12.3934 3.11173 12.3134C3.10173 12.2334 3.20173 12.2534 3.26173 12.2134C3.49551 12.1022 3.74516 12.028 4.00173 11.9934C4.78172 11.8634 5.58173 11.7534 6.38173 11.6934C7.16628 11.6221 7.95485 11.6053 8.74172 11.6434C9.29772 11.6487 9.85106 11.6854 10.4017 11.7534C10.7087 11.7964 10.9997 11.9204 11.2417 12.1134Z" fill="#129412"/>
</svg>
