<svg width="24" height="23" viewBox="0 0 24 23" fill="none" xmlns="http://www.w3.org/2000/svg">
<path d="M16.6667 7.49935L7.33333 7.49935M16.6667 12.166L9.66667 12.166M5 1.66602C4.07174 1.66602 3.1815 2.03477 2.52512 2.69114C1.86875 3.34752 1.5 4.23776 1.5 5.16602L1.5 14.4994C1.5 15.4276 1.86875 16.3178 2.52513 16.9742C3.1815 17.6306 4.07174 17.9994 5 17.9993L10.8333 17.9993L16.6667 21.4993L16.6667 17.9993L19 17.9993C19.9283 17.9993 20.8185 17.6306 21.4749 16.9742C22.1313 16.3178 22.5 15.4276 22.5 14.4993L22.5 5.16602C22.5 4.23776 22.1313 3.34752 21.4749 2.69114C20.8185 2.03476 19.9283 1.66602 19 1.66602L5 1.66602Z" stroke="white" stroke-width="2" stroke-linecap="round" stroke-linejoin="round"/>
</svg>
