<svg width="18" height="24" viewBox="0 0 18 24" fill="none" xmlns="http://www.w3.org/2000/svg">
<path fill-rule="evenodd" clip-rule="evenodd" d="M10.1682 1.50065C10.1682 1.19123 10.0453 0.894485 9.82646 0.675693C9.60767 0.456901 9.31092 0.333984 9.0015 0.333984C8.69209 0.333984 8.39534 0.456901 8.17655 0.675693C7.95775 0.894485 7.83484 1.19123 7.83484 1.50065V2.37565H7.185C5.93437 2.37557 4.73072 2.85211 3.81908 3.70826C2.90744 4.56441 2.35635 5.73581 2.278 6.98398L2.02017 11.107C1.9205 12.6787 1.39279 14.1933 0.494171 15.4867C0.308243 15.7539 0.194637 16.0647 0.164403 16.3888C0.134169 16.713 0.188336 17.0395 0.321635 17.3365C0.454934 17.6335 0.662828 17.891 0.925099 18.0838C1.18737 18.2767 1.49509 18.3984 1.81834 18.4372L5.79317 18.9131V20.1673C5.79317 21.0182 6.13119 21.8343 6.73287 22.436C7.33455 23.0376 8.1506 23.3757 9.0015 23.3757C9.85241 23.3757 10.6685 23.0376 11.2701 22.436C11.8718 21.8343 12.2098 21.0182 12.2098 20.1673V18.9131L16.1847 18.436C16.5077 18.3971 16.8152 18.2754 17.0774 18.0826C17.3395 17.8898 17.5472 17.6325 17.6805 17.3356C17.8138 17.0388 17.868 16.7126 17.8379 16.3886C17.8078 16.0646 17.6945 15.7539 17.5088 15.4867C16.6102 14.1933 16.0825 12.6787 15.9828 11.107L15.725 6.98515C15.6469 5.73677 15.096 4.56508 14.1843 3.70869C13.2726 2.85229 12.0688 2.37559 10.818 2.37565H10.1682V1.50065ZM7.185 4.12565C6.37951 4.12555 5.60425 4.43245 5.01708 4.98386C4.42991 5.53527 4.07496 6.28974 4.0245 7.09365L3.76784 11.2167C3.64788 13.1075 3.01284 14.9295 1.9315 16.4853C1.91805 16.5046 1.90983 16.5271 1.90763 16.5506C1.90543 16.574 1.90934 16.5976 1.91897 16.6191C1.9286 16.6406 1.94362 16.6592 1.96258 16.6732C1.98154 16.6872 2.00379 16.696 2.02717 16.6988L6.387 17.2227C8.12417 17.4303 9.87884 17.4303 11.616 17.2227L15.9758 16.6988C15.9992 16.696 16.0215 16.6872 16.0404 16.6732C16.0594 16.6592 16.0744 16.6406 16.084 16.6191C16.0937 16.5976 16.0976 16.574 16.0954 16.5506C16.0932 16.5271 16.085 16.5046 16.0715 16.4853C14.9906 14.9294 14.3559 13.1074 14.2363 11.2167L13.9785 7.09365C13.9281 6.28974 13.5731 5.53527 12.9859 4.98386C12.3988 4.43245 11.6235 4.12555 10.818 4.12565H7.185ZM9.0015 21.6257C8.1965 21.6257 7.54317 20.9723 7.54317 20.1673V19.2923H10.4598V20.1673C10.4598 20.9723 9.8065 21.6257 9.0015 21.6257Z" fill="white"/>
</svg>
