<svg width="24" height="24" viewBox="0 0 24 24" fill="none" xmlns="http://www.w3.org/2000/svg">
<path d="M5.76032 0.0609369C5.26344 0.201562 4.77594 0.609375 4.50875 1.11094C4.27907 1.54219 4.20407 1.94531 4.23219 2.55469C4.29313 3.81562 4.80875 4.26094 6.19625 4.26562C6.76813 4.26562 7.10094 4.20937 7.40563 4.05469C7.865 3.82031 8.09 3.43594 8.16032 2.75156C8.25407 1.86094 8.04313 1.15781 7.50875 0.599999C7.04 0.107812 6.34625 -0.103126 5.76032 0.0609369ZM6.63219 0.815624C6.9275 0.951562 7.2275 1.28437 7.36813 1.63594C7.45719 1.85625 7.47125 1.9875 7.47125 2.4375C7.47125 3.02812 7.41969 3.1875 7.19 3.37031C6.98844 3.52969 6.72594 3.57187 6.09313 3.55312C5.42282 3.53437 5.2025 3.45937 5.03844 3.18281C4.95875 3.04687 4.94469 2.93906 4.94469 2.41406C4.94469 1.8375 4.95407 1.79062 5.08063 1.52812C5.42282 0.829687 6.04625 0.539062 6.63219 0.815624Z" fill="#129412"/>
<path d="M17.1007 0.0630779C16.7679 0.161515 16.496 0.334953 16.2054 0.649015C15.7366 1.15527 15.5304 1.78808 15.5819 2.55683C15.6429 3.48964 15.9148 3.9162 16.5944 4.15058C16.9601 4.27714 18.1413 4.27714 18.5116 4.15527C19.0273 3.98183 19.3366 3.66308 19.4632 3.17089C19.496 3.03495 19.5241 2.6787 19.5241 2.36464C19.5241 1.90058 19.5054 1.74589 19.4163 1.49277C19.121 0.630265 18.446 0.0630779 17.6679 0.0208902C17.4569 0.00682783 17.2319 0.025578 17.1007 0.0630779ZM18.0944 0.859953C18.371 1.04277 18.5116 1.21152 18.6757 1.54433C18.8163 1.83495 18.821 1.87245 18.821 2.43495C18.821 3.11464 18.7648 3.26464 18.446 3.43339C18.2913 3.51777 18.1554 3.53652 17.6726 3.55058C16.9835 3.57402 16.7491 3.52245 16.5194 3.31152C16.3929 3.18964 16.3507 3.10527 16.3085 2.88027C16.2288 2.43964 16.2804 1.8912 16.4304 1.54902C16.5804 1.22558 16.9507 0.84589 17.2085 0.756828C17.4663 0.672453 17.8835 0.719328 18.0944 0.859953Z" fill="#129412"/>
<path d="M4.21994 4.55901C3.69963 4.73714 3.24963 5.13089 3.00119 5.62308C2.78088 6.05901 2.76682 6.19026 2.76682 8.14026C2.76682 10.1653 2.77151 10.2215 3.06682 10.6059C3.21213 10.7934 3.56369 11.0371 3.76526 11.084L3.89182 11.1168V12.7668V14.4168L3.74651 14.4684C3.63869 14.5106 3.60119 14.5106 3.58713 14.4684C3.57307 14.4356 3.41838 13.7512 3.23557 12.9403C2.86994 11.309 2.79494 11.1121 2.42932 10.8215C2.11526 10.5778 1.80588 10.4793 1.38869 10.5075C0.826194 10.545 0.357444 10.8684 0.132444 11.3793C-0.0691189 11.8293 -0.0597439 11.8668 0.657444 15.0684C1.01838 16.6903 1.36057 18.1528 1.41213 18.3121C1.53869 18.7059 1.80588 19.0996 2.13869 19.395C2.28869 19.5309 3.46994 20.3043 4.75901 21.12C6.31057 22.095 7.17776 22.6715 7.31838 22.8168C7.51994 23.0278 7.60432 23.1871 7.74494 23.67C7.84807 24.0168 8.19494 24.1106 8.37307 23.834C8.43869 23.7309 8.44338 23.6793 8.39182 23.4215C8.31213 23.0184 8.13401 22.6668 7.83869 22.3528C7.58557 22.0809 7.40276 21.959 3.96213 19.7887C2.60276 18.9356 2.28401 18.6637 2.11994 18.2231C2.06838 18.0871 1.72619 16.6387 1.36057 15.0028C0.877756 12.8512 0.699631 11.984 0.718381 11.8481C0.746506 11.6371 0.934006 11.37 1.12619 11.2715C1.30432 11.1778 1.65588 11.1825 1.86213 11.2809C2.16213 11.4215 2.21369 11.5621 2.62619 13.4043C3.00119 15.0731 3.01057 15.1153 2.95432 15.3825C2.84182 15.8934 2.99182 16.4325 3.32463 16.7512C3.54026 16.9575 6.67151 18.8418 6.80276 18.8418C6.98088 18.8418 7.12619 18.6825 7.12619 18.4903C7.12619 18.284 7.14494 18.2934 5.37307 17.2246C4.60432 16.7606 3.90588 16.3153 3.82151 16.2403C3.32463 15.7809 3.78401 14.9231 4.44494 15.0684C4.52463 15.0824 5.17619 15.4668 5.89338 15.9215C6.95744 16.5918 7.25744 16.7606 7.52463 16.8309C8.21838 17.0231 8.98244 17.3559 9.45119 17.67C9.84494 17.9371 10.459 18.6028 10.7215 19.0528C11.0543 19.6106 11.2043 20.0231 11.4434 21.0215C11.6403 21.8418 11.6449 21.8934 11.6684 22.859C11.6965 23.7825 11.7012 23.8575 11.7903 23.9231C11.9121 24.0168 12.0903 24.0168 12.2121 23.9231C12.3012 23.8575 12.3059 23.7825 12.334 22.859C12.3574 21.8934 12.3621 21.8418 12.559 21.0215C12.7981 20.0231 12.9481 19.6106 13.2762 19.0621C13.9278 17.9653 14.9684 17.2434 16.4778 16.8356C16.7496 16.7606 17.0403 16.5965 18.1137 15.9168C18.8356 15.4668 19.4918 15.0824 19.5762 15.0637C19.8106 15.0215 20.0074 15.0824 20.1809 15.2606C20.4434 15.5231 20.4574 15.9731 20.2137 16.2121C20.1434 16.2825 19.4356 16.7371 18.634 17.22C16.8434 18.3075 16.8762 18.284 16.8762 18.4903C16.8762 18.6825 17.0262 18.8418 17.1996 18.8418C17.3262 18.8418 17.359 18.8231 19.2668 17.6559C19.9746 17.22 20.6121 16.8121 20.6778 16.7512C21.0106 16.4325 21.1606 15.8934 21.0528 15.3871C20.9965 15.12 21.0012 15.0731 21.3762 13.4043C21.7887 11.5621 21.8356 11.4215 22.1403 11.2809C22.3465 11.1825 22.6981 11.1778 22.8762 11.2715C23.0684 11.37 23.2559 11.6371 23.284 11.8481C23.3028 11.984 23.1246 12.8512 22.6418 15.0028C22.2762 16.6387 21.934 18.0871 21.8824 18.2231C21.6949 18.72 21.4793 18.884 18.8684 20.534C17.5559 21.359 16.384 22.1278 16.2715 22.2356C15.8965 22.5871 15.6621 23.0371 15.5871 23.5387C15.559 23.7356 15.5684 23.7731 15.6715 23.8762C15.9199 24.1246 16.1824 23.9887 16.2903 23.5621C16.384 23.1965 16.5059 22.9762 16.7215 22.7746C16.8715 22.6293 18.6809 21.4621 21.0199 19.9996C21.9715 19.4043 22.3746 18.9684 22.5903 18.3121C22.6418 18.1528 22.984 16.6903 23.3449 15.0684C24.0621 11.8668 24.0715 11.8293 23.8699 11.3793C23.4809 10.4934 22.3418 10.2168 21.5731 10.8215C21.2074 11.1121 21.1324 11.309 20.7668 12.9403C20.584 13.7512 20.4293 14.4356 20.4199 14.4637C20.4059 14.5012 20.3121 14.4871 20.1246 14.4262C19.9465 14.3653 19.7778 14.3418 19.6324 14.3559L19.4074 14.3746V13.3528V12.3262H19.7824C20.3778 12.3262 20.434 12.2043 20.2512 11.37C20.1996 11.1356 20.1574 10.9434 20.1574 10.934C20.1574 10.9246 20.2231 10.92 20.2981 10.92C20.7621 10.92 21.2309 10.4465 21.2356 9.96839C21.2356 9.87464 21.0668 8.97933 20.8606 7.9762C20.5371 6.41058 20.4621 6.11526 20.3168 5.81526C20.0215 5.21526 19.4262 4.72307 18.7559 4.5262C18.559 4.46995 18.2824 4.4512 17.5512 4.4512C16.4918 4.4512 16.2246 4.50276 15.7746 4.78401C15.3434 5.0512 15.1371 5.30901 14.1059 6.85589L13.0793 8.3887L11.9965 8.37933L10.909 8.36526L9.98557 6.84183C8.94026 5.1262 8.78088 4.93401 8.22307 4.65276L7.85744 4.47464L6.19338 4.46526C4.57151 4.4512 4.51526 4.45589 4.21994 4.55901ZM7.50119 5.15901C7.83869 5.21058 8.11057 5.3512 8.34026 5.58558C8.42463 5.66995 8.87932 6.37776 9.35276 7.15589L10.2199 8.5762L10.0184 8.75901C9.86838 8.89964 9.80744 8.93245 9.76994 8.89026C9.74182 8.85745 9.41838 8.35589 9.05276 7.76995C8.68713 7.1887 8.35432 6.69651 8.31682 6.68245C8.18557 6.63089 8.07776 6.65433 7.95119 6.75276L7.82932 6.84651V10.7231C7.82932 14.3184 7.82463 14.6137 7.74494 14.7637C7.57619 15.1059 7.16838 15.2325 6.85901 15.045C6.55901 14.8621 6.56369 14.8996 6.56369 12.4996C6.56369 10.3668 6.56369 10.32 6.46526 10.1981C6.33869 10.0387 6.09494 10.0293 5.95432 10.1793C5.86057 10.2778 5.86057 10.334 5.86057 12.4293C5.86057 14.1637 5.84651 14.609 5.79494 14.7356C5.75744 14.8246 5.71057 14.9043 5.68713 14.9184C5.66369 14.9325 5.49026 14.8434 5.29807 14.7215C5.10588 14.595 4.86682 14.4684 4.77307 14.4309L4.59494 14.37V10.5825V6.79026L4.47776 6.67776C4.41682 6.61214 4.30901 6.56058 4.24338 6.56058C4.17776 6.56058 4.06994 6.61214 4.00901 6.67776L3.89182 6.79026V8.5762C3.89182 9.55589 3.87307 10.3575 3.84963 10.3575C3.77932 10.3575 3.56369 10.1278 3.51682 10.0059C3.48869 9.93089 3.46994 9.16683 3.46994 8.10745C3.46994 6.44339 3.47463 6.31214 3.56369 6.07776C3.74182 5.60433 4.18244 5.2387 4.67932 5.15433C5.01213 5.09808 7.15432 5.10276 7.50119 5.15901ZM18.3293 5.15433C18.9293 5.25276 19.459 5.63714 19.7028 6.14808C19.7824 6.31214 19.9418 6.97308 20.1762 8.12151C20.3731 9.06839 20.5324 9.89339 20.5324 9.94495C20.5324 10.1793 20.2043 10.3106 20.0543 10.1325C20.0074 10.0856 19.8574 9.4387 19.6699 8.50589C19.4965 7.65276 19.3324 6.8887 19.309 6.80433C19.1871 6.42464 18.6574 6.50433 18.6574 6.89808C18.6574 7.02933 19.5012 11.2996 19.5762 11.5387C19.5996 11.6184 19.4824 11.6231 17.5653 11.6231H15.5309L15.6434 11.07C16.4215 7.29183 16.4965 6.87464 16.4309 6.74339C16.3137 6.51839 16.0653 6.49495 15.8824 6.68714C15.8168 6.76214 15.4606 7.24026 15.0949 7.75589C14.7246 8.27151 14.3731 8.75901 14.3121 8.84339L14.1996 8.9887L14.0121 8.79183C13.9137 8.67933 13.8293 8.5762 13.8293 8.55745C13.8293 8.47308 15.7137 5.71683 15.8637 5.58558C16.1121 5.36995 16.4637 5.2012 16.7731 5.15901C17.1621 5.10276 17.9778 5.10276 18.3293 5.15433ZM9.10901 9.16683L9.61057 9.97308V11.1965C9.61057 12.1996 9.62463 12.4528 9.68088 12.5981C9.77932 12.8231 9.90119 12.9496 10.1262 13.0528L10.3043 13.1325L10.3231 14.1028C10.3371 14.6559 10.3653 15.12 10.3981 15.1903C10.4824 15.3918 10.7449 15.6637 10.9465 15.7528C11.209 15.8746 11.5184 15.8653 11.7809 15.7293L12.0012 15.6215L12.2215 15.7293C12.484 15.8653 12.7934 15.8746 13.0559 15.7528C13.2574 15.6637 13.5199 15.3918 13.6043 15.1903C13.6371 15.12 13.6653 14.6559 13.6793 14.0981C13.6981 13.1512 13.7028 13.1278 13.8012 13.095C13.984 13.0387 14.2137 12.8325 14.3028 12.6356C14.3824 12.4621 14.3918 12.3121 14.3918 11.1918V9.94026L14.9121 9.20901C15.1981 8.81058 15.4371 8.48245 15.4465 8.48245C15.4512 8.48245 15.3012 9.24183 15.1137 10.1746C14.9215 11.1075 14.7668 11.9278 14.7668 12.0028C14.7668 12.2418 14.9168 12.3262 15.3387 12.3262H15.7043V13.5825C15.7043 14.97 15.7371 15.1856 15.9762 15.4481C16.1731 15.6637 16.3465 15.7621 16.6324 15.8184L16.8903 15.87L16.684 15.9918C16.5668 16.0621 16.3371 16.1512 16.1731 16.1934C14.809 16.545 13.684 17.2809 12.9199 18.3262C12.6434 18.6965 12.2309 19.5262 12.1137 19.9387C12.0668 20.1075 12.0153 20.2481 12.0012 20.2481C11.9871 20.2481 11.9356 20.1075 11.8887 19.9387C11.7715 19.5262 11.359 18.7012 11.0824 18.3262C10.5996 17.67 10.0184 17.159 9.32932 16.784C8.91682 16.5637 8.26057 16.3059 7.82932 16.1934C7.66526 16.1512 7.43088 16.0575 7.31369 15.9918L7.10276 15.8653L7.31369 15.8371C7.80119 15.7668 8.19963 15.4668 8.40119 15.0262L8.50901 14.7871L8.52307 11.534C8.52776 9.74339 8.55119 8.29964 8.57463 8.32308C8.59338 8.34651 8.83713 8.7262 9.10901 9.16683ZM13.3934 9.16683C13.6793 9.37776 13.6887 9.4387 13.6793 10.9903L13.6653 12.3965L13.4215 12.42C12.9809 12.4668 12.9856 12.4481 12.9856 13.7559C12.9856 14.834 12.9809 14.8996 12.8871 15.0168C12.7699 15.1668 12.5684 15.1809 12.4418 15.0403C12.3621 14.9512 12.3528 14.8387 12.3293 13.8403C12.3059 12.8184 12.3012 12.734 12.2168 12.6731C12.0996 12.5887 11.9028 12.5887 11.7856 12.6731C11.7012 12.734 11.6965 12.8184 11.6731 13.8403C11.6496 14.8387 11.6403 14.9512 11.5606 15.0403C11.434 15.1809 11.2324 15.1668 11.1153 15.0168C11.0215 14.8996 11.0168 14.834 11.0168 13.7559C11.0168 12.4481 11.0215 12.4668 10.5809 12.42L10.3371 12.3965L10.3231 11.0371C10.3137 10.1981 10.3278 9.61214 10.3559 9.50901C10.4168 9.30276 10.5856 9.1387 10.7918 9.09183C10.8762 9.06839 11.4668 9.05433 12.1043 9.05901C13.1918 9.06839 13.2668 9.07308 13.3934 9.16683ZM17.2043 13.6153V14.909L17.0871 15.0215C16.9278 15.1856 16.7215 15.1762 16.5434 15.0028L16.4074 14.8668V13.5965V12.3262H16.8059H17.2043V13.6153ZM18.7043 13.5215V14.7215L18.4137 14.9043L18.1184 15.0918L18.0153 14.9746C17.9074 14.8528 17.9074 14.834 17.9074 13.5871V12.3262H18.3059H18.7043V13.5215Z" fill="#129412"/>
<path d="M11.7341 4.875C11.2748 4.96875 10.8623 5.31562 10.6232 5.8125C10.492 6.08437 10.4779 6.17344 10.4638 6.61875C10.4357 7.45312 10.6091 7.8375 11.1201 8.06719C11.3404 8.16562 11.4341 8.17969 12.0013 8.17969C12.5685 8.17969 12.6623 8.16562 12.8826 8.06719C13.3654 7.84687 13.5482 7.47656 13.5529 6.70312C13.5529 6.08437 13.4029 5.68594 13.0232 5.30156C12.681 4.95469 12.1795 4.78594 11.7341 4.875ZM12.1935 5.57812C12.4045 5.63906 12.7138 5.9625 12.8029 6.21562C12.8826 6.43594 12.8779 7.11094 12.8029 7.25625C12.7045 7.44375 12.5123 7.5 12.0013 7.5C11.2607 7.5 11.1482 7.40625 11.1388 6.77812C11.1341 6.31406 11.2279 6.04219 11.4763 5.79844C11.7248 5.55469 11.9123 5.49844 12.1935 5.57812Z" fill="#129412"/>
</svg>
