<svg width="20" height="24" viewBox="0 0 20 24" fill="none" xmlns="http://www.w3.org/2000/svg">
<path d="M18.4902 7.28516C18.8699 7.28516 19.1787 7.59349 19.1787 7.97363V11.584C19.1785 11.9636 18.8699 12.2715 18.4902 12.2715H18.0234V7.28516H18.4902Z" stroke="#129412"/>
<path d="M16.2607 15.7734C16.8342 15.7732 17.3582 16.0069 17.7334 16.3828V16.3838C18.1096 16.7594 18.344 17.2833 18.3438 17.8564V19.2656H19.1777V22.3477C19.1777 22.9845 18.6612 23.5008 18.0244 23.501H14.4971C13.8601 23.5009 13.3438 22.9845 13.3438 22.3477V19.2656H14.1768V17.8564C14.1768 17.2831 14.4109 16.7593 14.7871 16.3838L14.7881 16.3828C15.1164 16.054 15.5585 15.8339 16.0479 15.7842L16.2607 15.7734ZM16.2607 19.7539C15.513 19.7539 14.9064 20.3597 14.9062 21.1074C14.9062 21.8552 15.5129 22.4619 16.2607 22.4619C17.0085 22.4618 17.6143 21.8551 17.6143 21.1074C17.6141 20.3598 17.0084 19.754 16.2607 19.7539ZM16.2598 16.0273C15.8801 16.0278 15.5314 16.1414 15.2383 16.3389L15.2373 16.3398C14.9459 16.5368 14.7136 16.8167 14.5752 17.1445C14.4826 17.3637 14.4317 17.6032 14.4316 17.8564V19.2656H18.0898V17.8564L18.084 17.7148C18.0591 17.3894 17.9507 17.0899 17.7783 16.834H17.7773C17.5806 16.5427 17.3008 16.3095 16.9727 16.1709C16.7537 16.0784 16.514 16.0274 16.2607 16.0273H16.2598Z" stroke="#129412"/>
<path d="M2.02148 0.5H17.9814C18.6424 0.500038 19.1786 1.03587 19.1787 1.69629V4.79883C19.1785 5.17824 18.87 5.48633 18.4902 5.48633H16.1855V13.8154C15.2693 13.832 14.4013 14.1516 13.7012 14.7275C13.3798 14.3646 12.9835 14.0767 12.6074 13.8545C12.059 13.5305 11.5015 13.3121 11.1611 13.1846L11.1602 13.1836C10.9896 13.1197 10.7527 12.9814 10.5615 12.8232C10.4673 12.7452 10.4004 12.6753 10.3613 12.623C10.3552 12.6149 10.3514 12.6072 10.3477 12.6016V12.0039C10.4805 11.8122 10.5856 11.5856 10.6689 11.3555C10.7547 11.1186 10.8253 10.8557 10.8828 10.582C10.9943 10.5101 11.1025 10.415 11.1992 10.2793C11.3515 10.0656 11.4605 9.77985 11.5645 9.41699C11.6969 8.9536 11.6452 8.5361 11.3408 8.26953C11.4642 7.60554 11.4112 6.96111 11.1982 6.44434C10.9752 5.90331 10.5363 5.43515 9.91895 5.37012C9.66088 5.08671 9.32245 4.95583 8.98047 4.92188C8.57553 4.88166 8.14312 4.96829 7.76758 5.07129C7.39457 5.17359 6.99752 5.31693 6.70996 5.40918C6.55686 5.45829 6.43052 5.49495 6.32812 5.5166C6.21931 5.53959 6.1776 5.53701 6.17773 5.53711L5.60742 5.45508V6.03223C5.60746 6.29759 5.66183 6.5252 5.71484 6.68457C5.71993 6.69986 5.72637 6.71431 5.73145 6.72852C5.63516 7.02709 5.61406 7.36334 5.61523 7.64062C5.61613 7.84924 5.63127 8.0556 5.64941 8.23926C5.63433 8.25112 5.6183 8.26293 5.60352 8.27637C5.34168 8.51462 5.27698 8.86265 5.35156 9.24902L5.39258 9.41699C5.49598 9.78023 5.60493 10.0662 5.75781 10.2803C5.85416 10.4151 5.96137 10.5093 6.07227 10.5811C6.1297 10.8552 6.20208 11.1182 6.28809 11.3555C6.37144 11.5854 6.47631 11.8122 6.60938 12.0039V12.5986C6.60521 12.6048 6.60139 12.6134 6.59473 12.6221C6.55177 12.678 6.47885 12.7506 6.38086 12.8311C6.17968 12.9962 5.94544 13.1313 5.80469 13.1807H5.80371C5.35734 13.3381 4.54864 13.6547 3.86133 14.165C3.22262 14.6393 2.59679 15.3541 2.5957 16.332L2.60449 16.5312C2.6277 16.8062 2.81944 16.9713 2.92285 17.0449C3.04407 17.1312 3.19179 17.198 3.33984 17.252C3.64098 17.3617 4.05081 17.456 4.53613 17.5342C5.51337 17.6917 6.87735 17.7959 8.47949 17.7959C9.57566 17.7959 10.5601 17.7449 11.3867 17.6631V21.8467H2.02148C1.3605 21.8467 0.824219 21.3104 0.824219 20.6494V1.69629C0.824333 1.03585 1.3605 0.5 2.02148 0.5Z" stroke="#129412"/>
</svg>
