<svg width="21" height="22" viewBox="0 0 21 22" fill="none" xmlns="http://www.w3.org/2000/svg">
<path d="M11 8.43966C12.933 8.43966 14.5 6.77423 14.5 4.71983C14.5 2.66542 12.933 1 11 1C9.067 1 7.5 2.66542 7.5 4.71983C7.5 6.77423 9.067 8.43966 11 8.43966Z" stroke="#129412" stroke-width="2" stroke-linecap="round" stroke-linejoin="round"/>
<path d="M1 20.6626C1 15.9666 5.0295 12.1602 10 12.1602M17.5 15.3486V13.7544C17.5 13.3316 17.342 12.9261 17.0607 12.6271C16.7794 12.3281 16.3978 12.1602 16 12.1602C15.6022 12.1602 15.2206 12.3281 14.9393 12.6271C14.658 12.9261 14.5 13.3316 14.5 13.7544V15.3486M12.5 15.3486H19.5V20.6626H12.5V15.3486Z" stroke="#129412" stroke-width="2" stroke-linecap="round" stroke-linejoin="round"/>
</svg>
