<svg width="24" height="24" viewBox="0 0 24 24" fill="none" xmlns="http://www.w3.org/2000/svg">
<path d="M12.0016 11.5184C11.2816 11.5184 10.8016 11.9984 10.8016 12.7184C10.8016 13.1984 11.1616 13.5584 11.5216 13.6784L11.1616 15.3584H12.7216L12.3616 13.6784C12.8416 13.5584 13.0816 13.1984 13.0816 12.7184C13.2016 11.9984 12.7216 11.5184 12.0016 11.5184ZM12.1216 6.35844C11.2816 6.35844 10.4416 6.95844 10.4416 7.79844V9.59844H13.6816V7.79844C13.5616 6.95844 12.9616 6.35844 12.1216 6.35844ZM12.0016 2.39844L3.60156 5.99844V9.59844C3.72156 14.8784 7.08156 19.5584 12.0016 21.4784C16.9216 19.5584 20.2816 14.8784 20.4016 9.59844V5.99844L12.0016 2.39844ZM16.8016 15.5984C16.8016 16.3184 16.3216 16.7984 15.6016 16.7984H8.40156C7.68156 16.7984 7.20156 16.3184 7.20156 15.5984V10.7984C7.20156 10.0784 7.68156 9.59844 8.40156 9.59844H8.76156V7.79844C8.88156 6.11844 10.3216 4.79844 12.0016 4.79844C13.6816 4.79844 15.1216 6.11844 15.2416 7.79844V9.59844H15.6016C16.3216 9.59844 16.8016 10.0784 16.8016 10.7984V15.5984Z" fill="#129412"/>
</svg>
