<svg width="24" height="24" viewBox="0 0 24 24" fill="none" xmlns="http://www.w3.org/2000/svg">
<path d="M21.2562 7.134L20.7622 6.277C20.3892 5.629 20.2022 5.305 19.8852 5.177C19.5672 5.047 19.2082 5.149 18.4902 5.353L17.2702 5.696C16.8112 5.802 16.3302 5.742 15.9112 5.527L15.5742 5.333C15.215 5.10266 14.9388 4.76347 14.7862 4.365L14.4522 3.368C14.2322 2.708 14.1222 2.378 13.8622 2.188C13.5992 2 13.2512 2 12.5572 2H11.4432C10.7482 2 10.4012 2 10.1402 2.189C9.87817 2.378 9.76917 2.708 9.54917 3.368L9.21517 4.365C9.06249 4.76347 8.78637 5.10266 8.42717 5.333L8.09017 5.527C7.67129 5.74184 7.19006 5.80204 6.73117 5.697L5.51117 5.353C4.79317 5.149 4.43417 5.047 4.11617 5.176C3.79917 5.306 3.61217 5.629 3.23917 6.277L2.74517 7.134C2.39517 7.741 2.22017 8.044 2.25517 8.368C2.28817 8.691 2.52217 8.951 2.99117 9.472L4.02117 10.625C4.27417 10.944 4.45317 11.5 4.45317 12C4.45317 12.5 4.27317 13.056 4.02217 13.375L2.99117 14.528C2.52217 15.048 2.28817 15.309 2.25417 15.632C2.22017 15.955 2.39517 16.259 2.74517 16.866L3.23917 17.723C3.61217 18.371 3.79917 18.695 4.11617 18.823C4.43417 18.953 4.79317 18.851 5.51117 18.647L6.73117 18.304C7.19117 18.198 7.67117 18.258 8.09117 18.473L8.42717 18.667C8.78617 18.897 9.06217 19.237 9.21517 19.635L9.54917 20.632C9.76917 21.292 9.87917 21.622 10.1392 21.812C10.4012 22 10.7492 22 11.4432 22H12.5572C13.2522 22 13.5992 22 13.8602 21.811C14.1222 21.622 14.2322 21.293 14.4512 20.633L14.7852 19.635C14.9382 19.236 15.2142 18.897 15.5732 18.667L15.9102 18.473C16.329 18.2582 16.8103 18.198 17.2692 18.303L18.4892 18.647C19.2072 18.851 19.5662 18.953 19.8842 18.824C20.2012 18.694 20.3882 18.371 20.7612 17.723L21.2552 16.866C21.6052 16.259 21.7802 15.956 21.7452 15.632C21.7122 15.309 21.4782 15.049 21.0092 14.528L19.9792 13.375C19.7262 13.055 19.5472 12.5 19.5472 12C19.5472 11.5 19.7272 10.944 19.9782 10.625L21.0092 9.472C21.4782 8.952 21.7122 8.691 21.7462 8.368C21.7802 8.045 21.6062 7.741 21.2562 7.134Z" stroke="#129412" stroke-width="1.5" stroke-linecap="round" stroke-linejoin="round"/>
<path d="M14.0624 11.5011L14.5624 11.0011C15.0034 10.5601 15.2244 10.3391 15.5134 10.4311C15.8034 10.5221 15.8494 10.7841 15.9404 11.3081C15.9804 11.5334 16.0004 11.7644 16.0004 12.0011C16.0007 12.6562 15.8401 13.3014 15.5327 13.88C15.2252 14.4585 14.7804 14.9527 14.2373 15.3191C13.6941 15.6854 13.0693 15.9128 12.4177 15.9811C11.7661 16.0495 11.1077 15.9567 10.5004 15.7111M10.0004 12.5361L9.4564 13.0801C9.0224 13.5141 8.8044 13.7321 8.5184 13.6451C8.2314 13.5581 8.1804 13.3011 8.0784 12.7881C7.93611 12.08 7.98818 11.3466 8.2291 10.6657C8.47002 9.98484 8.89079 9.3819 9.44676 8.92089C10.0027 8.45988 10.6731 8.15799 11.3868 8.04728C12.1005 7.93656 12.8309 8.02115 13.5004 8.29206" stroke="#129412" stroke-width="1.5" stroke-linecap="round" stroke-linejoin="round"/>
</svg>
