<svg width="32" height="32" viewBox="0 0 32 32" fill="none" xmlns="http://www.w3.org/2000/svg">
<path d="M16.0026 6.66667V20M16.0026 20L12.6693 16.6667M16.0026 20L19.3359 16.6667" stroke="white" stroke-width="2" stroke-linecap="round" stroke-linejoin="round"/>
<path fill-rule="evenodd" clip-rule="evenodd" d="M23.5709 22.5903C22.4943 25.7372 19.5127 28 16 28C12.4873 28 9.5056 25.7372 8.42907 22.5903C5.91427 22.1608 4 19.9706 4 17.3333C4 14.3879 6.38787 12 9.33333 12H10.6667C11.4031 12 12 12.5969 12 13.3333C12 14.0697 11.4031 14.6667 10.6667 14.6667H9.33333C7.86053 14.6667 6.66667 15.8605 6.66667 17.3333C6.66667 18.8061 7.86053 20 9.33333 20C9.3632 20 9.39307 19.9995 9.4228 19.9985C10.0731 19.9773 10.6437 20.4286 10.7731 21.0664C11.2664 23.501 13.4207 25.3333 16 25.3333C18.5793 25.3333 20.7336 23.501 21.227 21.0664C21.3562 20.4286 21.9269 19.9773 22.5773 19.9985C22.607 19.9995 22.6368 20 22.6667 20C24.1394 20 25.3333 18.8061 25.3333 17.3333C25.3333 15.8605 24.1394 14.6667 22.6667 14.6667H21.3333C20.597 14.6667 20 14.0697 20 13.3333C20 12.5969 20.597 12 21.3333 12H22.6667C25.6122 12 28 14.3879 28 17.3333C28 19.9706 26.0858 22.1608 23.5709 22.5903Z" fill="white"/>
</svg>
